**ABCDEFGHIJKLMNOPQRSTUVWXYZabcdefghijklmnopqrstuvwxyz**************************
**PARASOLID !"#$%&'()*+,-./:;<=>?@[\]^_`{|}~0123456789**************************
**PART1;
MC=unknown;
MC_MODEL=unknown;
MC_ID=unknown;
OS=unknown;
OS_RELEASE=unknown;
FRU=Parasolid 35.1.171;
APPL=Onshape;
SITE=unknown;
USER=unknown;
FORMAT=text;
GUISE=transmit;
KEY=BTGapi::writeModels_.xmt;
FILE=BTGapi::writeModels_.xmt;
**PART2;
SCH=SCH_3501171_35102;
USFLD_SIZE=0;
**PART3;
**END_OF_HEADER*****************************************************************
T51 : TRANSMIT FILE created by modeller version 350117117 SCH_3501171_351020 12
 1 1746 2 3 0 0 0 0 0 0 0 1e3 1e-8 0 4 5 1 0 1 2 6 0 7 8 9 0 0 10 11 12 0 0 0 0
 0 0 0 81 1 2 1715 13 1 14 0 0 0 15 70 3 0 4 T1 0 0 6 20 1 16 16 13 6 169 0 1 0
 17 0 0 18 0 52 7 1409 19 20 21 0 22 --162560776236496e-31 1387778780781446e-32
 .0276 0 0 1 .0286904235658876 .707106781186548 .707106781186548 1 0 0 31 8 1496
 0 23 24 0 0 --.0320084097216098 -240272691160703e-46 .0292 -197127667724647e-30
 -822851682057202e-45 1 1 0 197127667724647e-30 .00155 29 9 1276 0 12 25 0 .0186
 -.023907106888975 .0292 19 10 68 0 1 18 0 26 0 V0 16 11 1287 27 ?28 0 29 30 0 0
 1 18 12 1274 31 32 0 33 9 ?1 81 1 31 1422 34 12 0 0 35 36 37 17 32 0 38 39 40 1
2 41 42 0 43 -18 33 1270 35 44 12 45 25 ?1 81 1 35 1421 34 33 0 0 46 31 47 17 44
 0 48 28 49 33 50 51 0 39 -18 45 1261 52 53 33 54 55 ?1 29 25 1272 0 33 55 9 -.0
186 -.02390710688897505 .0292 29 55 1264 0 45 56 25 .0186 -.0218444593522027 .02
76 29 56 1260 0 54 57 55 -.0186 -.02184445935220275 .0276 18 54 1257 36 28 45 58
 56 ?1 29 57 256 0 58 59 56 -.02041721300464115 .01719058239995375 .003 18 58 25
4 60 61 54 62 57 ?1 29 59 145 0 62 63 57 -.0186 -.02184445935220275 0 18 62 124
 64 65 58 66 59 ?1 29 63 146 0 66 67 59 .0186 -.0218444593522027 0 18 66 128 68
 69 62 70 63 ?1 29 67 147 0 70 71 63 .0186 .0171905823999538 0 18 70 132 72 73 6
6 74 67 ?1 29 71 148 0 74 75 67 -.0186 .01719058239995375 0 18 74 136 76 77 70 7
8 71 ?1 29 75 547 0 78 79 71 .02041721300464115 .01719058239995375 .0322 18 78 4
37 80 81 74 82 75 ?1 29 79 548 0 82 83 75 .0186 .01914206650616615 .0322 18 82 4
29 84 85 78 86 79 ?1 29 83 549 0 86 87 79 -.0186 .01914206650616615 .0322 18 86
 425 88 89 82 90 83 ?1 29 87 550 0 90 91 83 -.02041721300464115 .017190582399953
75 .0322 18 90 417 92 93 86 94 87 ?1 29 91 551 0 94 95 87 -.0186 .01719058239995
375 .0322 18 94 421 96 97 90 98 91 ?1 29 95 552 0 98 99 91 .0186 .01719058239995
38 .0322 18 98 433 100 101 94 102 95 ?1 29 99 555 0 102 103 95 .0186 .0171905823
999538 .003 18 102 435 104 105 98 106 99 ?1 29 103 556 0 106 107 99 -.0186 .0171
9058239995375 .003 18 106 423 108 109 102 110 103 ?1 29 107 557 0 110 111 103 -.
0186 -.01914206650616615 .003 18 110 415 112 113 106 114 107 ?1 29 111 560 0 114
 115 107 .0186 -.0191420665061661 .003 18 114 443 116 117 110 118 111 ?1 29 115
 561 0 118 119 111 .02041721300464115 .01719058239995375 .003 18 118 439 120 121
 114 122 115 ?1 29 119 562 0 122 123 115 .0186 .01914206650616615 .003 18 122 43
1 124 125 118 126 119 ?1 29 123 563 0 126 127 119 -.0186 .01914206650616615 .003
 18 126 427 128 129 122 130 123 ?1 29 127 1202 0 130 131 123 .0186 -.01914206650
61661 .0292 18 130 1128 132 40 126 133 127 ?1 29 131 1205 0 133 0 127 -.0186 -.0
1914206650616615 .0292 18 133 1132 134 50 130 0 131 ?1 81 1 134 1242 34 133 0 0
 132 135 136 17 50 0 38 40 39 133 44 51 0 137 +15 38 1168 0 32 138 139 17 40 0 3
8 32 50 130 137 140 0 41 +17 39 0 38 50 32 33 141 142 0 143 +16 51 1110 144 ?50
 42 140 145 0 0 1 17 137 0 146 113 147 133 40 140 0 49 -15 146 460 0 81 148 0 17
 113 0 146 61 137 110 49 149 0 150 +17 147 0 146 137 151 130 117 152 0 0 -16 140
 1107 153 ?40 51 154 155 0 0 1 17 49 0 48 44 156 133 113 149 0 0 -15 48 1040 0 4
4 157 0 17 156 0 48 49 158 110 159 160 0 0 +16 149 321 161 ?113 152 162 163 0 0
 1 81 1 161 1248 34 149 0 0 164 46 165 16 152 361 164 ?117 166 149 167 0 0 1 16
 162 398 168 ?169 149 170 171 0 0 1 30 163 532 0 149 172 167 0 +-.0186 -.0191420
6650616615 .2598176211353315 0 0 -1 30 172 533 0 173 174 163 0 +-.0186 .01719058
239995375 .2598176211353315 0 0 -1 30 167 529 0 152 163 175 0 +.0186 -.019142066
5061661 .2598176211353315 0 0 -1 30 175 528 0 166 167 176 0 +.02041721300464115
 .01719058239995375 .2598176211353315 0 0 -1 16 166 355 177 ?121 178 152 175 0 0
 1 30 176 527 0 179 175 180 0 +.0186 .01914206650616615 .2598176211353315 0 0 -1
 16 179 341 181 ?125 182 178 176 0 0 1 30 180 526 0 182 176 183 0 +-.0186 .01914
206650616615 .2598176211353315 0 0 -1 16 182 338 184 ?129 173 179 180 0 0 1 30 1
83 525 0 185 180 186 0 +-.02041721300464115 .01719058239995375 .2598176211353315
 0 0 -1 16 185 324 187 ?188 189 173 183 0 0 1 30 186 520 0 189 183 190 0 +.01950
86065023206 .01719058239995375 .0322 -1 0 -197127667724647e-30 16 189 344 191 ?1
01 192 185 186 0 0 1 30 190 519 0 193 186 194 0 +.0186 .01816632445305995 .0322
 0 -1 -822851682057202e-45 16 193 312 195 ?196 197 198 190 0 0 1 31 194 518 0 19
8 190 199 0 +-867361737988404e-32 693889390390723e-32 .0322 197127667724647e-30
 822851682057202e-45 -1 -1 0 -197127667724647e-30 .0266904235658876 16 198 309 2
00 ?201 193 202 194 0 0 1 30 199 517 0 192 194 203 0 +-.0186 .01816632445305995
 .0322 0 -1 -822851682057202e-45 16 192 327 204 ?97 205 189 199 0 0 1 30 203 516
 0 202 199 206 0 +-.0195086065023205 .01719058239995375 .0322 1 0 19712766772464
7e-30 16 202 306 207 ?208 198 205 203 0 0 1 31 206 515 0 205 203 209 0 +-8673617
37988404e-32 1734723475976805e-33 .0322 197127667724647e-30 822851682057202e-45
 -1 -1 0 -197127667724647e-30 .0266904235658876 16 205 303 135 ?210 202 192 206
 0 0 1 30 209 9 0 160 206 211 0 +-.0186 -.0194769384761244 .003 0 -1 0 16 160 7
 212 ?156 213 214 209 0 0 1 30 211 19 0 213 209 215 0 +0 .01719058239995375 .003
 1 0 0 16 213 17 216 ?217 218 160 211 0 0 1 30 215 24 0 218 211 219 0 +.0186 405
823999538868e-19 .003 0 -1 0 16 218 22 220 ?221 222 213 215 0 0 1 30 219 144 0 1
97 215 223 0 +-.0186 -.0194769384761244 0 0 -1 0 16 197 118 224 ?225 226 193 219
 0 0 1 30 223 143 0 226 219 227 0 +0 .01719058239995375 0 1 0 0 16 226 114 228 ?
73 229 197 223 0 0 1 30 227 142 0 229 223 230 0 +.0186 405823999538868e-19 0 0 -
1 0 16 229 108 231 ?232 214 226 227 0 0 1 31 230 141 0 214 227 233 0 +-162560776
236496e-31 1387778780781446e-32 0 0 0 1 1 0 0 .0286904235658876 16 214 104 234 ?
235 160 229 230 0 0 1 30 233 165 0 222 230 236 0 +-.0186 -.02184445935220275 .00
3 0 0 -1 16 222 1258 237 ?65 238 218 233 0 0 1 30 236 166 0 238 233 239 0 +.0186
 -.0218444593522027 .003 0 0 -1 16 238 1262 240 ?69 241 222 236 0 0 1 30 239 167
 0 241 236 242 0 +.0186 .0171905823999538 .003 0 0 -1 16 241 151 243 ?244 245 23
8 239 0 0 1 30 242 168 0 245 239 246 0 +-.0186 .01719058239995375 .003 0 0 -1 16
 245 152 247 ?77 248 241 242 0 0 1 31 246 653 0 249 242 250 0 -.0236904235658875
5 867361737988404e-32 0 0 0 1 1 0 0 .0011 16 249 803 251 ?252 253 254 246 0 0 1
 31 250 660 0 253 246 255 0 --1387778780781446e-32 .0236904235658876 0 0 0 1 1 0
 0 .0011 16 253 757 256 ?257 258 249 250 0 0 1 31 255 667 0 258 250 259 0 --.023
6904235658876 1734723475976805e-33 0 0 0 1 1 0 0 .0011 16 258 711 260 ?261 262 2
53 255 0 0 1 31 259 1267 0 248 255 263 0 --162560776236496e-31 1387778780781446e
-32 .0276 0 0 1 1 0 0 .0286904235658876 16 248 1265 264 ?265 142 245 259 0 0 1 3
1 263 1277 0 142 259 266 0 +-162560776236496e-31 1387778780781446e-32 .0292 -197
127667724647e-30 -822851682057202e-45 1 1 0 197127667724647e-30 .030290423565887
6 16 142 1275 267 ?39 29 248 263 0 0 1 38 266 1389 0 29 263 30 0 +268 7 269 270
 271 272 16 29 1283 273 ?43 11 142 266 0 0 1 38 30 1390 0 11 266 274 0 +7 21 275
 276 277 278 50 268 162 0 279 280 281 282 +.0186 405823999538868e-19 .003 1 0 0
 0 0 -1 40 2 269 0 1 2 2349579422688005e-20 .01741173421236015 ??.0186 -.0218444
593522027 .0276 .0186 -.02390710688897505 .0292 41 1 270 L?.0186 -.0218444593522
027 .0276 41 1 271 L?.0186 -.02390710688897505 .0292 204 8 272 4 -.0246 -.021885
0417521566 5.41773844245563 0 -.0262 -.0239476892889289 5.37357765305844 .0016 1
4 279 156 283 ?284 285 286 6 268 -0 0 284 285 26 51 280 161 0 284 287 268 0 --16
2560776236496e-31 1387778780781446e-32 .003 0 0 -1 .0286904235658876 -1 0 0 50 2
81 163 0 285 268 21 0 +0 .01719058239995375 .003 0 1 0 0 0 1 141 282 266 282 282
 268 14 285 158 288 ?279 157 289 6 281 -0 0 279 157 26 50 21 164 0 157 281 7 290
 +-.0186 -.0194769384761244 .003 1 0 0 0 0 -1 14 157 160 291 ?285 292 48 6 21 +0
 0 285 292 26 141 290 30 290 290 21 81 1 291 1719 293 157 294 0 295 288 296 14 2
92 1 295 ?157 297 298 6 299 +17 297 157 297 26 13 26 69 0 0 0 0 0 0 10 17 14 17
 278 300 ?297 0 301 6 299 +297 292 297 0 26 81 1 300 1716 293 17 302 0 0 303 304
 14 297 273 303 ?292 17 305 6 299 +292 17 292 17 26 15 301 686 0 306 17 307 50 2
99 3 0 17 308 287 0 +-1040834085586084e-32 3469446951953615e-33 .003 0 0 1 1 0 0
 50 308 503 0 309 310 299 0 +-.0176 -.016909417600046 .0322 197127667724647e-30
 822851682057202e-45 -1 1 2341930812374175e-46 197127667724628e-30 50 287 140 0
 311 299 280 0 +-1040834085586084e-32 3469446951953615e-33 0 0 0 1 1 0 0 14 311
 94 312 ?309 284 313 6 287 -0 0 309 284 26 81 1 312 1723 293 311 314 0 315 316 3
17 14 309 453 316 ?148 311 318 6 308 -0 0 319 311 26 14 284 154 315 ?311 279 320
 6 280 -0 0 311 279 26 15 313 666 0 321 311 322 17 321 0 313 321 321 0 261 258 0
 0 -15 322 659 0 323 311 324 17 323 0 322 323 323 0 257 253 0 0 -15 324 652 0 32
5 311 326 17 325 0 324 325 325 0 252 249 0 0 -15 326 103 0 225 311 0 17 225 0 32
6 327 328 62 329 197 0 0 +17 327 0 326 330 225 66 235 214 0 0 -17 328 0 326 225
 330 74 73 226 0 329 -17 329 0 48 158 65 74 225 197 0 0 -17 158 0 48 156 329 106
 77 245 0 331 -17 65 0 48 329 28 62 332 222 0 235 +17 28 0 48 65 44 54 143 11 0
 332 +17 332 0 320 265 235 54 65 222 0 333 -17 235 0 320 332 69 62 327 214 0 225
 +15 320 153 0 332 284 0 17 69 0 320 235 265 66 334 238 0 232 +17 265 0 320 69 3
32 45 333 248 0 334 +17 334 0 286 43 232 45 69 238 0 0 -17 232 0 286 334 244 66
 330 229 0 327 +15 286 155 0 334 279 0 17 244 0 286 232 335 70 336 241 0 330 +17
 330 0 326 328 327 70 232 229 0 0 -17 335 0 286 244 117 102 221 218 0 0 -17 336
 0 289 331 73 102 244 241 0 335 -15 289 157 0 73 285 0 17 331 0 289 77 336 106 2
17 213 0 159 -17 73 0 289 336 77 70 328 226 0 244 +17 77 0 289 73 331 74 158 245
 0 328 +17 217 0 337 169 338 102 331 213 0 336 +17 159 0 307 339 150 106 156 160
 0 0 -15 307 272 0 339 17 0 17 339 0 307 150 159 58 340 341 0 0 +17 150 0 307 15
9 339 110 61 262 0 156 +17 61 0 146 342 113 58 150 262 0 188 -16 262 383 343 ?15
0 344 258 345 0 0 1 81 1 343 598 34 262 0 0 346 347 348 16 344 403 346 ?349 350
 262 351 0 0 1 31 345 544 0 262 352 351 0 +-867361737988404e-32 1734723475976805
e-33 .003 0 0 1 1 0 0 .0266904235658876 31 352 863 0 353 354 345 0 +.02369042356
588755 867361737988404e-32 .003 0 0 -1 -1 0 0 .0022 31 351 543 0 344 345 355 0 +
-867361737988404e-32 693889390390723e-32 .003 0 0 1 1 0 0 .0266904235658876 31 3
55 542 0 350 351 356 0 +-1040834085586084e-32 3469446951953615e-33 .003 0 0 1 1
 0 0 .0266904235658876 16 350 393 357 ?358 359 344 355 0 0 1 30 356 538 0 359 35
5 360 0 +-.0186 .01816632445305995 .003 0 1 0 16 359 333 361 ?362 341 350 356 0
 0 1 30 360 537 0 341 356 363 0 +-.01950860650232055 .01719058239995375 .003 -1
 0 0 16 341 408 347 ?339 170 359 360 0 0 1 30 363 536 0 170 360 171 0 +.01950860
650232055 .01719058239995375 .003 1 0 0 16 170 350 364 ?365 162 341 363 0 0 1 30
 171 535 0 162 363 174 0 +.0186 .01816632445305995 .003 0 1 0 30 174 534 0 178 1
71 172 0 +.0186 .0171905823999538 .2598176211353315 0 0 -1 16 178 347 366 ?105 1
79 166 174 0 0 1 81 1 366 349 34 178 0 0 191 177 367 17 105 0 368 365 101 102 36
9 178 0 370 +15 368 480 0 371 319 0 17 365 0 368 371 105 118 372 170 0 358 +17 1
01 0 368 105 371 98 373 189 0 196 +17 369 0 374 85 370 98 105 178 0 0 -17 370 0
 374 369 125 102 169 162 0 372 -15 374 476 0 85 375 0 17 125 0 374 370 85 122 37
6 179 0 377 +17 169 0 337 349 217 122 370 162 0 0 +17 372 0 378 221 358 102 365
 170 0 217 -15 378 264 0 221 297 0 17 221 0 378 358 372 114 335 218 0 0 +17 358
 0 378 372 221 118 151 350 0 0 +17 151 0 146 147 121 114 358 350 0 221 -17 121 0
 146 151 81 118 371 166 0 365 +17 81 0 146 121 342 78 210 205 0 373 -17 371 0 36
8 101 365 78 121 166 0 0 -17 342 0 146 81 61 90 188 185 0 0 -17 210 0 379 208 37
3 90 81 205 0 342 +17 373 0 379 210 196 78 101 189 0 371 -15 379 1231 0 373 309
 380 17 196 0 379 373 201 98 85 193 0 369 +17 201 0 379 196 381 82 89 198 0 376
 +17 85 0 374 125 369 82 196 193 0 201 -17 381 0 379 201 208 86 97 192 0 382 -17
 89 0 383 129 376 86 201 198 0 381 -17 376 0 383 89 377 82 125 179 0 0 -15 383 4
72 0 89 384 0 17 377 0 383 376 129 122 349 344 0 169 -17 129 0 383 377 89 126 38
2 182 0 362 +17 349 0 337 338 169 126 377 344 0 0 +15 337 6 0 217 292 0 17 338 0
 337 217 349 106 362 359 0 158 -17 362 0 385 382 109 126 338 359 0 349 +15 385 4
68 0 382 386 0 17 382 0 385 97 362 86 129 182 0 0 -17 109 0 385 362 97 106 387 1
73 0 340 +17 97 0 385 109 382 94 381 192 0 208 +17 387 0 388 93 340 94 109 173 0
 0 -16 173 330 389 ?109 185 182 172 0 0 1 17 340 0 388 387 188 106 339 341 0 338
 -15 388 464 0 93 390 0 17 188 0 388 340 93 58 342 185 0 339 +17 93 0 388 188 38
7 90 208 202 0 210 -17 208 0 379 381 210 94 93 202 0 387 +14 390 461 391 ?386 14
8 388 6 392 +0 0 148 386 26 81 1 391 1726 293 390 393 0 394 395 396 14 386 465 3
95 ?384 390 385 6 397 -0 0 390 384 26 14 148 457 394 ?390 309 146 6 310 +0 0 398
 390 26 50 392 511 0 390 399 397 0 +-.01950860650232055 .01719058239995375 .2598
176211353315 0 -1 0 0 0 -1 50 399 512 0 319 400 392 0 +.01950860650232055 .01719
058239995375 .2598176211353315 0 1 0 0 0 1 50 397 510 0 386 392 401 0 +-.0186 .0
1816632445305995 .2598176211353315 -1 0 0 0 0 1 51 401 505 0 384 397 310 0 --867
361737988404e-32 693889390390723e-32 .2598176211353315 0 0 -1 .0266904235658876
 -1 0 0 14 384 469 402 ?375 386 383 6 401 +0 0 386 375 26 51 310 504 0 148 401 3
08 0 --867361737988404e-32 1734723475976805e-33 .2598176211353315 0 0 -1 .026690
4235658876 -1 0 0 81 1 402 1728 293 384 403 0 395 404 405 14 375 473 404 ?319 38
4 374 6 400 +0 0 384 319 26 81 1 404 1729 293 375 406 0 402 407 408 14 319 477 4
07 ?398 375 368 6 399 -0 0 375 309 26 50 400 513 0 375 409 399 0 +.0186 .0181663
2445305995 .2598176211353315 -1 0 0 0 0 1 51 409 849 0 410 411 400 0 -.023690423
56588755 867361737988404e-32 .003 0 0 -1 .0022 -1 0 0 14 410 833 412 ?413 414 41
5 6 409 +0 0 413 414 26 50 411 850 0 414 416 409 0 +.02589042356588755 867361737
988404e-32 .001 0 0 1 1 0 0 14 414 828 417 ?410 398 418 6 411 +0 0 410 398 26 51
 416 851 0 398 419 411 0 -.02369042356588755 867361737988404e-32 .003 0 0 -1 .00
11 -1 0 0 14 398 823 420 ?414 319 421 6 416 +0 0 414 148 26 51 419 854 0 422 423
 416 0 --1387778780781446e-32 .0236904235658876 .003 0 0 -1 .0022 -1 0 0 14 422
 787 424 ?425 426 427 6 419 +0 0 425 426 26 50 423 855 0 426 428 419 0 +.0022 .0
236904235658876 .001 0 0 1 1 0 0 14 426 782 429 ?422 413 430 6 423 +0 0 422 413
 26 51 428 856 0 413 431 423 0 --1387778780781446e-32 .0236904235658876 .003 0 0
 -1 .0011 -1 0 0 14 413 777 432 ?426 410 433 6 428 +0 0 426 410 26 51 431 859 0
 434 435 428 0 --.0236904235658876 1734723475976805e-33 .003 0 0 -1 .0022 -1 0 0
 14 434 741 436 ?437 438 439 6 431 +0 0 437 438 26 50 435 860 0 438 440 431 0 +-
.0214904235658876 1734723475976805e-33 .001 0 0 1 1 0 0 14 438 736 441 ?434 425
 442 6 435 +0 0 434 425 26 51 440 861 0 425 443 435 0 --.0236904235658876 173472
3475976805e-33 .003 0 0 -1 .0011 -1 0 0 14 425 731 444 ?438 422 445 6 440 +0 0 4
38 422 26 51 443 1181 0 437 446 440 0 +753027690708117e-32 .000181005965842321 .
0292 -197127667724647e-30 -822851682057202e-45 1 .0376904235658876 1 0 197127667
724647e-30 14 437 1160 447 ?138 434 448 6 443 +0 0 138 434 26 50 446 1183 0 138
 449 443 0 +812165991025476e-32 .000181005965842321 .0292 -197127667724647e-30 -
822851682057202e-45 1 1 -162206832967239e-60 197127667724647e-30 14 138 1165 450
 ?20 437 451 6 446 -0 0 20 437 26 51 449 1673 0 452 453 446 0 --693889390390723e
-32 -.0320084097216098 .0322 197127667724647e-30 822851682057202e-45 -1 .00155 -
1 0 -197127667724647e-30 14 452 1655 454 ?455 20 456 6 449 +0 0 455 20 26 51 453
 1676 0 455 457 449 0 -.03200840972160975 -264958241622419e-46 .0322 19712766772
4647e-30 822851682057202e-45 -1 .00155 -1 0 -197127667724647e-30 14 455 1625 458
 ?459 452 460 6 453 +0 0 459 452 26 51 457 1679 0 459 461 453 0 --69388939039072
3e-32 .0320084097216098 .0322 197127667724647e-30 822851682057202e-45 -1 .00155
 -1 0 -197127667724647e-30 14 459 1595 462 ?463 455 464 6 457 +0 0 463 455 26 51
 461 1682 0 463 0 457 0 --.0320084097216098 -264958241622419e-46 .0322 197127667
724647e-30 822851682057202e-45 -1 .00155 -1 0 -197127667724647e-30 14 463 1565 4
65 ?0 459 466 6 461 +0 0 0 459 26 81 1 465 1746 293 463 467 0 462 0 468 15 466 1
559 0 469 463 470 17 469 0 466 469 469 0 471 472 0 0 -15 470 1560 0 473 463 0 17
 473 0 470 473 473 0 474 23 0 0 +17 474 0 451 474 474 0 473 23 0 0 -16 23 1553 4
75 ?473 154 476 8 0 0 1 81 1 475 1703 34 23 0 0 477 478 479 16 154 1125 480 ?481
 140 23 482 0 0 1 16 476 1583 478 ?483 23 484 24 0 0 1 81 1 478 1704 34 476 0 0
 475 485 486 17 483 0 487 483 483 0 488 476 0 0 +16 484 1613 485 ?489 476 490 49
1 0 0 1 31 24 1489 0 476 491 8 0 --634751090073329e-32 .0320084097216098 .0292 -
197127667724647e-30 -822851682057202e-45 1 1 0 197127667724647e-30 .00155 31 491
 1482 0 484 274 24 0 -.03200840972160975 -240272691160703e-46 .0292 -19712766772
4647e-30 -822851682057202e-45 1 1 0 197127667724647e-30 .00155 31 274 1475 0 490
 30 491 0 --634751090073329e-32 -.0320084097216098 .0292 -197127667724647e-30 -8
22851682057202e-45 1 1 0 197127667724647e-30 .00155 16 490 1643 492 ?493 484 472
 274 0 0 1 81 1 492 1706 34 490 0 0 485 467 494 17 493 0 495 493 493 0 496 490 0
 0 +16 472 1545 497 ?471 490 498 499 0 0 1 81 1 497 1699 34 472 0 0 500 501 502
 17 471 0 318 471 471 0 469 472 0 0 +16 498 1575 501 ?503 472 504 505 0 0 1 31 4
99 1690 0 472 0 505 0 +-.0320084097216098 -264958241622419e-46 .0322 19712766772
4647e-30 822851682057202e-45 -1 -1 0 -197127667724647e-30 .00155 31 505 1688 0 4
98 499 506 0 +-693889390390723e-32 .0320084097216098 .0322 197127667724647e-30 8
22851682057202e-45 -1 -1 0 -197127667724647e-30 .00155 31 506 1686 0 504 505 507
 0 +.03200840972160975 -264958241622419e-46 .0322 197127667724647e-30 8228516820
57202e-45 -1 -1 0 -197127667724647e-30 .00155 16 504 1605 508 ?509 498 510 506 0
 0 1 31 507 1684 0 510 506 155 0 +-693889390390723e-32 -.0320084097216098 .0322
 197127667724647e-30 822851682057202e-45 -1 -1 0 -197127667724647e-30 .00155 16
 510 1635 477 ?511 504 0 507 0 0 1 31 155 1197 0 140 507 145 0 +-808223437671009
e-32 -346944695195361e-32 .0292 -197127667724647e-30 -822851682057202e-45 1 1 0
 197127667724647e-30 .0266904235658876 30 145 1196 0 51 155 512 0 +-.0186 -.0194
769384761244 .0292 0 1 822851682057202e-45 30 512 1195 0 42 145 513 0 +.0186 405
823999538868e-19 .0292 0 1 822851682057202e-45 16 42 1094 514 ?41 515 51 512 0 0
 1 31 513 1193 0 515 512 482 0 +753027690708117e-32 .000181005965842321 .0292 -1
97127667724647e-30 -822851682057202e-45 1 1 0 197127667724647e-30 .0376904235658
876 16 515 1104 516 ?517 518 42 513 0 0 1 31 482 1188 0 154 513 519 0 +693889390
390723e-32 .000181005965842321 .0322 -197127667724647e-30 -822851682057202e-45 1
 1 0 197127667724647e-30 .0376904235658876 31 519 873 0 520 482 521 0 +-.0236904
235658876 1734723475976805e-33 .001 0 0 -1 -1 0 0 .0011 16 520 705 522 ?523 524
 525 519 0 0 1 31 521 872 0 524 519 526 0 +-.0236904235658876 1734723475976805e-
33 .001 0 0 -1 -1 0 0 .0022 16 524 714 527 ?528 254 520 521 0 0 1 31 526 871 0 2
54 521 529 0 +-.0236904235658876 1734723475976805e-33 .003 0 0 -1 -1 0 0 .0022 1
6 254 717 530 ?306 249 524 526 0 0 1 31 529 869 0 531 526 532 0 +-13877787807814
46e-32 .0236904235658876 .001 0 0 -1 -1 0 0 .0011 16 531 751 533 ?534 535 353 52
9 0 0 1 31 532 868 0 535 529 536 0 +-1387778780781446e-32 .0236904235658876 .001
 0 0 -1 -1 0 0 .0022 16 535 760 537 ?538 525 531 532 0 0 1 31 536 867 0 525 532
 539 0 +-1387778780781446e-32 .0236904235658876 .003 0 0 -1 -1 0 0 .0022 16 525
 763 540 ?541 520 535 536 0 0 1 31 539 865 0 518 536 354 0 +.02369042356588755 8
67361737988404e-32 .001 0 0 -1 -1 0 0 .0011 16 518 797 542 ?543 544 515 539 0 0
 1 31 354 864 0 544 539 352 0 +.02369042356588755 867361737988404e-32 .001 0 0 -
1 -1 0 0 .0022 16 544 806 545 ?546 353 518 354 0 0 1 81 1 545 888 34 544 0 0 537
 522 547 17 546 0 415 546 546 0 548 544 0 0 +16 353 809 549 ?550 531 544 352 0 0
 1 81 1 549 884 34 353 0 0 540 530 551 17 550 0 305 550 550 0 552 353 0 0 +15 30
5 679 0 550 297 378 17 552 0 553 552 552 0 550 353 0 0 -15 553 837 0 552 410 0 8
0 1 34 554 555 9000 0 0 0 0 3 6 0 0 0 FFTFTFTTFFFFFFFF1 81 1 540 883 34 525 0 0
 251 549 556 81 1 530 885 34 254 0 0 549 527 557 82 3 551 21 4 1 81 1 527 886 34
 524 0 0 530 537 558 82 3 557 21 5 1 81 1 537 887 34 535 0 0 527 545 559 82 3 55
8 21 6 1 82 3 559 21 7 1 81 1 251 882 34 249 0 0 256 540 560 82 3 556 21 3 1 81
 1 256 881 34 253 0 0 260 251 561 82 3 560 21 2 1 81 1 260 880 34 258 0 0 220 25
6 562 82 3 561 21 1 1 81 1 220 606 34 218 0 0 212 260 563 82 3 562 21 0 1 81 1 2
12 605 34 160 0 0 364 220 564 82 3 563 19 10 1 81 1 364 602 34 170 0 0 168 212 5
65 82 3 564 19 9 1 81 1 168 601 34 162 0 0 361 364 566 82 3 565 19 6 1 81 1 361
 600 34 359 0 0 347 168 567 82 3 566 19 5 1 81 1 347 599 34 341 0 0 343 361 568
 82 3 567 19 4 1 82 3 568 19 3 1 79 9 555 BTI/DetId15 415 836 0 546 410 553 17 5
48 0 569 548 548 0 546 544 0 0 -15 569 832 0 548 414 0 81 1 522 889 34 520 0 0 5
45 533 570 82 3 547 21 8 1 81 1 533 890 34 531 0 0 522 542 571 82 3 570 21 9 1 8
1 1 542 891 34 518 0 0 533 572 573 82 3 571 21 10 1 81 1 572 892 34 434 0 436 54
2 574 575 82 3 573 21 11 1 81 1 436 1739 293 434 572 0 441 447 576 81 1 574 893
 34 422 0 424 572 577 578 82 3 575 21 0 2 81 1 424 1736 293 422 574 0 429 444 57
9 81 1 577 894 34 410 0 412 574 580 581 82 3 578 21 1 2 81 1 412 1733 293 410 57
7 0 417 432 582 81 1 580 895 34 438 0 441 577 583 584 82 3 581 21 2 2 81 1 441 1
738 293 438 580 0 444 436 585 81 1 583 896 34 426 0 429 580 586 587 82 3 584 21
 3 2 81 1 429 1735 293 426 583 0 432 424 588 81 1 586 897 34 414 0 417 583 589 5
90 82 3 587 21 4 2 81 1 417 1732 293 414 586 0 420 412 591 81 1 589 898 34 425 0
 444 586 592 593 82 3 590 21 5 2 81 1 444 1737 293 425 589 0 424 441 594 81 1 59
2 899 34 413 0 432 589 595 596 82 3 593 21 6 2 81 1 432 1734 293 413 592 0 412 4
29 597 81 1 595 900 34 398 0 420 592 314 598 82 3 596 21 7 2 81 1 420 1731 293 3
98 595 0 407 417 599 81 1 314 901 34 311 0 312 595 600 601 82 3 598 21 8 2 81 1
 600 902 34 292 0 295 314 602 603 82 3 601 21 9 2 81 1 295 1718 293 292 600 0 30
3 291 604 81 1 602 903 34 297 0 303 600 302 605 82 3 603 21 10 2 81 1 303 1717 2
93 297 602 0 300 295 606 81 1 302 904 34 17 0 300 602 516 607 82 3 605 21 11 2 8
1 1 516 1106 34 515 0 0 302 153 608 82 3 607 21 12 2 81 1 153 1109 34 140 0 0 51
6 480 609 82 3 608 25 5 1 81 1 480 1127 34 154 0 0 153 610 611 82 3 609 25 9 1 8
1 1 610 1162 34 437 0 447 480 612 613 82 3 611 25 4 1 81 1 447 1740 293 437 610
 0 436 450 614 81 1 612 1238 34 1 0 615 610 132 616 82 3 613 25 0 2 81 1 615 171
3 617 1 612 14 0 0 618 81 1 132 1241 34 130 0 0 612 134 619 82 3 616 13 0 3 82 3
 619 26 2 0 80 1 617 620 621 8038 0 0 0 0 0 0 0 0 0 TTTTTTTTTTTTTFTF10 81 1 14 1
714 620 1 615 2 0 0 622 98 10 618 77 97 105 110 32 112 108 97 116 101 80 1 620 6
23 624 8017 0 0 0 0 0 0 0 0 0 TTTTTTTTTTTTTFTF3 84 10 622 Main plate79 13 624 SD
L/TYSA_NAME79 14 621 SDL/TYSA_UNAME80 1 293 0 625 8001 0 0 0 0 3 5 0 0 0 FFFFTFT
FFFFFFFFF2 81 1 450 1741 293 138 626 0 447 627 628 83 3 614 .615686274509804 .81
1764705882353 .929411764705882 81 1 626 1712 34 138 0 450 629 0 630 81 1 627 174
2 293 20 631 0 450 454 632 83 3 628 .615686274509804 .811764705882353 .929411764
705882 14 20 1397 627 ?452 138 633 6 7 -0 0 452 138 26 81 1 631 1433 34 20 0 627
 240 634 635 81 1 454 1743 293 452 636 0 627 458 637 83 3 632 .615686274509804 .
811764705882353 .929411764705882 81 1 636 1710 34 452 0 454 638 629 639 81 1 458
 1744 293 455 638 0 454 462 640 83 3 637 .615686274509804 .811764705882353 .9294
11764705882 81 1 638 1709 34 455 0 458 641 636 642 81 1 462 1745 293 459 641 0 4
58 465 643 83 3 640 .615686274509804 .811764705882353 .929411764705882 81 1 641
 1708 34 459 0 462 467 638 644 83 3 643 .615686274509804 .811764705882353 .92941
1764705882 81 1 467 1707 34 463 0 465 492 641 645 82 3 644 32 1 2 82 3 645 32 0
 2 82 3 642 32 2 2 81 1 629 1711 34 309 0 316 636 626 646 82 3 639 32 3 2 81 1 3
16 1724 293 309 629 0 312 394 647 82 3 646 32 4 2 81 1 394 1725 293 148 46 0 316
 391 648 83 3 647 .615686274509804 .811764705882353 .929411764705882 81 1 46 125
2 34 148 0 394 161 35 649 83 3 648 .615686274509804 .811764705882353 .9294117647
05882 82 3 649 26 1 2 81 1 240 1432 34 238 0 0 237 631 650 81 1 634 1435 34 284
 0 315 631 294 651 82 3 635 28 0 2 81 1 315 1722 293 284 634 0 283 312 652 81 1
 294 1436 34 157 0 291 634 500 653 82 3 651 28 2 2 81 1 500 1437 34 279 0 283 29
4 497 654 82 3 653 28 3 2 81 1 283 1721 293 279 500 0 288 315 655 82 3 654 28 4
 2 81 1 288 1720 293 285 656 0 291 283 657 83 3 655 .615686274509804 .8117647058
82353 .929411764705882 81 1 656 210 34 285 0 288 231 207 658 83 3 657 .615686274
509804 .811764705882353 .929411764705882 81 1 231 204 34 229 0 0 216 656 659 81
 1 207 308 34 202 0 0 656 200 660 82 3 658 13 4 2 81 1 200 311 34 198 0 0 207 19
5 661 82 3 660 18 23 1 81 1 195 314 34 193 0 0 200 187 662 82 3 661 18 19 1 81 1
 187 326 34 185 0 0 195 204 663 82 3 662 18 27 1 81 1 204 329 34 192 0 0 187 389
 664 82 3 663 18 6 1 81 1 389 332 34 173 0 0 204 184 665 82 3 664 18 25 1 81 1 1
84 340 34 182 0 0 389 181 666 82 3 665 18 0 1 81 1 181 343 34 179 0 0 184 191 66
7 82 3 666 18 7 1 81 1 191 346 34 189 0 0 181 366 668 82 3 667 18 8 1 82 3 668 1
8 29 1 81 1 216 203 34 213 0 0 228 231 669 82 3 659 13 10 1 81 1 228 202 34 226
 0 0 224 216 670 82 3 669 13 9 1 81 1 224 200 34 197 0 0 234 228 671 82 3 670 13
 8 1 81 1 234 198 34 214 0 0 243 224 672 82 3 671 13 6 1 81 1 243 195 34 241 0 0
 247 234 673 82 3 672 13 4 1 81 1 247 194 34 245 0 0 68 243 674 82 3 673 13 1 1
 81 1 68 192 34 66 0 0 64 247 675 82 3 674 13 0 1 81 1 64 190 34 62 0 0 72 68 67
6 82 3 675 13 6 0 81 1 72 188 34 70 0 0 76 64 677 82 3 676 13 4 0 81 1 76 186 34
 74 0 0 0 72 678 82 3 677 13 2 0 82 3 678 13 0 0 83 3 652 .615686274509804 .8117
64705882353 .929411764705882 81 1 237 1431 34 222 0 0 514 240 679 82 3 650 28 7
 1 81 1 514 1430 34 42 0 0 144 237 680 82 3 679 28 6 1 81 1 144 1429 34 51 0 0 2
73 514 681 82 3 680 28 5 1 81 1 273 1428 34 29 0 0 27 144 682 82 3 681 28 4 1 81
 1 27 1427 34 11 0 0 264 273 683 82 3 682 28 3 1 81 1 264 1426 34 248 0 0 267 27
 684 82 3 683 28 2 1 81 1 267 1425 34 142 0 0 52 264 685 82 3 684 28 1 1 81 1 52
 1424 34 45 0 0 36 267 686 82 3 685 28 0 1 81 1 36 1423 34 54 0 0 31 52 687 82 3
 686 28 3 0 82 3 687 28 2 0 15 633 1398 0 143 20 0 17 143 0 633 141 333 33 28 11
 0 0 -17 141 0 633 53 143 12 39 142 0 0 -17 333 0 633 143 53 54 265 248 0 0 -17
 53 0 633 333 141 45 43 29 0 265 -17 43 0 286 41 334 12 53 29 0 141 +17 41 0 286
 117 43 130 32 42 0 147 +17 117 0 286 335 41 114 147 152 0 151 +82 3 630 32 5 2
 79 15 625 SDL/TYSA_COLOUR83 3 606 .615686274509804 .811764705882353 .9294117647
05882 83 3 604 .615686274509804 .811764705882353 .929411764705882 81 1 407 1730
 293 319 688 0 404 420 689 83 3 599 .615686274509804 .811764705882353 .929411764
705882 81 1 688 479 34 319 0 407 406 108 690 83 3 689 .615686274509804 .81176470
5882353 .929411764705882 81 1 406 475 34 375 0 404 403 688 691 81 1 108 588 34 1
06 0 0 688 104 692 82 3 690 18 11 2 81 1 104 589 34 102 0 0 108 116 693 82 3 692
 19 0 0 81 1 116 590 34 114 0 0 104 112 694 82 3 693 19 1 0 81 1 112 591 34 110
 0 0 116 60 695 82 3 694 19 2 0 81 1 60 592 34 58 0 0 112 128 696 82 3 695 19 3
 0 81 1 128 593 34 126 0 0 60 124 697 82 3 696 19 4 0 81 1 124 594 34 122 0 0 12
8 120 698 82 3 697 19 5 0 81 1 120 595 34 118 0 0 124 357 699 82 3 698 19 6 0 81
 1 357 596 34 350 0 0 120 346 700 82 3 699 19 7 0 81 1 346 597 34 344 0 0 357 34
3 701 82 3 700 19 0 1 82 3 701 19 1 1 81 1 403 471 34 384 0 402 702 406 703 82 3
 691 18 10 2 81 1 702 467 34 386 0 395 393 403 704 82 3 703 18 6 2 81 1 395 1727
 293 386 702 0 391 402 705 81 1 393 463 34 390 0 391 80 702 706 82 3 704 18 9 2
 81 1 80 438 34 78 0 0 100 393 707 82 3 706 18 8 2 81 1 100 434 34 98 0 0 84 80
 708 82 3 707 18 19 0 81 1 84 430 34 82 0 0 88 100 709 82 3 708 18 3 0 81 1 88 4
26 34 86 0 0 96 84 710 82 3 709 18 17 0 81 1 96 422 34 94 0 0 92 88 711 82 3 710
 18 15 0 81 1 92 418 34 90 0 0 177 96 712 82 3 711 18 1 0 81 1 177 357 34 166 0
 0 366 92 713 82 3 712 18 13 0 82 3 713 18 9 1 83 3 705 .615686274509804 .811764
705882353 .929411764705882 83 3 597 .615686274509804 .811764705882353 .929411764
705882 83 3 594 .615686274509804 .811764705882353 .929411764705882 83 3 591 .615
686274509804 .811764705882353 .929411764705882 83 3 588 .615686274509804 .811764
705882353 .929411764705882 83 3 585 .615686274509804 .811764705882353 .929411764
705882 83 3 582 .615686274509804 .811764705882353 .929411764705882 83 3 579 .615
686274509804 .811764705882353 .929411764705882 83 3 576 .615686274509804 .811764
705882353 .929411764705882 17 543 0 418 543 543 0 714 518 0 0 +15 418 831 0 543
 414 569 17 714 0 421 714 714 0 543 518 0 0 -15 421 817 0 714 398 715 15 715 818
 0 252 398 0 17 252 0 715 252 252 0 325 249 0 0 +17 541 0 298 541 541 0 716 525
 0 0 +15 298 672 0 541 292 337 17 716 0 717 716 716 0 541 525 0 0 -15 717 791 0
 716 422 0 17 538 0 427 538 538 0 718 535 0 0 +15 427 790 0 538 422 717 17 718 0
 719 718 718 0 538 535 0 0 -15 719 786 0 718 426 0 17 534 0 430 534 534 0 720 53
1 0 0 +15 430 785 0 534 426 719 17 720 0 433 720 720 0 534 531 0 0 -15 433 771 0
 720 413 721 15 721 772 0 257 413 0 17 257 0 721 257 257 0 323 253 0 0 +17 306 0
 301 306 306 0 722 254 0 0 +17 722 0 723 722 722 0 306 254 0 0 -15 723 745 0 722
 434 0 17 528 0 439 528 528 0 724 524 0 0 +15 439 744 0 528 434 723 17 724 0 725
 724 724 0 528 524 0 0 -15 725 740 0 724 438 0 17 523 0 442 523 523 0 726 520 0
 0 +15 442 739 0 523 438 725 17 726 0 445 726 726 0 523 520 0 0 -15 445 725 0 72
6 425 727 15 727 726 0 261 425 0 17 261 0 727 261 261 0 321 258 0 0 +17 517 0 44
8 517 517 0 728 515 0 0 +15 448 1163 0 517 437 729 17 728 0 139 728 728 0 517 51
5 0 0 -15 139 1169 0 728 138 0 15 729 1164 0 730 437 0 17 730 0 729 730 730 0 48
1 154 0 0 -17 481 0 380 481 481 0 730 154 0 0 +15 380 1174 0 481 309 0 81 1 477
 1702 34 510 0 0 508 475 731 17 511 0 732 511 511 0 733 510 0 0 +15 732 1502 0 5
11 309 379 17 733 0 456 733 733 0 511 510 0 0 -15 456 1649 0 733 452 495 15 495
 1650 0 493 452 0 81 1 508 1701 34 504 0 0 501 477 734 82 3 731 32 3 1 81 1 501
 1700 34 498 0 0 497 508 735 82 3 734 32 2 1 82 3 735 32 1 1 17 509 0 736 509 50
9 0 737 504 0 0 +15 736 1509 0 509 309 732 17 737 0 460 737 737 0 509 504 0 0 -1
5 460 1619 0 737 455 738 15 738 1620 0 489 455 0 17 489 0 738 489 489 0 739 484
 0 0 +17 739 0 740 739 739 0 489 484 0 0 -15 740 1481 0 739 138 741 15 741 1474
 0 496 138 38 17 496 0 741 496 496 0 493 490 0 0 -17 503 0 742 503 503 0 743 498
 0 0 +15 742 1516 0 503 309 736 17 743 0 464 743 743 0 503 498 0 0 -15 464 1589
 0 743 459 487 15 487 1590 0 483 459 0 15 318 1523 0 471 309 742 82 3 502 32 0 1
 81 1 485 1705 34 484 0 0 478 492 744 82 3 494 32 7 1 82 3 744 32 6 1 17 488 0 7
45 488 488 0 483 476 0 0 -15 745 1488 0 488 138 740 82 3 486 32 5 1 82 3 479 32
 4 1 15 451 1495 0 474 138 745 83 3 468 .615686274509804 .811764705882353 .92941
1764705882 83 3 408 .615686274509804 .811764705882353 .929411764705882 83 3 405
 .615686274509804 .811764705882353 .929411764705882 83 3 396 .615686274509804 .8
11764705882353 .929411764705882 82 3 367 18 1 1 82 3 348 19 2 1 83 3 317 .615686
274509804 .811764705882353 .929411764705882 83 3 304 .615686274509804 .811764705
882353 .929411764705882 83 3 296 .615686274509804 .811764705882353 .929411764705
882 40 2 275 0 1 2 234957942268828e-19 .01741173421235995 ??-.0186 -.02390710688
897505 .0292 -.0186 -.02184445935220275 .0276 41 1 276 L?-.0186 -.02390710688897
505 .0292 41 1 277 L?-.0186 -.02184445935220275 .0276 204 8 278 4 4.051200307710
94 .0016 -.0262 -.00443016841285067 4.00703951831375 0 -.0246 -.0023675208760783
7 81 1 135 1246 34 205 0 0 134 164 746 81 1 164 1247 34 152 0 0 135 161 747 82 3
 746 26 3 1 82 3 747 26 4 1 82 3 165 26 5 1 82 3 136 26 3 0 82 3 47 28 0 0 82 3
 37 28 1 0 19 18 170 0 1 0 10 6 0 S0 81 2 19 1410 748 7 0 0 0 0 749 750 141 22 2
66 751 751 7 141 751 30 22 22 7 80 2 748 752 753 8044 0 0 0 0 3 5 0 0 0 FFFFTFFF
TTFFFFFF3 2 84 6 749 BAAAAB83 3 750 0 .0016 .0016 79 17 753 SDL/TYSA_BLEND_ID74
 20 16 6 0 0 626 19 615 14 2 465 0 0 0 0 0 0 0 0 0 0 0 0 0 0 80 1 13 293 754 804
0 0 0 0 0 3 5 0 0 0 TTTFFFFFFFFFFFFF2 83 3 15 .615686274509804 .811764705882353
 .929411764705882 79 17 754 SDL/TYSA_COLOUR_21 0 
