**ABCDEFGHIJKLMNOPQRSTUVWXYZabcdefghijklmnopqrstuvwxyz**************************
**PARASOLID !"#$%&'()*+,-./:;<=>?@[\]^_`{|}~0123456789**************************
**PART1;
MC=unknown;
MC_MODEL=unknown;
MC_ID=unknown;
OS=unknown;
OS_RELEASE=unknown;
FRU=Parasolid 35.1.171;
APPL=Onshape;
SITE=unknown;
USER=unknown;
FORMAT=text;
GUISE=transmit;
KEY=BTGapi::writeModels_.xmt;
FILE=BTGapi::writeModels_.xmt;
**PART2;
SCH=SCH_3501171_35102;
USFLD_SIZE=0;
**PART3;
**END_OF_HEADER*****************************************************************
T51 : TRANSMIT FILE created by modeller version 350117117 SCH_3501171_351020 12
 1 657 2 3 0 0 0 0 0 0 0 1e3 1e-8 0 4 5 1 0 1 2 6 0 7 8 0 0 0 9 10 0 0 0 0 0 0 0
 0 81 1 2 640 11 1 12 0 0 0 13 70 3 0 4 T1 0 0 5 20 1 14 14 13 6 216 0 1 0 15 0
 0 16 0 51 7 215 0 15 17 0 0 -.000731582967904593 -.0273416591494668 -.012949024
80631358 -1885568995626965e-31 1 0 .0201 -1 -1885568995626965e-31 0 31 8 353 0 1
8 19 0 0 --.00936841703209541 -.0203416591494668 -.0230490248063136 188556899562
6965e-31 -1 0 1 1885568995626965e-31 0 .0015 19 9 112 0 1 16 0 20 0 V0 16 10 28
 21 ?22 0 23 24 0 0 1 81 1 21 281 25 10 0 0 26 27 28 17 22 0 29 22 22 0 30 10 0
 0 +16 23 191 31 ?32 10 33 34 0 0 1 31 24 30 0 10 35 34 0 +.000731582967904593 -
.0273416591494668 -.01294902480631358 1885568995626965e-31 -1 0 1 18855689956269
65e-31 0 .0201 31 35 278 0 36 37 24 0 +.000731582967904591 -.0273416591494668 -.
01294902480631358 1885568995626965e-31 -1 0 1 1885568995626965e-31 0 .0212 31 34
 210 0 23 24 38 0 +.000731582967904591 -.0203416591494668 -.01294902480631358 18
85568995626965e-31 -1 0 1 1885568995626965e-31 0 .0201 31 38 332 0 39 34 40 0 --
.00936841703209541 -.0203416591494668 -.002849024806313585 1885568995626965e-31
 -1 0 1 1885568995626965e-31 0 .0015 16 39 518 41 ?42 43 44 38 0 0 1 31 40 339 0
 43 38 19 0 -.0108315829679046 -.0203416591494668 -.00284902480631358 1885568995
626965e-31 -1 0 1 1885568995626965e-31 0 .0015 16 43 472 45 ?46 47 39 40 0 0 1 3
1 19 346 0 47 40 8 0 -.0108315829679046 -.0203416591494668 -.0230490248063136 18
85568995626965e-31 -1 0 1 1885568995626965e-31 0 .0015 16 47 426 48 ?49 18 43 19
 0 0 1 81 1 48 610 25 47 0 0 45 50 51 17 49 0 52 49 49 0 53 47 0 0 +16 18 380 50
 ?54 36 47 8 0 0 1 81 1 50 611 25 18 0 0 48 55 56 17 54 0 57 54 54 0 58 18 0 0 +
16 36 246 59 ?60 33 18 35 0 0 1 81 1 59 248 25 36 0 0 61 62 63 17 60 0 64 60 60
 0 65 36 0 0 +16 33 249 62 ?66 23 36 37 0 0 1 81 1 62 251 25 33 0 0 59 67 68 17
 66 0 69 66 66 0 70 33 0 0 +31 37 279 0 33 71 35 0 +.000731582967904592 -.031341
6591494668 -.01294902480631358 1885568995626965e-31 -1 0 1 1885568995626965e-31
 0 .0212 31 71 585 0 44 72 37 0 +-.00936841703209541 -.0313416591494668 -.002849
024806313585 -1885568995626965e-31 1 0 -1 -1885568995626965e-31 0 .003 16 44 524
 55 ?73 39 74 71 0 0 1 31 72 586 0 74 75 71 0 +-.00936841703209541 -.02794165914
94668 -.002849024806313585 -1885568995626965e-31 1 0 -1 -1885568995626965e-31 0
 .003 16 74 521 76 ?77 44 78 72 0 0 1 31 75 587 0 78 79 72 0 +-.0093684170320954
1 -.0279416591494668 -.002849024806313585 -1885568995626965e-31 1 0 -1 -18855689
95626965e-31 0 .0015 16 78 512 80 ?81 74 82 75 0 0 1 31 79 589 0 83 84 75 0 +-.0
0936841703209541 -.0313416591494668 -.0230490248063136 -1885568995626965e-31 1 0
 -1 -1885568995626965e-31 0 .003 16 83 386 85 ?86 87 88 79 0 0 1 31 84 590 0 88
 89 79 0 +-.00936841703209541 -.0279416591494668 -.0230490248063136 -18855689956
26965e-31 1 0 -1 -1885568995626965e-31 0 .003 16 88 383 90 ?91 83 92 84 0 0 1 31
 89 591 0 92 93 84 0 +-.00936841703209541 -.0279416591494668 -.0230490248063136
 -1885568995626965e-31 1 0 -1 -1885568995626965e-31 0 .0015 16 92 374 94 ?95 88
 0 89 0 0 1 31 93 593 0 96 97 89 0 +.0108315829679046 -.0313416591494668 -.02304
90248063136 -1885568995626965e-31 1 0 -1 -1885568995626965e-31 0 .003 16 96 432
 98 ?99 100 101 93 0 0 1 31 97 594 0 101 102 93 0 +.0108315829679046 -.027941659
1494668 -.0230490248063136 -1885568995626965e-31 1 0 -1 -1885568995626965e-31 0
 .003 16 101 429 103 ?104 96 87 97 0 0 1 31 102 595 0 87 105 97 0 +.010831582967
9046 -.0279416591494668 -.0230490248063136 -1885568995626965e-31 1 0 -1 -1885568
995626965e-31 0 .0015 16 87 420 106 ?107 101 83 102 0 0 1 31 105 597 0 82 108 10
2 0 +.0108315829679046 -.0313416591494668 -.00284902480631358 -1885568995626965e
-31 1 0 -1 -1885568995626965e-31 0 .003 16 82 478 109 ?110 78 111 105 0 0 1 31 1
08 598 0 111 112 105 0 +.0108315829679046 -.0279416591494668 -.00284902480631358
 -1885568995626965e-31 1 0 -1 -1885568995626965e-31 0 .003 16 111 475 113 ?114 8
2 100 108 0 0 1 31 112 599 0 100 0 108 0 +.0108315829679046 -.0279416591494668 -
.00284902480631358 -1885568995626965e-31 1 0 -1 -1885568995626965e-31 0 .0015 16
 100 466 115 ?116 111 96 112 0 0 1 81 1 115 621 25 100 0 0 80 106 117 17 116 0 1
18 116 116 0 119 100 0 0 +15 118 500 0 116 120 121 17 119 0 122 119 119 0 116 10
0 0 0 -15 122 486 0 119 123 124 14 123 492 125 ?120 126 122 6 127 +0 0 120 126 2
0 15 124 487 0 46 123 0 17 46 0 124 46 46 0 128 43 0 0 +17 128 0 129 128 128 0 4
6 43 0 0 -15 129 338 0 128 130 131 14 130 175 132 ?133 15 134 6 17 -0 0 133 15 2
0 15 131 331 0 135 130 136 17 135 0 131 135 135 0 42 39 0 0 -15 136 190 0 137 13
0 0 17 137 0 136 137 137 0 32 23 0 0 -17 32 0 138 32 32 0 137 23 0 0 +15 138 213
 0 32 15 0 14 15 212 139 ?130 0 140 6 7 -0 0 130 0 20 81 1 139 641 141 15 61 0 0
 132 142 15 140 211 0 30 15 138 13 20 113 0 0 0 0 0 0 9 15 17 30 0 140 30 30 0 2
2 10 0 0 -80 1 141 0 143 8001 0 0 0 0 3 5 0 0 0 FFFFTFTFFFFFFFFF2 81 1 61 230 25
 15 0 139 31 59 144 81 1 132 642 141 130 145 0 139 146 147 83 3 142 .14117647058
82352 .694117647058824 .650980392156863 81 1 145 632 25 130 0 132 148 149 150 81
 1 146 643 141 133 67 0 132 151 152 83 3 147 .1411764705882352 .694117647058824
 .650980392156863 14 133 259 146 ?153 130 154 6 155 -0 0 153 130 20 81 1 67 261
 25 133 0 146 62 26 156 81 1 151 644 141 153 149 0 146 157 158 83 3 152 .1411764
705882352 .694117647058824 .650980392156863 14 153 264 151 ?159 133 160 6 161 +0
 0 159 133 20 81 1 149 633 25 153 0 151 145 162 163 81 1 157 645 141 159 27 0 15
1 164 165 83 3 158 .1411764705882352 .694117647058824 .650980392156863 14 159 26
8 157 ?166 153 29 6 167 -0 0 166 153 20 81 1 27 282 25 159 0 157 21 41 168 81 1
 164 646 141 166 162 0 157 169 170 83 3 165 .1411764705882352 .694117647058824 .
650980392156863 14 166 538 164 ?171 159 172 6 173 +0 0 171 159 20 81 1 162 634 2
5 166 0 164 149 174 175 81 1 169 647 141 171 176 0 164 177 178 83 3 170 .1411764
705882352 .694117647058824 .650980392156863 14 171 543 169 ?126 166 179 6 180 +0
 0 126 166 20 81 1 176 628 25 171 0 169 181 182 183 81 1 177 648 141 126 184 0 1
69 125 185 83 3 178 .1411764705882352 .694117647058824 .650980392156863 14 126 5
48 177 ?123 171 186 6 187 +0 0 123 171 20 81 1 184 624 25 126 0 177 94 188 189 8
1 1 125 649 141 123 174 0 177 190 191 83 3 185 .1411764705882352 .69411764705882
4 .650980392156863 81 1 174 635 25 123 0 125 162 192 193 81 1 190 650 141 120 18
2 0 125 194 195 83 3 191 .1411764705882352 .694117647058824 .650980392156863 14
 120 497 190 ?196 123 118 6 197 +0 0 196 123 20 81 1 182 629 25 120 0 190 176 19
8 199 81 1 194 651 141 196 188 0 190 200 201 83 3 195 .1411764705882352 .6941176
47058824 .650980392156863 14 196 502 194 ?202 120 203 6 204 +0 0 202 120 20 81 1
 188 625 25 196 0 194 184 205 206 81 1 200 652 141 202 192 0 194 207 208 83 3 20
1 .1411764705882352 .694117647058824 .650980392156863 14 202 446 200 ?209 196 21
0 6 211 +0 0 209 196 20 81 1 192 636 25 202 0 200 174 212 213 81 1 207 653 141 2
09 198 0 200 214 215 83 3 208 .1411764705882352 .694117647058824 .65098039215686
3 14 209 451 207 ?216 202 217 6 218 +0 0 216 202 20 81 1 198 630 25 209 0 207 18
2 148 219 81 1 214 654 141 216 205 0 207 220 221 83 3 215 .1411764705882352 .694
117647058824 .650980392156863 14 216 456 214 ?222 209 223 6 224 +0 0 222 209 20
 81 1 205 626 25 216 0 214 188 181 225 81 1 220 655 141 222 212 0 214 226 227 83
 3 221 .1411764705882352 .694117647058824 .650980392156863 14 222 400 220 ?228 2
16 229 6 230 +0 0 228 216 20 81 1 212 637 25 222 0 220 192 0 231 81 1 226 656 14
1 228 148 0 220 232 233 83 3 227 .1411764705882352 .694117647058824 .65098039215
6863 14 228 405 226 ?234 222 235 6 236 +0 0 234 222 20 81 1 148 631 25 228 0 226
 198 145 237 81 1 232 657 141 234 181 0 226 0 238 83 3 233 .1411764705882352 .69
4117647058824 .650980392156863 14 234 410 232 ?0 228 239 6 240 +0 0 0 228 20 81
 1 181 627 25 234 0 232 205 176 241 83 3 238 .1411764705882352 .694117647058824
 .650980392156863 80 1 25 242 243 9000 0 0 0 0 3 6 0 0 0 FFTFTFTTFFFFFFFF1 82 3
 241 42 3 2 79 9 243 BTI/DetId15 239 413 0 91 234 244 51 240 571 0 234 236 173 0
 --.00936841703209541 -.0313416591494668 -.0230490248063136 -1885568995626965e-3
1 1 0 .003 -1 -1885568995626965e-31 0 50 236 572 0 228 230 240 0 +-.006368417032
09541 -.0279416591494668 -.0230490248063136 1885568995626965e-31 -1 0 1 18855689
95626965e-31 0 51 173 568 0 166 240 180 0 --.00936841703209541 -.031341659149466
8 -.002849024806313585 -1885568995626965e-31 1 0 .0015 -1 -1885568995626965e-31
 0 50 180 567 0 171 173 187 0 +-.00636841703209541 -.0279416591494668 -.00284902
4806313585 1885568995626965e-31 -1 0 1 1885568995626965e-31 0 51 187 566 0 126 1
80 161 0 --.00936841703209541 -.0313416591494668 -.002849024806313585 -188556899
5626965e-31 1 0 .003 -1 -1885568995626965e-31 0 50 161 277 0 153 187 167 0 +.000
731582967904594 -.0313416591494668 -.0129490248063136 1885568995626965e-31 -1 0
 1 1885568995626965e-31 0 50 167 276 0 159 161 155 0 +.000731582967904593 -.0273
416591494668 -.0129490248063136 1885568995626965e-31 -1 0 1 1885568995626965e-31
 0 51 155 275 0 133 167 17 0 -.000731582967904592 -.0313416591494668 -.012949024
80631358 -1885568995626965e-31 1 0 .0212 -1 -1885568995626965e-31 0 50 17 209 0
 130 155 7 0 +.000731582967904592 -.0203416591494668 -.0129490248063136 18855689
95626965e-31 -1 0 1 1885568995626965e-31 0 51 230 573 0 222 224 236 0 --.0093684
1703209541 -.0313416591494668 -.0230490248063136 -1885568995626965e-31 1 0 .0015
 -1 -1885568995626965e-31 0 51 224 576 0 216 218 230 0 -.0108315829679046 -.0313
416591494668 -.0230490248063136 -1885568995626965e-31 1 0 .003 -1 -1885568995626
965e-31 0 50 218 577 0 209 211 224 0 +.0138315829679046 -.0279416591494668 -.023
0490248063136 1885568995626965e-31 -1 0 1 1885568995626965e-31 0 51 211 578 0 20
2 204 218 0 -.0108315829679046 -.0313416591494668 -.0230490248063136 -1885568995
626965e-31 1 0 .0015 -1 -1885568995626965e-31 0 51 204 581 0 196 197 211 0 -.010
8315829679046 -.0313416591494668 -.00284902480631358 -1885568995626965e-31 1 0 .
003 -1 -1885568995626965e-31 0 50 197 582 0 120 127 204 0 +.0138315829679046 -.0
279416591494668 -.00284902480631358 1885568995626965e-31 -1 0 1 1885568995626965
e-31 0 51 127 583 0 123 0 197 0 -.0108315829679046 -.0313416591494668 -.00284902
480631358 -1885568995626965e-31 1 0 .0015 -1 -1885568995626965e-31 0 17 91 0 239
 91 91 0 245 88 0 0 +15 244 414 0 246 234 0 17 246 0 244 246 246 0 86 83 0 0 -17
 86 0 160 86 86 0 246 83 0 0 +15 160 323 0 86 153 247 15 247 316 0 99 153 248 17
 99 0 247 99 99 0 249 96 0 0 +15 248 309 0 110 153 250 17 110 0 248 110 110 0 25
1 82 0 0 +15 250 302 0 73 153 69 17 73 0 250 73 73 0 252 44 0 0 +15 69 267 0 66
 153 0 17 252 0 253 252 252 0 73 44 0 0 -15 253 552 0 252 126 0 17 251 0 254 251
 251 0 110 82 0 0 -15 254 506 0 251 196 0 17 249 0 255 249 249 0 99 96 0 0 -15 2
55 460 0 249 216 0 17 245 0 256 245 245 0 91 88 0 0 -15 256 409 0 245 228 0 82 3
 237 42 7 2 15 235 408 0 95 228 256 17 95 0 235 95 95 0 257 92 0 0 +17 257 0 229
 257 257 0 95 92 0 0 -15 229 394 0 257 222 57 15 57 395 0 54 222 0 82 3 231 42 2
6 2 82 3 225 42 2 2 15 223 459 0 104 216 255 17 104 0 223 104 104 0 258 101 0 0
 +17 258 0 259 258 258 0 104 101 0 0 -15 259 455 0 258 209 0 82 3 219 42 6 2 15
 217 454 0 107 209 259 17 107 0 217 107 107 0 260 87 0 0 +17 260 0 210 260 260 0
 107 87 0 0 -15 210 440 0 260 202 52 15 52 441 0 49 202 0 82 3 213 42 24 2 82 3
 206 42 1 2 15 203 505 0 114 196 254 17 114 0 203 114 114 0 261 111 0 0 +17 261
 0 121 261 261 0 114 111 0 0 -15 121 501 0 261 120 0 82 3 199 42 5 2 82 3 193 42
 21 2 81 1 94 623 25 92 0 0 106 184 262 82 3 189 42 0 2 81 1 106 622 25 87 0 0 1
15 94 263 82 3 262 42 25 1 82 3 263 42 24 1 15 186 551 0 77 126 253 17 77 0 186
 77 77 0 264 74 0 0 +17 264 0 265 264 264 0 77 74 0 0 -15 265 547 0 264 171 0 82
 3 183 42 4 2 15 179 546 0 81 171 265 17 81 0 179 81 81 0 266 78 0 0 +17 266 0 1
72 266 266 0 81 78 0 0 -15 172 532 0 266 166 267 15 267 533 0 42 166 0 17 42 0 2
67 42 42 0 135 39 0 0 +82 3 175 42 18 2 81 1 41 608 25 39 0 0 27 45 268 82 3 168
 38 0 2 81 1 45 609 25 43 0 0 41 48 269 82 3 268 42 2 1 82 3 269 42 3 1 15 29 27
1 0 22 159 270 15 270 272 0 65 159 0 17 65 0 270 65 65 0 60 36 0 0 -82 3 163 42
 13 2 81 1 26 280 25 1 0 271 67 21 272 82 3 156 37 0 2 81 1 271 638 273 1 26 12
 0 0 274 82 3 272 31 0 3 80 1 273 275 276 8038 0 0 0 0 0 0 0 0 0 TTTTTTTTTTTTTFT
F10 81 1 12 639 275 1 271 2 0 0 277 98 20 274 73 110 110 101 114 32 98 101 97 11
4 105 110 103 32 97 110 99 104 111 114 80 1 275 278 279 8017 0 0 0 0 0 0 0 0 0 T
TTTTTTTTTTTTFTF3 84 20 277 Inner bearing anchor79 13 279 SDL/TYSA_NAME79 14 276
 SDL/TYSA_UNAME15 154 262 0 70 133 64 17 70 0 154 70 70 0 66 33 0 0 -15 64 263 0
 60 133 0 82 3 150 42 10 2 81 1 31 228 25 23 0 0 0 61 280 82 3 144 31 0 2 82 3 2
80 31 0 1 79 15 143 SDL/TYSA_COLOUR15 134 352 0 58 130 281 17 58 0 134 58 58 0 5
4 18 0 0 -15 281 345 0 53 130 129 17 53 0 281 53 53 0 49 47 0 0 -81 1 80 620 25
 78 0 0 90 115 282 82 3 117 42 23 1 81 1 90 619 25 88 0 0 103 80 283 82 3 282 42
 22 1 81 1 103 618 25 101 0 0 113 90 284 82 3 283 42 21 1 81 1 113 617 25 111 0
 0 76 103 285 82 3 284 42 20 1 81 1 76 616 25 74 0 0 85 113 286 82 3 285 42 19 1
 81 1 85 615 25 83 0 0 98 76 287 82 3 286 42 18 1 81 1 98 614 25 96 0 0 109 85 2
88 82 3 287 42 17 1 81 1 109 613 25 82 0 0 55 98 289 82 3 288 42 16 1 81 1 55 61
2 25 44 0 0 50 109 290 82 3 289 42 15 1 82 3 290 42 14 1 82 3 68 37 1 1 82 3 63
 37 0 1 82 3 56 42 5 1 82 3 51 42 4 1 82 3 28 38 0 1 19 16 217 0 1 0 9 6 0 S0 74
 20 14 5 0 0 212 271 12 2 232 0 0 0 0 0 0 0 0 0 0 0 0 0 0 0 80 1 11 141 291 8040
 0 0 0 0 3 5 0 0 0 TTTFFFFFFFFFFFFF2 83 3 13 .1411764705882352 .694117647058824
 .650980392156863 79 17 291 SDL/TYSA_COLOUR_21 0 
