**ABCDEFGHIJKLMNOPQRSTUVWXYZabcdefghijklmnopqrstuvwxyz**************************
**PARASOLID !"#$%&'()*+,-./:;<=>?@[\]^_`{|}~0123456789**************************
**PART1;
MC=unknown;
MC_MODEL=unknown;
MC_ID=unknown;
OS=unknown;
OS_RELEASE=unknown;
FRU=Parasolid 35.1.171;
APPL=Onshape;
SITE=unknown;
USER=unknown;
FORMAT=text;
GUISE=transmit;
KEY=BTGapi::writeModels_.xmt;
FILE=BTGapi::writeModels_.xmt;
**PART2;
SCH=SCH_3501171_35102;
USFLD_SIZE=0;
**PART3;
**END_OF_HEADER*****************************************************************
T51 : TRANSMIT FILE created by modeller version 350117117 SCH_3501171_351020 12
 1 1014 2 3 0 0 0 0 0 0 0 1e3 1e-8 0 4 5 1 0 1 2 6 0 7 8 9 0 0 10 11 12 0 0 0 0
 0 0 0 81 1 2 990 13 1 14 0 0 0 15 70 3 0 4 T1 0 0 6 20 1 16 16 13 6 24 0 1 0 17
 0 0 18 0 51 7 568 0 19 20 0 0 -.01620068180243525 .0280604039990744 0 0 0 -1 .0
015 .5 .866025403784438 0 30 8 675 0 11 21 0 0 +419260583209716e-31 -.002 -.007
 -1 -1439354743296636e-31 0 29 9 637 0 12 22 0 .0233823378264907 .00094251288481
9406 -.007 19 10 23 0 1 18 0 23 0 V0 16 11 673 24 ?25 0 26 8 0 0 1 18 12 636 27
 28 0 29 9 ?1 81 1 27 983 30 12 0 0 31 32 33 17 28 0 34 35 36 12 37 38 0 39 -18
 29 825 40 41 12 42 22 ?1 81 1 40 938 30 29 0 0 43 44 45 17 41 0 46 47 48 29 25
 11 0 49 -18 42 843 50 47 29 51 52 ?1 29 22 919 0 29 52 9 .02592035528530995 -.0
02 -.007 29 52 920 0 42 53 22 .02592035528530995 -.002 0 29 53 921 0 51 54 52 .0
25925526714381 .002 -.007 18 51 846 44 55 42 56 53 ?1 29 54 922 0 56 57 53 .0259
25526714381 .002 0 18 56 822 58 59 51 60 54 ?1 29 57 923 0 60 61 54 .02337983176
287905 -.000937807497824465 -.007 18 60 835 31 62 56 63 57 ?1 29 61 925 0 63 64
 57 .02514633030435145 -.002 -.007 18 63 826 65 66 60 67 61 ?1 29 64 926 0 67 68
 61 .02337983176287905 -.000937807497824466 -.009 18 67 833 32 69 63 70 64 ?1 29
 68 927 0 70 71 64 .0233823378264907 .000942512884819406 -.009 18 70 838 72 35 6
7 73 68 ?1 29 71 928 0 73 74 68 .02514633030435145 .002 -.007 18 73 847 75 76 70
 77 71 ?1 29 74 929 0 77 78 71 .0311723759475668 .002 -.009 18 77 839 79 80 73 8
1 74 ?1 29 78 930 0 81 82 74 .0311723759475668 -.002 -.009 18 81 827 83 84 77 85
 78 ?1 29 82 931 0 85 86 78 .02514633030435145 -.002 -.009 18 85 836 87 88 81 89
 82 ?1 29 86 932 0 89 90 82 .02514633030435145 .002 -.009 18 89 831 91 92 85 93
 86 ?1 29 90 935 0 93 94 86 .0311723759475668 .002 0 18 93 841 95 96 89 97 90 ?1
 29 94 936 0 97 0 90 .0311723759475668 -.002 0 18 97 829 98 99 93 0 94 ?1 81 1 9
8 946 30 97 0 0 79 83 100 17 99 0 101 102 103 97 104 105 0 106 +15 101 879 0 99
 107 0 17 102 0 101 108 99 93 109 110 0 111 -17 103 0 101 99 108 81 80 112 0 104
 -17 104 0 46 113 106 81 99 105 0 0 -16 105 744 114 ?99 115 116 117 0 0 1 17 106
 0 46 104 47 97 118 119 0 109 -15 46 855 0 47 120 0 17 47 0 46 106 41 42 49 121
 0 118 +17 118 0 122 123 109 42 106 119 0 124 +16 119 747 125 ?118 110 0 126 0 0
 1 17 109 0 122 118 111 97 102 110 0 0 +15 122 693 0 109 17 0 17 111 0 122 109 1
23 93 59 127 0 0 -16 110 791 128 ?109 127 119 129 0 0 1 81 1 128 955 30 110 0 0
 130 125 131 16 127 796 132 ?59 133 110 134 0 0 1 31 129 917 0 110 126 134 0 +.0
311723759475668 0 0 0 0 -1 1 0 0 .002 30 126 918 0 119 0 129 0 +.028159353125959
15 -.002 0 -1 -1439354743296636e-31 0 30 134 916 0 127 129 135 0 +.0281593531259
5915 .002 0 -1 -1439354743296636e-31 0 30 135 914 0 133 134 136 0 +.025146330304
35145 -.002 -.2618176211353315 0 0 1 16 133 767 137 ?48 138 127 135 0 0 1 30 136
 913 0 138 135 139 0 +.02514633030435145 .002 -.2618176211353315 0 0 1 16 138 75
5 140 ?36 116 133 136 0 0 1 30 139 912 0 116 136 117 0 +.0311723759475668 .002 -
.2618176211353315 0 0 1 16 116 788 141 ?96 105 138 139 0 0 1 30 117 911 0 105 13
9 142 0 +.0311723759475668 -.002 -.2618176211353315 0 0 1 31 142 910 0 143 117 1
44 0 +.02514633030435145 0 -.009 0 0 1 1 0 0 .002 16 143 819 145 ?146 112 115 14
2 115 115 1 30 144 909 0 147 142 148 0 +.02815935312595915 .002 -.009 1 14393547
43296636e-31 0 16 147 782 149 ?150 38 151 144 0 0 1 31 148 908 0 112 144 152 0 +
.0311723759475668 0 -.009 0 0 1 1 0 0 .002 16 112 785 153 ?80 151 143 148 0 0 1
 30 152 907 0 151 148 154 0 +.02815935312595915 -.002 -.009 1 1439354743296636e-
31 0 16 151 741 155 ?84 147 112 152 0 0 1 31 154 906 0 38 152 156 0 -.0251463303
0435145 0 -.007 0 0 1 1 0 0 .002 16 38 816 157 ?37 158 147 154 158 158 1 30 156
 905 0 159 154 160 0 +.025925526714381 .002 -.2582176211353315 0 0 1 16 159 752
 161 ?162 121 158 156 0 0 1 30 160 904 0 121 156 163 0 +.02592035528530995 -.002
 -.2582176211353315 0 0 1 16 121 801 164 ?47 165 159 160 0 0 1 31 163 534 0 165
 160 166 0 +-.0324013636048705 0 -.006 0 0 -1 -1 0 0 .0015 16 165 507 167 ?168 1
69 121 163 0 0 1 31 166 533 0 169 163 170 0 +-.0324013636048705 0 0 0 0 -1 -1 0
 0 .0015 16 169 510 171 ?172 173 165 166 0 0 1 31 170 445 0 174 166 175 0 -41633
36342344335e-32 335146626734385e-19 -.007 0 0 1 1 0 0 .026 16 174 410 176 ?177 1
78 173 170 0 0 1 31 175 444 0 173 170 179 0 +4163336342344335e-32 33514662673439
95e-20 -.007 0 0 1 1 0 0 .0234 16 173 415 180 ?181 174 169 175 0 0 1 31 179 343
 0 182 175 183 0 +-.00988100596584232 .0097 -.0144 0 0 -1 -1 0 0 .0017 16 182 25
8 184 ?185 186 187 179 0 0 1 31 183 341 0 187 179 188 0 +.00951899403415767 .009
7 -.0144 0 0 -1 -1 0 0 .0017 16 187 228 189 ?190 182 178 183 0 0 1 31 188 339 0
 178 183 191 0 +.00951899403415768 -.0097 -.0144 0 0 -1 -1 0 0 .0017 16 178 198
 192 ?193 187 174 188 0 0 1 31 191 337 0 186 188 194 0 +-.00988100596584232 -.00
97 -.0144 0 0 -1 -1 0 0 .0017 16 186 288 195 ?196 197 182 191 0 0 1 31 194 108 0
 198 191 199 0 +4163336342344335e-32 335146626734385e-19 0 0 0 1 1 0 0 .026 16 1
98 84 200 ?124 201 202 194 0 0 1 31 199 19 0 203 194 204 0 +-.000181005965842318
5 3469446951953615e-32 -.016 0 0 1 1 0 0 .0376904235658876 16 203 17 205 ?206 20
7 201 199 0 0 1 31 204 46 0 201 199 208 0 +-.0001810059658423185 346944695195361
5e-32 0 0 0 1 1 0 0 .0376904235658876 16 201 41 209 ?210 203 198 204 0 0 1 31 20
8 132 0 197 204 211 0 --.00988100596584232 -.0097 -.016 0 0 1 1 0 0 .0017 16 197
 296 212 ?213 214 186 208 0 0 1 31 211 139 0 214 208 215 0 --.00988100596584232
 .0097 -.016 0 0 1 1 0 0 .0017 16 214 266 216 ?217 218 197 211 0 0 1 31 215 146
 0 218 211 219 0 -.00951899403415767 .0097 -.016 0 0 1 1 0 0 .0017 16 218 236 22
0 ?221 202 214 215 0 0 1 31 219 153 0 202 215 222 0 -.00951899403415768 -.0097 -
.016 0 0 1 1 0 0 .0017 16 202 206 223 ?224 198 218 219 0 0 1 31 222 462 0 207 21
9 225 0 -4163336342344335e-32 3351466267343995e-20 -.0132 0 0 1 1 0 0 .0234 16 2
07 459 226 ?227 228 203 222 0 0 1 31 225 468 0 228 222 229 0 +4163336342344335e-
32 3351466267343995e-20 -.0144 0 0 1 1 0 0 .0222 16 228 465 230 ?231 232 207 225
 0 0 1 31 229 554 0 232 225 233 0 +.01620068180243525 -.0280604039990744 -.006 0
 0 -1 .5 -.866025403784439 0 .0015 16 232 552 234 ?235 236 228 229 0 0 1 31 233
 558 0 236 229 237 0 +.01620068180243525 -.0280604039990744 0 0 0 -1 .5 -.866025
403784439 0 .0015 16 236 556 238 ?239 240 232 233 0 0 1 31 237 574 0 240 233 241
 0 +.01620068180243525 .0280604039990744 -.006 0 0 -1 .5 .866025403784438 0 .001
5 16 240 572 242 ?243 244 236 237 0 0 1 31 241 578 0 244 237 245 0 +.01620068180
243525 .0280604039990744 0 0 0 -1 .5 .866025403784438 0 .0015 16 244 576 246 ?24
7 248 240 241 0 0 1 30 245 646 0 248 241 249 0 +.0233823378264907 .0009425128848
19407 -.0045 0 0 1 16 248 644 250 ?39 251 244 245 0 0 1 31 249 650 0 251 245 252
 0 +4163336342344335e-32 3351466267343995e-20 -.009 0 0 1 1 0 0 .0234 16 251 648
 130 ?253 254 248 249 0 0 1 30 252 653 0 254 249 21 0 -.02337983176287905 -.0009
37807497824466 -.0045 0 0 1 16 254 651 255 ?256 26 251 252 0 0 1 30 21 669 0 26
 252 8 0 +4135031642365295e-32 .002 -.007 -1 -1439354743296636e-31 0 16 26 668 2
57 ?76 11 254 21 0 0 1 81 1 257 951 30 26 0 0 24 164 258 17 76 0 259 260 55 73 2
61 26 0 36 +15 259 859 0 76 262 0 17 260 0 259 150 76 89 36 138 0 0 -17 55 0 259
 76 59 51 162 159 0 261 -17 261 0 263 264 37 51 76 26 0 177 -17 36 0 34 28 265 7
3 260 138 0 37 +15 34 895 0 35 266 0 17 265 0 34 36 35 89 146 143 0 260 -17 37 0
 263 261 267 73 28 38 0 0 +15 263 421 0 264 268 0 17 267 0 263 37 269 12 181 173
 0 0 -17 269 0 263 267 25 60 66 158 0 181 +17 181 0 270 256 39 60 267 173 0 0 +1
5 270 437 0 181 271 0 17 256 0 270 253 181 67 62 254 0 0 +17 39 0 270 181 253 12
 35 248 0 267 +17 253 0 270 39 256 70 69 251 0 0 +17 35 0 34 265 28 70 39 248 0
 146 -17 146 0 272 69 92 70 265 143 0 253 +15 272 875 0 88 273 0 17 69 0 272 88
 146 67 253 251 0 274 -17 92 0 272 146 80 89 150 147 0 265 -17 80 0 272 92 84 77
 103 112 0 150 +17 150 0 259 96 260 77 92 147 0 108 +17 96 0 259 59 150 93 108 1
16 0 102 +17 108 0 101 103 102 77 96 116 0 0 -17 59 0 259 55 96 56 111 127 0 162
 +17 162 0 275 124 177 56 55 159 0 123 +15 275 688 0 49 276 0 17 124 0 275 49 16
2 42 123 198 0 0 +17 177 0 275 162 49 51 264 174 0 0 +17 123 0 122 111 118 56 12
4 198 0 0 -17 49 0 275 177 124 29 47 121 0 264 -17 264 0 263 25 261 29 177 174 0
 0 -17 25 0 263 269 264 63 41 11 0 0 +14 276 93 277 ?271 17 275 6 278 -0 0 271 1
7 23 81 1 277 992 279 276 280 0 281 282 283 14 271 433 282 ?19 276 284 6 285 +0
 0 19 276 23 14 17 35 281 ?276 0 286 6 287 +0 0 276 0 23 51 278 105 0 276 288 28
9 0 +4163336342344335e-32 335146626734385e-19 -.2582176211353315 0 0 1 .026 1 0
 0 13 23 52 0 0 0 0 0 0 10 17 51 288 326 0 290 291 278 0 --.00988100596584232 -.
0097 -.0144 0 0 -1 .0017 -1 0 0 50 289 104 0 292 278 293 0 +-.000181005965842314
 3469446951953615e-32 -.0144 0 0 1 1 0 0 14 292 89 294 ?295 296 297 6 289 +0 0 2
95 296 23 50 293 3 0 298 289 287 0 +-.000181005965842314 3469446951953615e-32 -.
016 0 0 1 1 0 0 14 298 1 299 ?290 295 300 6 293 -0 0 290 295 23 50 287 45 0 17 2
93 301 0 +-.000181005965842314 3469446951953615e-32 0 0 0 1 1 0 0 51 301 51 0 29
5 287 302 0 +-.0001810059658423185 3469446951953615e-32 -.016 0 0 1 .03769042356
58876 1 0 0 14 295 48 303 ?298 292 304 6 301 +0 0 298 292 23 52 302 484 305 306
 301 307 0 +4163336342344335e-32 3351466267343995e-20 -.0132 0 0 1 .0234 .707106
781186548 .707106781186548 1 0 0 81 2 305 485 308 302 0 0 0 0 309 310 14 306 477
 311 ?312 268 313 6 302 -0 0 312 268 23 50 307 543 0 296 302 314 0 +.01545068180
243525 -.02676136589339775 -.006 0 0 1 -.5 .866025403784439 0 14 296 541 315 ?29
2 316 317 6 307 +0 0 292 316 23 51 314 548 0 316 307 20 0 -.01620068180243525 -.
0280604039990744 0 0 0 -1 .0015 .5 -.866025403784439 0 14 316 546 318 ?296 319 3
20 6 314 +0 0 296 319 23 50 20 563 0 319 314 7 0 +.01545068180243525 .0267613658
9339775 -.006 0 0 1 -.5 -.866025403784438 0 14 319 561 321 ?316 19 322 6 20 +0 0
 316 19 23 81 1 321 995 279 319 43 0 323 318 324 14 19 566 323 ?319 271 325 6 7
 +0 0 319 271 23 15 322 565 0 326 319 0 17 326 0 322 326 326 0 243 240 0 0 -17 2
43 0 325 243 243 0 326 240 0 0 +15 325 570 0 243 19 327 15 327 571 0 328 19 0 17
 328 0 327 328 328 0 247 244 0 0 -17 247 0 286 247 247 0 328 244 0 0 +15 286 560
 0 247 17 329 15 329 540 0 239 17 330 17 239 0 329 239 239 0 331 236 0 0 +15 330
 498 0 172 17 332 17 172 0 330 172 172 0 333 169 0 0 +15 332 40 0 210 17 122 17
 210 0 332 210 210 0 334 201 0 0 +17 334 0 335 334 334 0 210 201 0 0 -15 335 49
 0 334 295 0 17 333 0 336 333 333 0 172 169 0 0 -15 336 523 0 333 337 0 14 337 5
19 338 ?120 312 339 6 340 +0 0 120 312 23 81 1 338 1008 279 337 341 0 342 343 34
4 14 120 884 343 ?262 337 46 6 345 +0 0 262 337 23 14 312 515 342 ?337 306 346 6
 347 +0 0 337 306 23 15 339 522 0 168 337 336 51 340 531 0 337 347 348 0 --.0324
013636048705 0 0 0 0 -1 .0015 -1 0 0 50 347 532 0 312 349 340 0 +-.0309013636048
705 0 -.006 0 0 1 1 0 0 50 348 442 0 268 340 285 0 +4163336342344335e-32 3351466
267343535e-20 -.007 0 0 1 1 0 0 14 268 418 350 ?306 351 263 6 348 +0 0 306 351 2
3 51 285 441 0 271 348 352 0 -4163336342344335e-32 3351466267343995e-20 -.006998
 0 0 -1 .0234 -1 0 0 51 352 335 0 353 285 354 0 --.00988100596584232 .0097 -.014
4 0 0 -1 .0017 -1 0 0 14 353 278 355 ?356 290 357 6 352 +0 0 356 290 23 51 354 3
32 0 356 352 291 0 -.00951899403415767 .0097 -.0144 0 0 -1 .0017 -1 0 0 14 356 2
48 358 ?351 353 359 6 354 +0 0 351 353 23 51 291 329 0 351 354 288 0 -.009518994
03415768 -.0097 -.0144 0 0 -1 .0017 -1 0 0 14 351 218 360 ?268 356 361 6 291 +0
 0 268 356 23 81 1 360 1004 279 351 362 0 358 350 363 15 361 212 0 364 351 365 1
7 364 0 361 364 364 0 193 178 0 0 -15 365 213 0 224 351 0 17 224 0 365 224 224 0
 366 202 0 0 +17 366 0 300 366 366 0 224 202 0 0 -15 300 152 0 366 298 367 15 36
7 145 0 368 298 369 17 368 0 367 368 368 0 221 218 0 0 -15 369 138 0 370 298 371
 17 370 0 369 370 370 0 217 214 0 0 -15 371 131 0 372 298 373 17 372 0 371 372 3
72 0 213 197 0 0 -15 373 7 0 374 298 0 17 374 0 373 374 374 0 206 203 0 0 -17 20
6 0 304 206 206 0 374 203 0 0 +15 304 47 0 206 295 335 17 213 0 375 213 213 0 37
2 197 0 0 +15 375 303 0 213 290 0 14 290 308 376 ?353 298 377 6 288 +0 0 353 298
 23 81 1 376 1001 279 290 378 0 299 355 379 15 377 302 0 380 290 375 17 380 0 37
7 380 380 0 196 186 0 0 -17 196 0 381 196 196 0 380 186 0 0 +15 381 158 0 196 29
2 382 15 382 164 0 185 292 383 17 185 0 382 185 185 0 384 182 0 0 +15 383 170 0
 190 292 385 17 190 0 383 190 190 0 386 187 0 0 +15 385 176 0 193 292 0 17 193 0
 385 193 193 0 364 178 0 0 +17 386 0 359 386 386 0 190 187 0 0 -15 359 242 0 386
 356 387 15 387 243 0 221 356 0 17 221 0 387 221 221 0 368 218 0 0 +17 384 0 357
 384 384 0 185 182 0 0 -15 357 272 0 384 353 388 15 388 273 0 217 353 0 17 217 0
 388 217 217 0 370 214 0 0 +80 1 279 0 389 8001 0 0 0 0 3 5 0 0 0 FFFFTFTFFFFFFF
FF2 81 1 378 360 30 290 0 376 192 390 391 81 1 299 1000 279 298 392 0 303 376 39
3 81 1 355 1002 279 353 390 0 376 358 394 83 3 379 .615686274509804 .81176470588
2353 .929411764705882 81 1 390 361 30 353 0 355 378 395 396 81 1 358 1003 279 35
6 395 0 355 360 397 83 3 394 .615686274509804 .811764705882353 .929411764705882
 81 1 395 362 30 356 0 358 390 362 398 83 3 397 .615686274509804 .81176470588235
3 .929411764705882 80 1 30 399 400 9000 0 0 0 0 3 6 0 0 0 FFTFTFTTFFFFFFFF1 81 1
 362 363 30 351 0 360 395 392 401 82 3 398 20 2 2 81 1 392 364 30 298 0 299 362
 402 403 82 3 401 20 3 2 81 1 402 453 30 1 0 404 392 226 405 82 3 403 20 4 2 81
 1 404 988 406 1 402 14 0 0 407 81 1 226 489 30 207 0 0 402 230 408 82 3 405 8 0
 3 81 1 230 490 30 228 0 0 226 409 410 82 3 408 26 0 1 81 1 409 491 30 306 0 311
 230 411 412 82 3 410 26 1 1 81 1 311 1006 279 306 409 0 350 342 413 81 1 411 49
3 30 292 0 294 409 171 414 82 3 412 26 0 2 81 1 294 998 279 292 411 0 315 303 41
5 81 1 171 535 30 169 0 0 411 167 416 82 3 414 26 2 2 81 1 167 536 30 165 0 0 17
1 341 417 82 3 416 34 0 1 81 1 341 537 30 337 0 338 167 418 419 82 3 417 34 1 1
 81 1 418 538 30 312 0 342 341 238 420 82 3 419 34 0 2 81 1 342 1007 279 312 418
 0 311 338 421 81 1 238 580 30 236 0 0 418 234 422 82 3 420 34 1 2 81 1 234 581
 30 232 0 0 238 423 424 82 3 422 35 0 1 81 1 423 582 30 316 0 318 234 425 426 82
 3 424 35 1 1 81 1 318 996 279 316 423 0 321 315 427 81 1 425 583 30 296 0 315 4
23 246 428 82 3 426 35 0 2 81 1 315 997 279 296 425 0 318 294 429 81 1 246 584 3
0 244 0 0 425 242 430 82 3 428 35 1 2 81 1 242 585 30 240 0 0 246 431 432 82 3 4
30 35 2 1 81 1 431 586 30 19 0 323 242 43 433 82 3 432 35 3 1 81 1 323 994 279 1
9 431 0 282 321 434 81 1 43 587 30 319 0 321 431 40 435 82 3 433 35 2 2 82 3 435
 35 3 2 81 1 282 993 279 271 436 0 277 323 437 83 3 434 .615686274509804 .811764
705882353 .929411764705882 81 1 436 974 30 271 0 282 280 438 439 83 3 437 .61568
6274509804 .811764705882353 .929411764705882 81 1 280 973 30 276 0 277 440 436 4
41 81 1 438 975 30 17 0 281 436 442 443 82 3 439 39 6 2 81 1 281 991 279 17 438
 0 0 277 444 81 1 442 976 30 158 0 0 438 157 445 82 3 443 39 7 2 16 158 770 442
 ?269 159 38 154 38 38 1 81 1 157 977 30 38 0 0 442 446 447 82 3 445 39 18 1 81
 1 446 978 30 115 0 0 157 145 448 82 3 447 39 19 1 16 115 776 446 ?88 143 105 14
2 143 143 1 81 1 145 979 30 143 0 0 446 449 450 82 3 448 39 20 1 81 1 449 980 30
 451 0 452 145 453 454 82 3 450 39 21 1 14 451 868 452 ?273 262 455 6 456 +266 2
66 273 262 23 81 1 452 1011 279 451 449 0 457 458 459 81 1 453 981 30 266 0 460
 449 31 461 82 3 454 39 8 2 14 266 892 460 ?0 107 34 6 456 +451 451 107 273 23 8
1 1 460 1014 279 266 453 0 462 0 463 81 1 31 982 30 60 0 0 453 27 464 82 3 461 3
9 9 2 82 3 464 39 12 0 81 1 462 1013 279 107 465 0 458 460 466 83 3 463 .6156862
74509804 .811764705882353 .929411764705882 14 107 876 462 ?266 273 101 6 467 +0
 0 0 266 23 81 1 465 968 30 107 0 462 176 468 469 81 1 458 1012 279 273 468 0 45
2 462 470 83 3 466 .615686274509804 .811764705882353 .929411764705882 14 273 872
 458 ?107 451 272 6 349 +0 0 266 451 23 81 1 468 969 30 273 0 458 465 471 472 83
 3 470 .615686274509804 .811764705882353 .929411764705882 81 1 471 970 30 120 0
 343 468 473 474 82 3 472 39 1 2 81 1 343 1009 279 120 471 0 338 457 475 81 1 47
3 971 30 262 0 457 471 440 476 82 3 474 39 2 2 14 262 888 457 ?451 120 259 6 477
 -0 0 451 120 23 81 1 457 1010 279 262 473 0 343 452 478 81 1 440 972 30 268 0 3
50 473 280 479 82 3 476 39 3 2 81 1 350 1005 279 268 440 0 360 311 480 82 3 479
 39 4 2 83 3 480 .615686274509804 .811764705882353 .929411764705882 83 3 478 .61
5686274509804 .811764705882353 .929411764705882 50 477 901 0 262 456 467 0 +.028
15935312595915 .002 -.2618176211353315 -1439354743296636e-31 1 0 -1 -14393547432
96636e-31 0 51 456 902 0 266 0 477 0 -.02514633030435145 0 -.2618176211353315 0
 0 1 .002 1 0 0 51 467 900 0 107 477 345 0 -.0311723759475668 0 -.26181762113533
15 0 0 1 .002 1 0 0 50 345 899 0 120 467 349 0 +.02815935312595915 -.002 -.26181
76211353315 -1439354743296636e-31 1 0 -1 -1439354743296636e-31 0 50 349 898 0 27
3 345 347 0 +4163336342344335e-32 3351466267343535e-20 -.009 0 0 1 1 0 0 83 3 47
5 .615686274509804 .811764705882353 .929411764705882 81 1 176 967 30 174 0 0 180
 465 481 82 3 469 39 0 2 81 1 180 966 30 173 0 0 200 176 482 82 3 481 39 17 1 81
 1 200 965 30 198 0 0 149 180 483 82 3 482 39 16 1 81 1 149 964 30 147 0 0 155 2
00 484 82 3 483 39 15 1 81 1 155 963 30 151 0 0 153 149 485 82 3 484 39 14 1 81
 1 153 962 30 112 0 0 140 155 486 82 3 485 39 13 1 81 1 140 961 30 138 0 0 137 1
53 487 82 3 486 39 12 1 81 1 137 960 30 133 0 0 114 140 488 82 3 487 39 11 1 81
 1 114 959 30 105 0 0 141 137 489 82 3 488 39 10 1 81 1 141 958 30 116 0 0 132 1
14 490 82 3 489 39 9 1 81 1 132 957 30 127 0 0 125 141 491 82 3 490 39 8 1 81 1
 125 956 30 119 0 0 128 132 492 82 3 491 39 7 1 82 3 492 39 6 1 83 3 459 .615686
274509804 .811764705882353 .929411764705882 15 455 871 0 493 451 0 17 493 0 455
 274 66 85 48 133 0 0 -17 274 0 455 62 493 67 88 115 0 256 -17 66 0 455 493 62 6
3 269 158 0 48 -17 48 0 46 41 113 63 493 133 0 25 +17 113 0 46 48 104 85 84 151
 0 493 -17 84 0 272 80 88 81 113 151 0 103 +17 88 0 272 84 69 85 274 115 0 113 +
17 62 0 455 66 274 60 256 254 0 269 -83 3 444 .615686274509804 .811764705882353
 .929411764705882 82 3 441 39 5 2 83 3 429 .615686274509804 .811764705882353 .92
9411764705882 83 3 427 .615686274509804 .811764705882353 .929411764705882 83 3 4
21 .615686274509804 .811764705882353 .929411764705882 81 1 303 999 279 295 494 0
 294 299 495 83 3 415 .615686274509804 .811764705882353 .929411764705882 81 1 49
4 59 30 295 0 303 205 212 496 83 3 495 .615686274509804 .811764705882353 .929411
764705882 81 1 205 58 30 203 0 0 209 494 497 81 1 212 352 30 197 0 0 494 216 498
 82 3 496 8 0 2 81 1 216 353 30 214 0 0 212 220 499 82 3 498 20 0 1 81 1 220 354
 30 218 0 0 216 223 500 82 3 499 20 1 1 81 1 223 355 30 202 0 0 220 195 501 82 3
 500 20 2 1 81 1 195 356 30 186 0 0 223 184 502 82 3 501 20 3 1 81 1 184 357 30
 182 0 0 195 189 503 82 3 502 20 4 1 81 1 189 358 30 187 0 0 184 192 504 82 3 50
3 20 5 1 81 1 192 359 30 178 0 0 189 378 505 82 3 504 20 6 1 82 3 505 20 7 1 81
 1 209 57 30 201 0 0 0 205 506 82 3 497 8 1 1 82 3 506 8 0 1 83 3 413 .615686274
509804 .811764705882353 .929411764705882 80 1 406 507 508 8038 0 0 0 0 0 0 0 0 0
 TTTTTTTTTTTTTFTF10 81 1 14 989 507 1 404 2 0 0 509 98 20 407 79 117 116 101 114
 32 98 101 97 114 105 110 103 32 97 110 99 104 111 114 80 1 507 510 511 8017 0 0
 0 0 0 0 0 0 0 TTTTTTTTTTTTTFTF3 84 20 509 Outer bearing anchor79 13 511 SDL/TYS
A_NAME79 14 508 SDL/TYSA_UNAME79 9 400 BTI/DetId82 3 396 20 1 2 83 3 393 .615686
274509804 .811764705882353 .929411764705882 82 3 391 20 0 2 79 15 389 SDL/TYSA_C
OLOUR83 3 363 .615686274509804 .811764705882353 .929411764705882 17 168 0 339 16
8 168 0 512 165 0 0 +17 512 0 346 512 512 0 168 165 0 0 -15 346 518 0 512 312 0
 83 3 344 .615686274509804 .811764705882353 .929411764705882 17 331 0 513 331 33
1 0 239 236 0 0 -15 513 551 0 331 316 0 83 3 324 .615686274509804 .8117647058823
53 .929411764705882 15 320 550 0 235 316 513 17 235 0 320 235 235 0 514 232 0 0
 +17 514 0 317 514 514 0 235 232 0 0 -15 317 545 0 514 296 0 15 313 478 0 515 30
6 516 17 515 0 313 515 515 0 231 228 0 0 -15 516 479 0 517 306 0 17 517 0 516 51
7 517 0 227 207 0 0 -17 227 0 284 227 227 0 517 207 0 0 +15 284 460 0 227 271 27
0 17 231 0 297 231 231 0 515 228 0 0 +15 297 466 0 231 292 381 80 2 308 518 519
 8044 0 0 0 0 3 5 0 0 0 FFFFTFFFTTFFFFFF3 2 84 6 309 BAAAAB83 3 310 -.0012 0 .00
12 79 17 519 SDL/TYSA_BLEND_ID83 3 283 .615686274509804 .811764705882353 .929411
764705882 81 1 24 950 30 11 0 0 91 257 520 81 1 164 952 30 121 0 0 257 161 521 8
2 3 258 39 1 1 81 1 161 953 30 159 0 0 164 130 522 82 3 521 39 2 1 81 1 130 954
 30 251 0 0 161 128 523 82 3 522 39 3 1 82 3 523 39 4 1 81 1 91 949 30 89 0 0 87
 24 524 82 3 520 39 0 1 81 1 87 948 30 85 0 0 83 91 525 82 3 524 39 11 0 81 1 83
 947 30 81 0 0 98 87 526 82 3 525 39 10 0 82 3 526 39 9 0 81 1 255 986 30 254 0
 0 72 250 527 81 1 72 985 30 70 0 0 32 255 528 81 1 250 987 30 248 0 0 255 0 529
 82 3 527 39 22 1 82 3 529 39 23 1 81 1 32 984 30 67 0 0 27 72 530 82 3 528 39 1
5 0 82 3 530 39 14 0 82 3 131 39 5 1 81 1 79 945 30 77 0 0 95 98 531 82 3 100 39
 8 0 81 1 95 944 30 93 0 0 58 79 532 82 3 531 39 7 0 81 1 58 943 30 56 0 0 50 95
 533 82 3 532 39 6 0 81 1 50 942 30 42 0 0 75 58 534 82 3 533 39 5 0 81 1 75 941
 30 73 0 0 65 50 535 82 3 534 39 4 0 81 1 65 940 30 63 0 0 44 75 536 82 3 535 39
 3 0 81 1 44 939 30 51 0 0 40 65 537 82 3 536 39 2 0 82 3 537 39 1 0 82 3 45 39
 0 0 82 3 33 39 13 0 19 18 53 0 1 0 10 6 0 S0 74 20 16 6 0 0 250 305 404 14 2 46
0 0 0 0 0 0 0 0 0 0 0 0 0 0 0 80 1 13 279 538 8040 0 0 0 0 3 5 0 0 0 TTTFFFFFFFF
FFFFF2 83 3 15 .615686274509804 .811764705882353 .929411764705882 79 17 538 SDL/
TYSA_COLOUR_21 0 
