**ABCDEFGHIJKLMNOPQRSTUVWXYZabcdefghijklmnopqrstuvwxyz**************************
**PARASOLID !"#$%&'()*+,-./:;<=>?@[\]^_`{|}~0123456789**************************
**PART1;
MC=unknown;
MC_MODEL=unknown;
MC_ID=unknown;
OS=unknown;
OS_RELEASE=unknown;
FRU=Parasolid 35.1.171;
APPL=Onshape;
SITE=unknown;
USER=unknown;
FORMAT=text;
GUISE=transmit;
KEY=BTGapi::writeModels_.xmt;
FILE=BTGapi::writeModels_.xmt;
**PART2;
SCH=SCH_3501171_35102;
USFLD_SIZE=0;
**PART3;
**END_OF_HEADER*****************************************************************
T51 : TRANSMIT FILE created by modeller version 350117117 SCH_3501171_351020 12
 1 2264 2 3 0 0 0 0 0 0 0 1e3 1e-8 0 4 5 1 0 1 2 6 0 7 8 9 0 0 10 11 12 0 0 0 0
 0 0 0 81 1 2 2221 13 1 14 0 0 0 15 70 3 0 4 T1 0 0 6 20 1 16 16 13 6 69 0 1 0 1
7 0 0 18 0 52 7 2109 19 20 21 0 22 --1084202172485534e-34 1084202172485504e-34 -
.0432 0 0 -1 .0022 .70710678118655 .707106781186545 -1 0 0 38 8 2113 0 23 24 0 0
 -21 7 25 26 27 28 29 9 1988 0 12 29 0 -.001396424004376894 -.0017 -.0432 19 10
 68 0 1 18 0 30 0 V0 16 11 1994 31 ?32 0 33 34 0 0 1 18 12 1985 35 36 0 37 9 ?1
 81 1 35 2213 38 12 0 0 39 40 41 17 36 0 42 43 44 12 45 23 0 46 +18 37 1981 40 3
2 12 47 29 ?1 81 1 40 2214 38 37 0 0 35 48 49 17 32 0 50 51 52 37 46 11 0 53 +18
 47 1972 54 55 37 56 57 ?1 29 29 1984 0 37 57 9 .001396424004376894 -.0017 -.043
2 29 57 1974 0 47 58 29 -.00153297097167559 -.0021 -.0436 29 58 1971 0 56 59 57
 .00153297097167559 -.0021 -.0436 18 56 1969 60 61 47 62 58 ?1 29 59 1958 0 62 6
3 58 -.00202072594216369 .0035 -4e-4 18 62 1955 64 65 56 66 59 ?1 29 63 1949 0 6
6 67 59 .00202072594216369 .0035 -4e-4 18 66 1946 68 69 62 70 63 ?1 29 67 1940 0
 70 71 63 .00404145188432738 -867361737988404e-33 -4e-4 18 70 1937 72 73 66 74 6
7 ?1 29 71 1931 0 74 75 67 .00202072594216369 -.0035 -4e-4 18 74 1928 76 77 70 7
8 71 ?1 29 75 1922 0 78 79 71 -.00202072594216369 -.0035 -4e-4 18 78 1919 80 81
 74 82 75 ?1 29 79 1918 0 82 83 75 -.00404145188432738 1084202172485504e-33 -4e-
4 18 82 1915 84 85 78 86 79 ?1 29 83 1908 0 86 87 79 -.00178978583448784 -.0031
 0 18 86 1906 88 89 82 90 83 ?1 29 87 1904 0 90 91 83 .00178978583448784 -.0031
 0 18 90 1902 92 93 86 94 87 ?1 29 91 1900 0 94 95 87 .00357957166897568 1976861
96116514e-35 0 18 94 1898 96 97 90 98 91 ?1 29 95 1896 0 98 99 91 .0017897858344
8784 .0031 0 18 98 1894 100 101 94 102 95 ?1 29 99 1892 0 102 103 95 -.003579571
66897568 915319614084679e-33 0 18 102 1890 104 105 98 106 99 ?1 29 103 1889 0 10
6 107 99 -.00178978583448784 .0031 0 18 106 1887 108 109 102 110 103 ?1 29 107 1
664 0 110 111 103 .00294448637286709 -.0051 -.0428 18 110 1661 112 113 106 114 1
07 ?1 29 111 1655 0 114 115 107 .00588897274573418 -1734723475976805e-33 -.0428
 18 114 1652 116 117 110 118 111 ?1 29 115 1640 0 118 119 111 -.0024826061575153
9 .0051 -.0428 18 118 1638 120 121 114 122 115 ?1 29 119 1637 0 122 123 115 .002
94448637286709 .0051 -.0428 18 122 1634 124 125 118 126 119 ?1 29 123 1633 0 126
 127 119 -.00248260615751539 .0051 -.0356 18 126 1630 128 129 122 130 123 ?1 29
 127 1624 0 130 131 123 -.00294448637286709 -.0051 -.0428 18 130 1621 132 133 12
6 134 127 ?1 29 131 1614 0 134 135 127 -.00496521231503078 2094187092257135e-33
 -.0436 18 134 1612 136 137 130 138 131 ?1 29 135 1610 0 138 139 131 -.002482606
15751539 .0043 -.0436 18 138 1608 140 141 134 142 135 ?1 29 139 1606 0 142 143 1
35 .00248260615751539 .0043 -.0436 18 142 1604 144 145 138 146 139 ?1 29 143 160
2 0 146 147 139 .00496521231503078 -714330215349317e-33 -.0436 18 146 1600 148 1
49 142 150 143 ?1 29 147 1598 0 150 151 143 -.00248260615751539 -.0043 -.0436 18
 150 1596 152 153 146 154 147 ?1 29 151 1595 0 154 155 147 .00248260615751539 -.
0043 -.0436 18 154 1593 156 157 150 158 151 ?1 29 155 1586 0 158 159 151 -.00317
542648054294 .0047 -.0428 18 158 1584 160 161 154 162 155 ?1 29 159 1583 0 162 1
63 155 -.00317542648054294 .0047 -.0356 18 162 1580 164 165 158 166 159 ?1 29 16
3 1579 0 166 167 159 -.00588897274573418 477048955893622e-32 -.0428 18 166 1576
 168 169 162 170 163 ?1 29 167 1321 0 170 171 163 -.001396424004376894 -.0017 -.
03920948751620465 18 170 1317 172 173 166 174 167 ?1 29 171 461 0 174 175 167 .0
0404145188432738 -867361737988404e-33 -.0356 18 174 457 176 177 170 178 171 ?1 2
9 175 870 0 178 179 171 .00202072594216369 -.0035 -.0356 18 178 700 180 181 174
 182 175 ?1 29 179 871 0 182 183 175 -.00202072594216369 -.0035 -.0356 18 182 74
4 184 185 178 186 179 ?1 29 183 872 0 186 187 179 -.00404145188432738 1084202172
485504e-33 -.0356 18 186 716 188 189 182 190 183 ?1 29 187 873 0 190 191 183 -.0
0202072594216369 .0035 -.0356 18 190 712 192 193 186 194 187 ?1 29 191 874 0 194
 195 187 .00202072594216369 .0035 -.0356 18 194 708 196 197 190 198 191 ?1 29 19
5 876 0 198 199 191 .00294448637286709 .0051 -.0356 18 198 720 200 201 194 202 1
95 ?1 29 199 878 0 202 203 195 -.00588897274573418 477048955893622e-32 -.0356 18
 202 736 204 205 198 206 199 ?1 29 203 879 0 206 207 199 -.00294448637286709 -.0
051 -.0356 18 206 732 208 209 202 210 203 ?1 29 207 880 0 210 211 203 .002944486
37286709 -.0051 -.0356 18 210 728 212 213 206 214 207 ?1 29 211 881 0 214 215 20
7 .00588897274573418 -1734723475976805e-33 -.0356 18 214 724 216 217 210 218 211
 ?1 29 215 1164 0 218 219 211 -.001396424004376894 -.0017 -.0356 18 218 1130 220
 221 214 222 215 ?1 29 219 1165 0 222 223 215 .001396424004376894 -.0017 -.0356
 18 222 1128 224 225 218 226 219 ?1 29 223 1445 0 226 227 219 -.0013964240043768
94 -.0017 -.03999051248379535 18 226 1401 228 229 222 230 223 ?1 29 227 1446 0 2
30 231 223 .001396424004376894 -.0017 -.03999051248379535 18 230 1399 232 233 22
6 234 227 ?1 29 231 1447 0 234 0 227 .001396424004376894 -.0017 -.03920948751620
465 18 234 1398 235 236 230 0 231 ?1 81 1 235 1466 38 234 0 0 232 237 238 17 236
 0 239 240 173 234 241 242 0 243 +15 239 1417 0 240 244 245 17 240 0 239 246 236
 230 243 247 0 248 +17 173 0 239 236 246 170 229 249 0 250 +17 241 0 251 252 253
 170 236 242 0 254 -16 242 1368 255 ?236 249 256 257 249 247 1 17 243 0 258 233
 233 234 240 247 0 259 -15 258 1405 0 233 260 0 17 233 0 258 243 243 230 259 261
 0 240 +16 247 1365 262 ?240 263 264 257 242 264 1 17 259 0 50 265 51 234 233 26
1 0 253 -15 50 1147 0 52 266 0 17 265 0 50 267 259 222 253 268 0 0 -17 51 0 50 2
59 32 230 53 269 0 0 -16 261 1328 270 ?233 268 269 271 268 269 1 17 253 0 251 24
1 225 234 265 268 0 0 +15 251 1338 0 241 272 0 17 225 0 251 253 252 222 221 273
 0 274 -16 268 1120 275 ?253 276 261 271 269 261 1 81 1 275 1460 38 268 0 0 277
 278 279 16 276 1323 280 ?52 281 268 282 281 283 1 30 271 1161 0 268 284 282 0 +
.001396424004376894 -.0017 -.035598 0 0 -1 16 269 1333 285 ?53 261 286 271 261 2
68 1 81 1 285 2194 38 269 0 0 280 287 288 17 53 0 289 290 248 37 51 269 0 43 +16
 286 1393 291 ?292 269 293 284 0 0 1 81 1 291 1450 38 286 0 0 294 295 296 17 292
 0 297 292 292 0 298 286 0 0 +16 293 1390 295 ?299 286 263 300 0 0 1 31 284 1440
 0 286 300 271 0 +0 -.0051 -.0396 0 1 0 0 0 1 .0023 31 300 1441 0 293 301 284 0
 +0 -.0025 -.0396 0 1 0 0 0 1 .0023 31 301 1442 0 263 257 300 0 +0 -.0025 -.0396
 0 1 0 0 0 1 .00145 16 263 1387 302 ?303 293 247 301 0 0 1 31 257 1443 0 247 304
 301 0 +0 -.0017 -.0396 0 1 0 0 0 1 .00145 31 304 1556 0 256 0 257 0 -0 -.0035 -
.003961889348852865 0 -1 0 0 0 -1 .00135 16 256 1505 305 ?306 242 307 304 0 0 1
 81 1 305 1565 38 256 0 0 308 309 310 17 306 0 311 306 306 0 312 256 0 0 +16 307
 1711 313 ?314 256 315 316 0 0 1 81 1 313 1840 38 307 0 0 317 318 319 17 314 0 3
20 321 322 114 323 307 0 0 +16 315 1714 317 ?324 307 325 326 0 0 1 30 316 1762 0
 307 326 327 0 +.00504769092491501 -433680868994202e-33 -.04352857142857145 .755
928946018454 2221029578189855e-31 .654653670707978 30 326 1763 0 315 328 316 0 -
.00252384546245751 .00437142857142857 -.04352857142857145 .3779644730092265 .654
653670707977 .654653670707978 30 327 1893 0 329 316 330 0 +-.00268467875173176 .
00155 0 -.5 -.866025403784439 0 16 329 1891 331 ?105 332 333 327 0 0 1 30 330 18
97 0 332 327 334 0 +867361737988404e-33 .0031 0 -1 0 0 16 332 1895 335 ?109 336
 329 330 0 0 1 30 334 1901 0 336 330 337 0 +.00268467875173176 .00155 0 -.5 .866
025403784439 0 16 336 1899 338 ?101 339 332 334 0 0 1 30 337 1905 0 339 334 340
 0 +.00268467875173176 -.00155 0 .5 .866025403784438 0 16 339 1903 341 ?97 342 3
36 337 0 0 1 30 340 1909 0 342 337 343 0 +867361737988404e-33 -.0031 0 1 0 0 16
 342 1907 344 ?93 345 339 340 0 0 1 30 343 1912 0 345 340 346 0 +-.0026846787517
3176 -.00155 0 .5 -.866025403784439 0 16 345 1910 347 ?348 349 342 343 0 0 1 30
 346 1925 0 349 343 350 0 +-.003031088913245535 -.00175 -4e-4 -.5 .8660254037844
39 0 16 349 1923 351 ?352 353 345 346 0 0 1 30 350 1934 0 353 346 354 0 +-867361
737988404e-33 -.0035 -4e-4 -1 0 0 16 353 1932 355 ?81 356 349 350 0 0 1 30 354 1
943 0 356 350 357 0 +.003031088913245535 -.00175 -4e-4 -.5 -.866025403784438 0 1
6 356 1941 358 ?77 359 353 354 0 0 1 30 357 1952 0 359 354 360 0 +.0030310889132
45535 .00175 -4e-4 .5 -.866025403784439 0 16 359 1950 361 ?73 362 356 357 0 0 1
 30 360 1961 0 362 357 363 0 +433680868994202e-33 .0035 -4e-4 1 0 0 16 362 1959
 364 ?69 365 359 360 0 0 1 30 363 1966 0 365 360 366 0 +-.003031088913245535 .00
175 -4e-4 .5 .866025403784439 0 16 365 1964 367 ?65 368 362 363 0 0 1 31 366 197
5 0 368 363 369 0 +-1084202172485534e-34 1084202172485504e-34 -.0436 0 0 1 1 0 0
 .0026 16 368 1973 370 ?55 371 365 366 0 0 1 30 369 1978 0 371 366 372 0 +.00139
6424004376894 -.0021 -.0436 1 0 0 16 371 1976 373 ?374 33 368 369 0 0 1 30 372 1
991 0 33 369 34 0 +-.001396424004376894 -.0017 -.0432 -1 0 0 16 33 1989 375 ?290
 11 371 372 0 0 1 31 34 1996 0 11 372 376 0 --1084202172485534e-34 1084202172485
504e-34 -.0432 0 0 1 1 0 0 .0022 30 376 2073 0 377 34 378 0 --.00153410214384672
 -.002657142857142855 .0004428571428571435 -.377964473009229 -.654653670707979 -
.654653670707974 16 377 2043 379 ?89 380 23 376 0 0 1 30 378 2072 0 380 376 381
 0 --.003068204287693435 867361737988404e-33 .000442857142857143 .75592894601845
7 3899529019890505e-31 .654653670707975 16 380 2041 382 ?85 383 377 378 0 0 1 30
 381 2071 0 383 378 384 0 -.001534102143846715 -.002657142857142855 .00044285714
2857142 .3779644730092285 -.654653670707979 -.654653670707975 16 383 2038 385 ?3
86 387 380 381 0 0 1 30 384 2070 0 387 381 388 0 +-.00153410214384672 .002657142
857142855 .000442857142857142 -.3779644730092285 .654653670707979 -.654653670707
975 16 387 2035 389 ?390 391 383 384 0 0 1 30 388 2069 0 391 384 392 0 -.0030682
04287693435 1084202172485504e-33 .0004428571428571435 .755928946018457 -10613526
78669304e-30 -.654653670707975 16 391 2032 393 ?394 395 387 388 0 0 1 30 392 206
8 0 395 388 24 0 +.00153410214384672 .002657142857142855 .000442857142857142 .37
79644730092275 .654653670707979 -.654653670707975 16 395 2029 396 ?397 398 391 3
92 0 0 1 38 24 2114 0 399 392 8 0 -21 7 400 401 402 403 16 399 2104 404 ?61 23 0
 24 0 0 1 50 21 2111 405 406 407 7 408 +867361737988404e-33 -.0021 -.0436 0 .707
106781186545 -.70710678118655 -1 0 0 40 2 400 0 1 2 647179976131526e-20 .0213045
9423608035 ??.00153297097167559 -.0021 -.0436 .001396424004376892 -.0017 -.0432
 41 1 401 L?.00153297097167559 -.0021 -.0436 41 1 402 L?.001396424004376892 -.00
17 -.0432 204 8 403 4 -.00153297097167559 0 4.081820240785135 4e-4 -.00139642400
4376892 .000565685424949237 4.02471932847357 -1301042606982596e-33 81 2 405 2112
 409 21 0 0 19 0 410 411 14 406 2095 412 ?0 20 42 6 21 +0 0 0 20 30 50 407 2056
 413 414 415 21 0 -.00268467875173176 .00155 0 -.612372435695793 -.3535533905932
73 -.707106781186549 -.5 .866025403784439 0 141 408 24 416 416 21 141 416 8 408
 408 21 81 2 413 2057 409 407 0 0 417 418 419 420 14 414 2012 421 ?422 423 424 6
 407 +0 0 422 423 30 50 415 2058 418 422 425 407 0 -867361737988404e-33 .0031 0
 0 -.707106781186545 -.70710678118655 -1 0 0 81 2 418 2059 409 415 0 0 413 426 4
27 428 14 422 2014 429 ?430 414 431 6 415 +0 0 430 414 30 50 425 2060 426 430 43
2 415 0 -.00268467875173176 -.00155 0 -.612372435695792 .353553390593273 -.70710
678118655 .5 .866025403784438 0 81 2 426 2061 409 425 0 0 418 433 434 435 14 430
 2016 436 ?437 422 438 6 425 +0 0 437 422 30 50 432 2062 433 437 439 425 0 --.00
268467875173176 .00155 0 .612372435695793 -.3535533905932725 -.70710678118655 -.
5 -.866025403784439 0 81 2 433 2063 409 432 0 0 426 440 441 442 14 437 2018 443
 ?444 430 445 6 432 +0 0 444 430 30 50 439 2064 440 444 446 432 0 -8673617379884
04e-33 -.0031 0 0 .707106781186545 -.70710678118655 1 0 0 81 2 440 2065 409 439
 0 0 433 447 448 449 14 444 2020 450 ?451 437 452 6 439 +0 0 451 437 30 50 446 2
066 447 451 453 439 0 --.00268467875173176 -.00155 0 .612372435695792 .353553390
593272 -.70710678118655 .5 -.866025403784439 0 81 2 447 2067 409 446 0 0 440 19
 454 455 14 451 2022 456 ?20 444 457 6 446 +0 0 20 444 30 50 453 1746 458 459 46
0 446 0 -.00441672955930064 .00255 -.0428 -.612372435695795 -.3535533905932745 .
707106781186547 -.5 .866025403784439 0 81 2 458 1747 409 453 0 0 0 461 462 463 1
4 459 1690 464 ?465 466 467 6 453 +0 0 465 466 30 50 460 1748 461 465 468 453 0
 -.004416729559300635 -.00255 -.0428 -.612372435695795 .3535533905932745 .707106
781186547 .5 .866025403784439 0 81 2 461 1749 409 460 0 0 458 469 470 471 14 465
 1692 472 ?473 459 320 6 460 +0 0 473 459 30 50 468 1750 469 473 474 460 0 -0 .0
051 -.0428 0 -.707106781186548 .707106781186547 -1 0 0 81 2 469 1751 409 468 0 0
 461 475 476 477 14 473 1694 478 ?479 465 480 6 468 +0 0 479 465 30 50 474 1752
 475 479 481 468 0 --.00317542648054294 .0047 -.0356 .5 -.866025403784439 0 0 0
 -1 81 2 475 1753 409 474 0 0 469 482 483 484 14 479 1696 485 ?486 473 487 6 474
 +0 0 486 473 30 50 481 1754 482 486 488 474 0 --433680868994202e-33 -.0051 -.04
28 0 .707106781186548 .707106781186547 1 0 0 81 2 482 1755 409 481 0 0 475 489 4
90 491 14 486 1698 492 ?493 479 494 6 481 +0 0 493 479 30 50 488 1756 489 493 49
5 481 0 +-.00248260615751539 .0043 -.0436 -.3779644730092275 .654653670707978 -.
654653670707976 0 .707106781186547 .707106781186548 81 2 489 1757 409 488 0 0 48
2 496 497 498 14 493 1700 499 ?500 486 501 6 488 +0 0 500 486 30 50 495 1758 496
 500 502 488 0 --.004416729559300635 -.00255 -.0428 .612372435695796 .3535533905
93274 .707106781186546 .5 -.866025403784439 0 81 2 496 1759 409 495 0 0 489 417
 503 504 14 500 1702 505 ?423 493 506 6 495 +0 0 423 493 30 50 502 1760 417 423
 507 495 0 --.004416729559300635 .00255 -.0428 .612372435695795 -.35355339059327
45 .707106781186547 -.5 -.866025403784439 0 81 2 417 1761 409 502 0 0 496 413 50
8 509 14 423 1704 510 ?414 500 511 6 502 +0 0 414 500 30 50 507 188 0 512 513 50
2 0 +.003031088913245535 .00175 -.0436 .866025403784439 .5 0 -.5 .86602540378443
9 0 14 512 182 514 ?515 516 517 6 507 +0 0 515 516 30 50 513 187 0 515 518 507 0
 +433680868994202e-33 .0035 -.0436 0 1 0 0 0 1 14 515 180 519 ?520 512 521 6 513
 +0 0 520 512 30 50 518 186 0 520 522 513 0 +-.003031088913245535 .00175 -.0436
 -.866025403784439 .5 0 -.5 -.866025403784439 0 14 520 178 523 ?524 515 525 6 51
8 +0 0 524 515 30 50 522 185 0 524 526 518 0 +-.003031088913245535 -.00175 -.043
6 -.866025403784439 -.5 0 .5 -.866025403784439 0 14 524 176 527 ?528 520 529 6 5
22 +0 0 528 520 30 50 526 184 0 528 530 522 0 +-867361737988404e-33 -.0035 -.043
6 0 -1 0 0 0 -1 14 528 174 531 ?532 524 311 6 526 +0 0 532 524 30 50 530 183 0 5
32 533 526 0 +.003031088913245535 -.00175 -.0436 .866025403784438 -.5 0 .5 .8660
25403784438 0 14 532 172 534 ?535 528 536 6 530 +0 0 535 528 30 50 533 152 0 535
 537 530 0 +867361737988404e-33 867361737988404e-33 0 0 0 1 1 0 0 14 535 94 538
 ?539 532 540 6 533 +0 0 539 532 30 50 537 3 0 516 541 533 0 +867361737988404e-3
3 867361737988404e-33 -.0436 0 0 1 1 0 0 14 516 1 542 ?512 272 543 6 537 -0 0 51
2 272 30 51 541 393 0 17 544 537 545 +0 949101269339199e-34 -.2568176211353315 0
 0 1 .00155 1 0 0 14 17 386 546 ?547 0 548 6 541 -0 0 547 0 30 50 544 394 0 539
 549 541 0 +433680868994202e-33 433680868994202e-33 -.0188 0 0 -1 1 0 0 141 545
 550 545 545 541 38 550 1483 0 551 552 553 0 +541 554 555 556 556 557 16 551 148
1 308 ?558 559 560 550 0 0 1 30 552 194 0 560 561 550 0 +.00202072594216369 .003
5 -.0436 0 0 1 30 553 1587 0 559 550 562 0 +-.00317542648054294 .0047 -.0356 0 0
 -1 51 554 1554 0 466 0 563 564 -0 -.0051 -.003961889348852865 0 1 0 .00135 0 0
 1 40 24 555 0 1 24 .0001022328251939776 .382366976451946 ??0 -.00155 -.00261188
9348852865 .0003713418985900605 -.001504860523221845 -.002663965932640825 .00069
7793643077164 -.001384046253447152 -.002806214640433105 .001046922019484512 -.00
1143002311948 -.00310956647275574 .001274050588117296 -.000882776924776566 -.003
51546455236641 .001335747361575574 -.000786307183004131 -.00376623918646118 .001
349517011167732 -.000762432840694166 -.00399799802604985 .001323933500490532 -.0
00806039754775772 -.00422589708790399 .001213336266453656 -.000964528436339932 -
.00455376357916563 .000900742920499769 -.0012614127758865 -.00496745495644371 .0
00550943253225273 -.001448779324716346 -.00519435092299039 .0002033386197960705
 -.001536604505297125 -.00529648794232561 -.000170831980463426 -.001540557183116
21 -.00530103700107458 -.000496760026632881 -.00146824026505872 -.00521716998518
073 -.000796730092319956 -.001329556753204554 -.00505171555517745 -.001133178923
871936 -.001057546938198224 -.00469565056784201 -.001301845948381144 -.000841247
363552243 -.00431923669623857 -.001345180032491452 -.000770058880986575 -.004075
86601394837 -.00134213425243553 -.000775355175671399 -.00381637079869738 -.00128
2534573977898 -.0008704051163404 -.003540457187584475 -.001071589552431254 -.001
119908849469558 -.00314079506004055 -.000710245378063001 -.001377697899737152 -.
0028138251072095 -.0003634359927106975 -.001506789394441835 -.002661730020461765
 526398651647276e-34 -.00155 -.002611889348852865 41 1 556 H?0 -.00155 -.0026118
89348852865 204 96 557 4 4.71238898038469 .254205731786479 0 .00355 4.9543174905
9805 .254153655202691 .278660505998545 .003595139476778155 5.17936647085063 .254
0114064948985 .543207193073025 .003715953746552845 5.45394146676409 .25370805466
2576 .887503170118687 .003956997688052 5.67724710406535 .2533021565829655 1.2337
6697277623 .004217223075223435 5.75114235712001 .2530513819488705 1.425358097582
362 .00431369281699587 5.76892363296924 .252819623109282 1.597546685319235 .0043
37567159305835 5.73630432898425 .2525917240474275 1.767626083540675 .00429396024
522423 5.61153790854383 .252263857556166 2.024642246237125 .00413547156366007 5.
33249871151074 .251850166178888 2.41112643302223 .0038385872241135 5.07578151264
781 .2516232702123415 2.721214059943085 .003651220675283655 4.84395441284379 .25
1521133193006 2.99039604228843 .00356339549470287 4.60195043920764 .251516584134
257 3.268475036923515 .00355944281688379 4.386141893796775 .251600451150151 3.51
841797139058 .00363175973494128 4.172524891921425 .251765905580154 3.77286260561
2905 .003770443246795445 3.8924808126992 .2521219705674895 4.13775591082294 .004
042453061801775 3.715288906823355 .252498384439093 4.4444943647959 .004258752636
447755 3.66151434806214 .2527417551213835 4.62786119927278 .004329941119013425 3
.66545604394564 .2530012503366345 4.82039033650971 .0043246448243286 3.737852546
7087 .253277163947747 5.02986738066615 .0042295948836596 3.949035765476715 .2536
76826075291 5.36620264203233 .00398009115053044 4.236394253039725 .2540037960281
22 5.72916819683532 .003722302100262845 4.475710673837235 .25415589111487 6.0106
1073627591 .003593210605558165 4.71238898038469 .254205731786479 389924927146130
5e-32 .00355 14 466 1543 565 ?459 566 567 6 554 +0 0 459 566 30 50 563 1439 0 56
8 554 569 0 +.00145 -.0017 -.0396 0 -1 0 0 0 -1 141 564 550 564 564 554 14 568 1
410 570 ?244 260 571 6 563 +260 260 244 260 30 51 569 1438 0 244 563 572 0 -0 -.
0051 -.0396 0 1 0 .00145 0 0 1 14 244 1414 573 ?574 568 239 6 569 +0 0 574 568 3
0 50 572 1437 0 574 569 575 0 +.0023 -.0025 -.0396 0 -1 0 0 0 -1 14 574 1419 576
 ?566 244 577 6 572 +0 0 566 244 30 51 575 1436 0 566 572 578 0 -0 -.0051 -.0396
 0 1 0 .0023 0 0 1 14 566 1424 579 ?466 574 580 6 575 +0 0 466 574 30 51 578 115
6 0 266 575 581 0 +-1084202172485534e-34 1084202172485504e-34 -.035598 0 0 -1 .0
022 -1 0 0 14 266 1144 582 ?260 583 50 6 578 -0 0 260 583 30 50 581 1155 0 547 5
78 584 0 +0 -.0017 -.035598 0 1 0 0 0 1 14 547 1344 585 ?272 17 289 6 581 +272 2
72 272 17 30 50 584 1154 0 583 581 586 0 +1734723475976805e-33 0 -.0356 0 0 -1 1
 0 0 14 583 1136 587 ?266 588 589 6 584 +0 0 266 588 30 50 586 821 0 588 584 590
 0 +1734723475976805e-33 0 -.0356 0 0 -1 1 0 0 14 588 796 591 ?583 592 593 6 586
 -0 0 583 592 30 50 590 813 0 592 586 594 0 +0 .0051 -.0356 0 -1 0 0 0 -1 14 592
 788 595 ?588 596 597 6 590 -0 0 588 596 30 50 594 812 0 596 590 598 0 +-.004416
729559300635 .00255 -.0356 .866025403784439 -.5 0 .5 .866025403784439 0 14 596 7
84 599 ?592 600 601 6 594 -0 0 592 600 30 50 598 811 0 600 594 602 0 +-.00441672
9559300635 -.00255 -.0356 .866025403784439 .5 0 -.5 .866025403784439 0 14 600 78
0 603 ?596 604 605 6 598 -0 0 596 604 30 50 602 810 0 604 598 606 0 +-4336808689
94202e-33 -.0051 -.0356 0 1 0 0 0 1 14 604 776 607 ?600 608 297 6 602 -0 0 600 6
08 30 50 606 809 0 608 602 549 0 +.004416729559300635 -.00255 -.0356 -.866025403
784439 .5 0 -.5 -.866025403784439 0 14 608 772 609 ?604 610 611 6 606 -0 0 604 6
10 30 50 549 808 0 610 606 544 0 +.00441672955930064 .00255 -.0356 -.86602540378
4439 -.5 0 .5 -.866025403784439 0 14 610 768 612 ?608 539 613 6 549 -0 0 608 539
 30 81 1 612 2234 614 610 615 0 616 609 617 14 539 378 616 ?610 535 618 6 544 -0
 0 610 535 30 15 613 771 0 619 610 0 13 30 195 0 0 0 0 0 0 10 17 17 619 0 613 12
5 620 114 217 621 0 622 +17 125 0 613 201 619 122 622 623 0 624 +17 620 0 613 61
9 201 214 625 626 0 0 -17 217 0 611 627 117 214 619 621 0 628 -16 621 609 629 ?6
19 630 631 632 0 0 1 17 622 0 467 323 633 114 125 623 0 314 -15 467 1691 0 633 4
59 0 17 323 0 467 634 622 146 314 307 0 322 -17 633 0 467 622 634 122 324 315 0
 635 -16 623 1656 318 ?125 636 637 638 0 0 1 81 1 318 1841 38 623 0 0 313 639 64
0 16 636 1665 641 ?117 333 623 642 0 0 1 16 637 1647 643 ?165 623 644 645 0 0 1
 30 638 1658 0 623 645 642 0 +.00441672955930064 .00255 -.0428 -.5 .866025403784
439 0 30 645 1649 0 637 646 638 0 --.00317542648054294 .0047 -.0356 .86602540378
4439 .5 0 30 642 1667 0 636 638 647 0 +.004416729559300635 -.00255 -.0428 .5 .86
6025403784439 0 30 647 1672 0 333 642 648 0 +-433680868994202e-33 -.0051 -.0428
 1 0 0 16 333 1670 649 ?113 329 636 647 0 0 1 30 648 1769 0 398 647 650 0 --.005
04769092491501 216840434497101e-32 -.04352857142857145 .755928946018453 -1145277
65075433e-29 -.654653670707978 16 398 1730 651 ?169 652 395 648 0 0 1 30 650 176
8 0 652 648 653 0 +-.00248260615751539 .0043 -.0436 .612372435695794 -.353553390
5932735 -.707106781186549 16 652 1728 654 ?141 655 398 650 0 0 1 30 653 1767 0 6
55 650 656 0 --.00252384546245751 -.004371428571428575 -.04352857142857145 .3779
64473009226 .654653670707977 -.654653670707978 16 655 1725 657 ?658 659 652 653
 0 0 1 30 656 1766 0 659 653 660 0 --.002829016319029165 .0049 -.0428 -.86602540
3784439 -.5 -277555756156289e-31 16 659 1723 661 ?662 663 655 656 0 0 1 30 660 1
765 0 663 656 328 0 --.00248260615751539 .0043 -.0436 277555756156289e-31 .70710
6781186547 .707106781186548 16 663 1722 664 ?665 325 659 660 0 0 1 30 328 1764 0
 325 660 326 0 +.002523845462457505 -.004371428571428575 -.04352857142857145 .37
7964473009226 -.654653670707977 .654653670707978 16 325 1720 666 ?667 315 663 32
8 0 0 1 81 1 666 1851 38 325 0 0 668 669 670 17 667 0 494 671 672 110 673 325 0
 0 +15 494 1699 0 667 486 0 17 671 0 494 674 667 130 113 333 0 658 -17 672 0 494
 667 674 154 153 675 0 0 -17 673 0 320 322 321 154 667 325 0 672 -15 320 1693 0
 314 465 0 17 322 0 320 314 673 146 157 676 0 0 -17 321 0 320 673 314 110 117 63
6 0 667 -17 117 0 611 217 677 114 321 636 0 619 +15 611 775 0 677 608 0 17 677 0
 611 117 627 110 213 631 0 321 +17 627 0 611 677 217 210 628 678 0 679 -17 213 0
 680 681 113 210 677 631 0 627 -16 631 615 682 ?677 621 683 684 0 0 1 81 1 682 1
860 38 631 0 0 685 686 687 16 683 621 685 ?688 631 689 690 0 0 1 30 684 823 0 63
1 690 632 0 +.00294448637286709 -.0051 -.0356 0 0 -1 30 690 824 0 683 691 684 0
 +-.00294448637286709 -.0051 -.0356 0 0 -1 30 632 822 0 621 684 692 0 +.00588897
274573418 -1734723475976805e-33 -.0356 0 0 -1 31 692 397 0 693 632 694 0 +0 9491
01269339199e-34 0 0 0 1 1 0 0 .00155 16 693 370 695 ?696 697 630 692 0 0 1 31 69
4 396 0 630 692 698 0 -0 949101269339199e-34 -.0188 0 0 -1 -1 0 0 .00155 16 630
 375 699 ?700 693 621 694 0 0 1 30 698 189 0 697 694 701 0 +.00404145188432738 -
867361737988404e-33 -.0436 0 0 1 16 697 165 702 ?703 704 693 698 0 0 1 30 701 19
0 0 704 698 705 0 +.00202072594216369 -.0035 -.0436 0 0 1 16 704 166 706 ?707 70
8 697 701 0 0 1 30 705 191 0 708 701 709 0 +-.00202072594216369 -.0035 -.0436 0
 0 1 16 708 167 710 ?711 712 704 705 0 0 1 30 709 192 0 712 705 561 0 +-.0040414
5188432738 1084202172485504e-33 -.0436 0 0 1 16 712 168 713 ?714 715 708 709 0 0
 1 30 561 193 0 715 709 552 0 +-.00202072594216369 .0035 -.0436 0 0 1 16 715 169
 716 ?717 560 712 561 0 0 1 81 1 716 2188 38 715 0 0 718 713 719 17 717 0 521 69
 720 62 721 715 0 722 +16 560 170 718 ?723 551 715 552 0 0 1 81 1 718 2187 38 56
0 0 0 370 716 724 17 723 0 517 73 725 66 726 560 0 727 +15 517 181 0 723 512 0 1
7 73 0 517 728 723 70 727 359 0 703 +17 725 0 517 723 728 194 177 729 0 726 +17
 726 0 521 720 69 194 723 560 0 0 -17 727 0 424 730 731 66 73 359 0 397 -15 424
 2013 0 731 414 0 17 730 0 424 732 727 98 397 395 0 733 -17 731 0 424 727 732 70
 394 391 0 734 -17 397 0 431 722 733 66 730 395 0 0 +15 431 2015 0 397 422 0 17
 722 0 431 735 397 62 69 362 0 390 -17 733 0 431 397 735 98 109 332 0 0 -17 735
 0 431 733 722 106 390 387 0 736 -17 109 0 540 105 101 106 733 332 0 735 +15 540
 1888 0 105 535 737 17 105 0 540 348 109 102 736 329 0 738 +17 101 0 540 109 97
 98 732 336 0 730 +17 97 0 540 101 93 94 739 339 0 732 +17 732 0 424 731 730 94
 101 336 0 394 -17 394 0 438 739 734 94 731 391 0 0 +15 438 2017 0 394 430 0 17
 739 0 438 740 394 90 97 339 0 386 -17 734 0 438 394 740 70 77 356 0 0 -17 740 0
 438 734 739 74 386 383 0 741 -17 77 0 536 742 703 74 734 356 0 707 +15 536 171
 0 703 532 0 17 742 0 536 743 77 178 707 704 0 0 -17 703 0 536 77 743 70 728 697
 0 731 +17 707 0 744 81 745 74 742 704 0 740 +15 744 173 0 707 528 0 17 81 0 744
 746 707 78 741 353 0 711 +17 745 0 744 707 746 178 185 747 0 742 +17 746 0 744
 745 81 182 711 708 0 0 -17 185 0 748 189 181 182 745 747 0 749 -16 747 642 750
 ?745 751 752 753 0 0 1 81 1 750 928 38 747 0 0 754 755 756 16 751 639 757 ?624
 689 747 758 0 0 1 16 752 596 754 ?749 747 759 760 0 0 1 30 753 846 0 747 760 75
8 0 +-867361737988404e-33 -.0035 -.0356 1 0 0 30 760 847 0 752 761 753 0 +-.0030
31088913245535 -.00175 -.0356 .5 -.866025403784439 0 30 758 827 0 751 753 691 0
 +.00294448637286709 .0051 -.0356 0 0 -1 30 691 825 0 689 758 690 0 +-.005888972
74573418 477048955893622e-32 -.0356 0 0 -1 16 689 627 762 ?763 683 751 691 0 0 1
 81 1 762 1858 38 689 0 0 757 685 764 17 763 0 605 133 765 166 766 689 0 0 +15 6
05 783 0 763 600 0 17 133 0 605 209 763 130 767 768 0 688 +17 765 0 605 763 209
 202 769 770 0 0 -17 766 0 601 771 772 202 763 689 0 765 -15 601 787 0 161 596 0
 17 771 0 601 161 766 162 205 773 0 774 -17 772 0 601 766 161 166 775 776 0 763
 +17 161 0 601 772 771 158 774 559 0 777 +17 775 0 511 141 169 158 772 776 0 0 -
16 776 1588 778 ?772 675 559 562 0 0 1 81 1 778 1846 38 776 0 0 651 779 780 16 6
75 1597 669 ?153 676 776 781 0 0 1 16 559 1585 782 ?161 776 551 553 0 0 1 30 562
 1590 0 776 553 781 0 +-.004416729559300635 .00255 -.0428 -.5 -.866025403784439
 0 30 781 1599 0 675 562 783 0 +867361737988404e-33 -.0043 -.0436 -1 0 0 30 783
 1603 0 676 781 784 0 +.003723909236273085 -.00215 -.0436 -.5 -.866025403784439
 0 16 676 1601 785 ?157 786 675 783 0 0 1 30 784 1607 0 786 783 787 0 +.00372390
9236273085 .00215 -.0436 .5 -.866025403784439 0 16 786 1605 639 ?149 788 676 784
 0 0 1 30 787 1611 0 788 784 789 0 +867361737988404e-33 .0043 -.0436 1 0 0 16 78
8 1609 790 ?145 791 786 787 0 0 1 30 789 1615 0 791 787 792 0 +-.003723909236273
085 -.00215 -.0436 -.5 .866025403784439 0 16 791 1613 668 ?137 793 788 789 0 0 1
 30 792 1618 0 793 789 794 0 +-.003723909236273085 .00215 -.0436 .5 .86602540378
4439 0 16 793 1616 779 ?795 768 791 792 0 0 1 30 794 1627 0 768 792 796 0 +-.004
416729559300635 -.00255 -.0428 .5 -.866025403784439 0 16 768 1625 797 ?133 798 7
93 794 0 0 1 30 796 1641 0 798 794 646 0 +0 .0051 -.0428 -1 0 0 16 798 1639 799
 ?121 644 768 796 0 0 1 30 646 1644 0 644 796 645 0 +-.00248260615751539 .0051 -
.0356 0 0 1 16 644 1642 800 ?129 637 798 646 0 0 1 81 1 800 1837 38 644 0 0 643
 782 801 17 129 0 597 802 121 126 803 644 0 804 +15 597 791 0 121 592 0 17 802 0
 597 624 129 198 804 805 0 625 -17 121 0 597 129 624 118 635 798 0 803 +17 803 0
 487 777 806 118 129 644 0 807 -17 804 0 593 165 625 126 802 805 0 806 +15 593 7
99 0 804 588 748 17 165 0 593 205 804 162 806 637 0 771 +17 625 0 593 804 628 19
8 620 626 0 0 +16 805 655 686 ?804 808 773 809 0 0 1 17 806 0 487 803 774 126 16
5 637 0 0 -15 487 1697 0 806 479 0 17 774 0 487 806 777 162 161 559 0 0 -17 777
 0 487 774 803 158 662 659 0 810 -17 662 0 501 665 810 118 777 659 0 0 +17 810 0
 501 662 665 158 141 652 0 775 -15 501 1701 0 662 493 0 17 665 0 501 810 662 138
 807 663 0 811 +17 141 0 511 812 775 138 810 652 0 665 +15 511 1705 0 141 423 0
 17 812 0 511 169 141 134 795 793 0 813 -17 169 0 511 775 812 166 813 398 0 767
 +17 795 0 814 145 137 138 812 793 0 0 +17 813 0 506 815 767 134 169 398 0 0 -15
 506 1703 0 658 500 0 17 815 0 506 658 813 150 137 791 0 0 -17 767 0 506 813 658
 166 133 768 0 772 -17 658 0 506 767 815 130 674 655 0 0 +17 674 0 494 672 671 1
50 658 655 0 815 -17 137 0 814 795 153 134 815 791 0 812 +15 814 1594 0 137 516
 0 17 153 0 814 137 157 150 672 675 0 674 +17 157 0 814 153 149 154 322 676 0 67
3 +17 149 0 814 157 145 146 634 786 0 323 +17 145 0 814 149 795 142 811 788 0 63
4 +17 634 0 467 633 323 142 149 786 0 324 -17 324 0 480 811 635 142 633 315 0 0
 +15 480 1695 0 324 473 0 17 811 0 480 807 324 138 145 788 0 795 -17 635 0 480 3
24 807 122 121 798 0 0 -17 807 0 480 635 811 118 665 663 0 662 -81 1 686 1861 38
 805 0 0 682 816 817 16 808 556 755 ?743 729 805 818 0 0 1 16 773 1581 816 ?205
 805 770 819 0 0 1 30 809 852 0 805 819 818 0 +0 .0051 -.0356 -1 0 0 30 819 853
 0 773 820 809 0 +-.004416729559300635 .00255 -.0356 -.5 -.866025403784439 0 30
 818 851 0 808 809 821 0 +.003031088913245535 -.00175 -.0356 .5 .866025403784439
 0 30 821 850 0 729 818 822 0 +.003031088913245535 .00175 -.0356 -.5 .8660254037
84439 0 16 729 566 823 ?725 824 808 821 0 0 1 30 822 849 0 824 821 761 0 +433680
868994202e-33 .0035 -.0356 -1 0 0 16 824 576 825 ?720 759 729 822 0 0 1 30 761 8
48 0 759 822 760 0 +-.003031088913245535 .00175 -.0356 -.5 -.866025403784439 0 1
6 759 586 826 ?827 752 824 761 0 0 1 81 1 826 926 38 759 0 0 825 754 828 17 827
 0 525 714 721 186 193 759 0 829 +15 525 177 0 714 520 0 17 714 0 525 65 827 82
 829 712 0 0 +17 721 0 525 827 65 190 717 715 0 0 -17 193 0 748 197 189 190 827
 759 0 720 -17 829 0 529 749 352 186 714 712 0 0 -15 529 175 0 711 524 0 17 749
 0 529 711 829 182 189 752 0 746 +17 352 0 529 829 711 82 830 349 0 714 +17 711
 0 529 352 749 78 746 708 0 830 +17 830 0 457 89 85 78 352 349 0 831 -15 457 202
3 0 85 451 0 17 89 0 457 832 830 86 831 377 0 833 +17 85 0 457 830 832 82 738 38
0 0 834 +17 831 0 452 741 833 78 89 377 0 0 -15 452 2021 0 386 444 0 17 741 0 45
2 386 831 74 81 353 0 0 -17 833 0 452 831 386 86 93 342 0 348 -17 386 0 452 833
 741 90 740 383 0 0 +17 93 0 540 97 348 90 833 342 0 739 +17 348 0 540 93 105 86
 832 345 0 0 +17 832 0 457 85 89 102 348 345 0 0 -17 738 0 445 736 834 102 85 38
0 0 832 -17 834 0 445 738 390 82 65 365 0 352 -15 445 2019 0 390 437 0 17 390 0
 445 834 736 62 735 387 0 0 +17 65 0 525 721 714 62 834 365 0 717 +17 736 0 445
 390 738 106 105 329 0 0 -17 189 0 748 193 185 186 749 752 0 827 -15 748 800 0 1
81 588 0 17 181 0 748 185 177 178 743 808 0 745 -17 177 0 748 181 197 174 725 72
9 0 743 -17 743 0 536 703 742 174 181 808 0 728 +17 728 0 517 725 73 174 703 697
 0 0 -17 197 0 748 177 193 194 720 824 0 725 -17 720 0 521 717 726 190 197 824 0
 721 +15 521 179 0 717 515 0 80 1 38 835 836 9000 0 0 0 0 3 6 0 0 0 FFTFTFTTFFFF
FFFF1 81 1 825 925 38 824 0 0 176 826 837 81 1 754 927 38 752 0 0 826 750 838 82
 3 828 26 1 1 82 3 838 26 2 1 81 1 176 924 38 174 0 0 180 825 839 82 3 837 26 0
 1 81 1 180 923 38 178 0 0 184 176 840 82 3 839 26 5 0 81 1 184 922 38 182 0 0 1
88 180 841 82 3 840 26 4 0 81 1 188 921 38 186 0 0 192 184 842 82 3 841 26 3 0 8
1 1 192 920 38 190 0 0 196 188 843 82 3 842 26 2 0 81 1 196 919 38 194 0 0 844 1
92 845 82 3 843 26 1 0 81 1 844 918 38 1 0 846 204 196 847 82 3 845 26 0 0 81 1
 846 2219 848 1 844 14 0 0 849 81 1 204 737 38 202 0 0 208 844 850 82 3 847 16 0
 3 81 1 208 733 38 206 0 0 212 204 851 82 3 850 25 19 0 81 1 212 729 38 210 0 0
 216 208 852 82 3 851 25 21 0 81 1 216 725 38 214 0 0 200 212 853 82 3 852 25 23
 0 81 1 200 721 38 198 0 0 854 216 855 82 3 853 25 13 0 81 1 854 669 38 678 0 0
 856 200 857 82 3 855 25 15 0 16 678 667 854 ?628 858 626 859 0 0 1 81 1 856 666
 38 858 0 0 860 854 861 82 3 857 25 35 1 16 858 664 856 ?679 770 678 862 0 0 1 8
1 1 860 663 38 770 0 0 863 856 864 82 3 861 25 33 1 16 770 661 860 ?769 773 858
 820 0 0 1 81 1 863 654 38 626 0 0 865 860 866 82 3 864 25 31 1 16 626 652 863 ?
625 678 867 868 0 0 1 81 1 865 401 38 539 0 616 699 863 869 82 3 866 25 25 1 81
 1 616 2233 614 539 865 0 538 612 870 81 1 699 399 38 630 0 0 695 865 871 82 3 8
69 22 1 2 81 1 695 398 38 693 0 0 0 699 872 82 3 871 22 1 1 82 3 872 22 0 1 80 1
 614 0 873 8001 0 0 0 0 3 5 0 0 0 FFFFTFTFFFFFFFFF2 81 1 538 2232 614 535 874 0
 534 616 875 83 3 870 .615686274509804 .811764705882353 .929411764705882 81 1 87
4 2203 38 535 0 538 876 877 878 81 1 534 2231 614 532 879 0 531 538 880 83 3 875
 .615686274509804 .811764705882353 .929411764705882 81 1 879 2207 38 532 0 534 8
81 882 883 81 1 531 2230 614 528 884 0 527 534 885 83 3 880 .615686274509804 .81
1764705882353 .929411764705882 81 1 884 2211 38 528 0 531 886 39 887 81 1 527 22
29 614 524 881 0 523 531 888 83 3 885 .615686274509804 .811764705882353 .9294117
64705882 81 1 881 2206 38 524 0 527 889 879 890 81 1 523 2228 614 520 889 0 519
 527 891 83 3 888 .615686274509804 .811764705882353 .929411764705882 81 1 889 22
05 38 520 0 523 877 881 892 81 1 519 2227 614 515 877 0 514 523 893 83 3 891 .61
5686274509804 .811764705882353 .929411764705882 81 1 877 2204 38 515 0 519 874 8
89 894 81 1 514 2226 614 512 882 0 542 519 895 83 3 893 .615686274509804 .811764
705882353 .929411764705882 81 1 882 2208 38 512 0 514 879 896 897 81 1 542 2225
 614 516 39 0 898 514 899 83 3 895 .615686274509804 .811764705882353 .9294117647
05882 81 1 39 2212 38 516 0 542 884 35 900 81 1 898 2224 614 272 278 0 585 542 9
01 83 3 899 .615686274509804 .811764705882353 .929411764705882 14 272 1140 898 ?
516 547 251 6 581 +547 547 516 547 30 81 1 278 1462 38 272 0 898 275 228 902 81
 1 585 2223 614 547 886 0 546 898 903 83 3 901 .615686274509804 .811764705882353
 .929411764705882 81 1 886 2210 38 547 0 585 896 884 904 81 1 546 2222 614 17 30
9 0 0 585 905 83 3 903 .615686274509804 .811764705882353 .929411764705882 81 1 3
09 1566 38 17 0 546 305 906 907 83 3 905 .615686274509804 .811764705882353 .9294
11764705882 81 1 906 1568 38 466 0 565 309 120 908 82 3 907 379 0 2 81 1 565 224
8 614 466 906 0 579 464 909 81 1 120 1818 38 118 0 0 906 160 910 82 3 908 379 4
 2 81 1 160 1819 38 158 0 0 120 140 911 82 3 910 380 0 0 81 1 140 1820 38 138 0
 0 160 128 912 82 3 911 380 1 0 81 1 128 1821 38 126 0 0 140 164 913 82 3 912 38
0 2 0 81 1 164 1822 38 162 0 0 128 124 914 82 3 913 380 3 0 81 1 124 1823 38 122
 0 0 164 144 915 82 3 914 380 4 0 81 1 144 1824 38 142 0 0 124 116 916 82 3 915
 380 5 0 81 1 116 1825 38 114 0 0 144 148 917 82 3 916 380 6 0 81 1 148 1826 38
 146 0 0 116 168 918 82 3 917 380 7 0 81 1 168 1827 38 166 0 0 148 136 919 82 3
 918 380 8 0 81 1 136 1828 38 134 0 0 168 132 920 82 3 919 380 9 0 81 1 132 1829
 38 130 0 0 136 152 921 82 3 920 380 10 0 81 1 152 1830 38 150 0 0 132 112 922 8
2 3 921 380 11 0 81 1 112 1831 38 110 0 0 152 156 923 82 3 922 380 12 0 81 1 156
 1832 38 154 0 0 112 661 924 82 3 923 380 13 0 81 1 661 1833 38 659 0 0 156 664
 925 82 3 924 380 14 0 81 1 664 1834 38 663 0 0 661 654 926 82 3 925 380 0 1 81
 1 654 1835 38 652 0 0 664 643 927 82 3 926 380 1 1 81 1 643 1836 38 637 0 0 654
 800 928 82 3 927 380 2 1 82 3 928 380 3 1 81 1 579 2247 614 566 929 0 576 565 9
30 81 1 464 2249 614 459 931 0 565 472 932 83 3 909 .615686274509804 .8117647058
82353 .929411764705882 81 1 931 1865 38 459 0 464 933 934 935 81 1 472 2250 614
 465 936 0 464 478 937 83 3 932 .615686274509804 .811764705882353 .9294117647058
82 81 1 936 1870 38 465 0 472 938 939 940 81 1 478 2251 614 473 934 0 472 485 94
1 83 3 937 .615686274509804 .811764705882353 .929411764705882 81 1 934 1866 38 4
73 0 478 931 942 943 81 1 485 2252 614 479 933 0 478 492 944 83 3 941 .615686274
509804 .811764705882353 .929411764705882 81 1 933 1864 38 479 0 485 945 931 946
 81 1 492 2253 614 486 938 0 485 499 947 83 3 944 .615686274509804 .811764705882
353 .929411764705882 81 1 938 1869 38 486 0 492 948 936 949 81 1 499 2254 614 49
3 945 0 492 505 950 83 3 947 .615686274509804 .811764705882353 .929411764705882
 81 1 945 1863 38 493 0 499 816 933 951 81 1 505 2255 614 500 948 0 499 510 952
 83 3 950 .615686274509804 .811764705882353 .929411764705882 81 1 948 1868 38 50
0 0 505 942 938 953 81 1 510 2256 614 423 942 0 505 421 954 83 3 952 .6156862745
09804 .811764705882353 .929411764705882 81 1 942 1867 38 423 0 510 934 948 955 8
1 1 421 2257 614 414 956 0 510 429 957 83 3 954 .615686274509804 .81176470588235
3 .929411764705882 81 1 956 2200 38 414 0 421 958 959 960 81 1 429 2258 614 422
 287 0 421 436 961 83 3 957 .615686274509804 .811764705882353 .929411764705882 8
1 1 287 2195 38 422 0 429 285 962 963 81 1 436 2259 614 430 958 0 429 443 964 83
 3 961 .615686274509804 .811764705882353 .929411764705882 81 1 958 2199 38 430 0
 436 965 956 966 81 1 443 2260 614 437 962 0 436 450 967 83 3 964 .6156862745098
04 .811764705882353 .929411764705882 81 1 962 2196 38 437 0 443 287 968 969 81 1
 450 2261 614 444 965 0 443 456 970 83 3 967 .615686274509804 .811764705882353 .
929411764705882 81 1 965 2198 38 444 0 450 968 958 971 81 1 456 2262 614 451 968
 0 450 972 973 83 3 970 .615686274509804 .811764705882353 .929411764705882 81 1
 968 2197 38 451 0 456 962 965 974 81 1 972 2263 614 20 876 0 456 412 975 83 3 9
73 .615686274509804 .811764705882353 .929411764705882 14 20 2093 972 ?406 451 97
6 6 7 +0 0 406 451 30 81 1 876 2202 38 20 0 972 959 874 977 81 1 412 2264 614 40
6 959 0 972 0 978 83 3 975 .615686274509804 .811764705882353 .929411764705882 81
 1 959 2201 38 406 0 412 956 876 979 83 3 978 .615686274509804 .811764705882353
 .929411764705882 82 3 979 381 6 2 82 3 977 381 7 2 15 976 2094 0 980 20 0 17 98
0 0 976 46 981 37 61 399 0 0 -17 46 0 976 45 980 12 32 11 0 290 -17 981 0 976 98
0 45 56 55 368 0 374 -17 61 0 42 44 43 56 980 399 0 981 +15 42 2096 0 36 406 0 1
7 44 0 42 36 61 47 374 371 0 0 -17 43 0 42 61 36 37 290 33 0 980 -17 290 0 289 9
82 53 12 43 33 0 52 +15 289 1343 0 53 547 0 17 982 0 289 248 290 226 52 276 0 98
3 -17 52 0 50 32 983 12 982 276 0 0 +17 983 0 50 52 254 226 250 281 0 0 +17 254
 0 50 983 267 170 252 283 0 0 +17 250 0 571 229 229 170 983 281 0 241 -16 281 13
18 984 ?983 283 276 282 283 276 1 81 1 984 1469 38 281 0 0 255 270 985 16 283 11
12 277 ?254 273 281 282 276 281 1 30 282 1160 0 283 271 986 0 +-.001396424004376
894 -.0017 -.035598 0 0 -1 31 986 1159 0 867 282 987 0 --1084202172485534e-34 10
84202172485504e-34 -.0356 0 0 -1 -1 0 0 .0022 16 867 1106 988 ?267 626 273 986 0
 0 1 30 987 1158 0 273 986 868 0 +0 -.0017 -.0356 -1 0 0 16 273 1109 989 ?221 86
7 283 987 0 0 1 30 868 857 0 626 987 859 0 +.00441672955930064 .00255 -.0356 -.5
 .866025403784439 0 30 859 856 0 678 868 862 0 +.004416729559300635 -.00255 -.03
56 .5 .866025403784439 0 30 862 855 0 858 859 820 0 +-433680868994202e-33 -.0051
 -.0356 1 0 0 30 820 854 0 770 862 819 0 +-.004416729559300635 -.00255 -.0356 .5
 -.866025403784439 0 81 1 989 1178 38 273 0 0 224 988 990 17 221 0 589 274 274 2
18 225 273 0 267 +15 589 1139 0 274 583 0 17 274 0 589 221 221 222 267 867 0 265
 -17 267 0 50 254 265 218 274 867 0 252 +17 252 0 251 225 241 218 254 283 0 0 -8
1 1 224 1173 38 222 0 0 220 989 991 81 1 988 1179 38 867 0 0 989 294 992 82 3 99
0 30 4 1 81 1 294 1181 38 583 0 587 988 291 993 82 3 992 30 5 1 81 1 587 2241 61
4 583 294 0 591 582 994 82 3 993 30 1 2 81 1 591 2240 614 588 939 0 595 587 995
 81 1 582 2242 614 266 896 0 587 996 997 83 3 994 .615686274509804 .811764705882
353 .929411764705882 81 1 896 2209 38 266 0 582 882 886 998 81 1 996 2243 614 26
0 999 0 582 570 1000 83 3 997 .615686274509804 .811764705882353 .929411764705882
 14 260 1402 996 ?568 266 258 6 563 +568 568 568 266 30 81 1 999 1474 38 260 0 9
96 1001 308 1002 81 1 570 2244 614 568 1001 0 996 573 1003 83 3 1000 .6156862745
09804 .811764705882353 .929411764705882 81 1 1001 1473 38 568 0 570 262 999 1004
 81 1 573 2245 614 244 1005 0 570 576 1006 83 3 1003 .615686274509804 .811764705
882353 .929411764705882 81 1 1005 1455 38 244 0 573 1007 277 1008 81 1 576 2246
 614 574 1007 0 573 579 1009 83 3 1006 .615686274509804 .811764705882353 .929411
764705882 81 1 1007 1454 38 574 0 576 929 1005 1010 83 3 1009 .615686274509804 .
811764705882353 .929411764705882 81 1 929 1453 38 566 0 579 302 1007 1011 82 3 1
010 377 1 2 81 1 302 1452 38 263 0 0 295 929 1012 82 3 1011 377 0 2 81 1 295 145
1 38 293 0 0 291 302 1013 82 3 1012 377 2 1 82 3 1013 377 1 1 81 1 277 1458 38 2
83 0 0 1005 275 1014 82 3 1008 377 2 2 82 3 1014 377 4 1 81 1 262 1472 38 247 0
 0 1015 1001 1016 82 3 1004 377 6 2 81 1 1015 1471 38 249 0 0 270 262 1017 82 3
 1016 377 12 1 16 249 1381 1015 ?173 264 242 257 264 242 1 81 1 270 1470 38 261
 0 0 984 1015 1018 82 3 1017 377 11 1 82 3 1018 377 10 1 16 264 1376 237 ?246 24
7 249 257 247 249 1 81 1 237 1467 38 264 0 0 235 255 1019 17 246 0 239 173 240 2
26 248 264 0 982 +17 248 0 289 53 982 230 246 264 0 51 -81 1 255 1468 38 242 0 0
 237 984 1020 82 3 1019 377 7 1 82 3 1020 377 8 1 81 1 308 1564 38 551 0 0 999 3
05 1021 82 3 1002 377 7 2 82 3 1021 379 0 1 82 3 998 381 15 2 81 1 939 1871 38 5
88 0 591 936 615 1022 81 1 595 2239 614 592 1023 0 599 591 1024 83 3 995 .615686
274509804 .811764705882353 .929411764705882 81 1 1023 1873 38 592 0 595 615 1025
 1026 81 1 599 2238 614 596 1025 0 603 595 1027 83 3 1024 .615686274509804 .8117
64705882353 .929411764705882 81 1 1025 1874 38 596 0 599 1023 1028 1029 81 1 603
 2237 614 600 1028 0 607 599 1030 83 3 1027 .615686274509804 .811764705882353 .9
29411764705882 81 1 1028 1875 38 600 0 603 1025 1031 1032 81 1 607 2236 614 604
 1033 0 609 603 1034 83 3 1030 .615686274509804 .811764705882353 .92941176470588
2 81 1 1033 1878 38 604 0 607 1031 108 1035 81 1 609 2235 614 608 1031 0 612 607
 1036 83 3 1034 .615686274509804 .811764705882353 .929411764705882 81 1 1031 187
6 38 608 0 609 1028 1033 1037 83 3 1036 .615686274509804 .811764705882353 .92941
1764705882 82 3 1037 380 19 2 81 1 108 2153 38 106 0 0 1033 64 1038 82 3 1035 38
0 27 2 81 1 64 2154 38 62 0 0 108 100 1039 82 3 1038 381 0 0 81 1 100 2155 38 98
 0 0 64 68 1040 82 3 1039 381 1 0 81 1 68 2156 38 66 0 0 100 104 1041 82 3 1040
 381 2 0 81 1 104 2157 38 102 0 0 68 84 1042 82 3 1041 381 3 0 81 1 84 2158 38 8
2 0 0 104 88 1043 82 3 1042 381 4 0 81 1 88 2159 38 86 0 0 84 80 1044 82 3 1043
 381 5 0 81 1 80 2160 38 78 0 0 88 92 1045 82 3 1044 381 6 0 81 1 92 2161 38 90
 0 0 80 76 1046 82 3 1045 381 7 0 81 1 76 2162 38 74 0 0 92 96 1047 82 3 1046 38
1 8 0 81 1 96 2163 38 94 0 0 76 72 1048 82 3 1047 381 9 0 81 1 72 2164 38 70 0 0
 96 389 1049 82 3 1048 381 10 0 81 1 389 2165 38 387 0 0 72 396 1050 82 3 1049 3
81 11 0 81 1 396 2166 38 395 0 0 389 335 1051 82 3 1050 381 0 1 81 1 335 2167 38
 332 0 0 396 364 1052 82 3 1051 381 1 1 81 1 364 2168 38 362 0 0 335 382 1053 82
 3 1052 381 2 1 81 1 382 2169 38 380 0 0 364 331 1054 82 3 1053 381 3 1 81 1 331
 2170 38 329 0 0 382 367 1055 82 3 1054 381 4 1 81 1 367 2171 38 365 0 0 331 379
 1056 82 3 1055 381 5 1 81 1 379 2172 38 377 0 0 367 347 1057 82 3 1056 381 6 1
 81 1 347 2173 38 345 0 0 379 351 1058 82 3 1057 381 7 1 81 1 351 2174 38 349 0
 0 347 385 1059 82 3 1058 381 8 1 81 1 385 2175 38 383 0 0 351 344 1060 82 3 105
9 381 9 1 81 1 344 2176 38 342 0 0 385 355 1061 82 3 1060 381 10 1 81 1 355 2177
 38 353 0 0 344 393 1062 82 3 1061 381 11 1 81 1 393 2178 38 391 0 0 355 341 106
3 82 3 1062 381 12 1 81 1 341 2179 38 339 0 0 393 358 1064 82 3 1063 381 13 1 81
 1 358 2180 38 356 0 0 341 338 1065 82 3 1064 381 14 1 81 1 338 2181 38 336 0 0
 358 361 1066 82 3 1065 381 15 1 81 1 361 2182 38 359 0 0 338 375 1067 82 3 1066
 381 16 1 81 1 375 2183 38 33 0 0 361 373 1068 82 3 1067 381 17 1 81 1 373 2184
 38 371 0 0 375 31 1069 82 3 1068 381 18 1 81 1 31 2185 38 11 0 0 373 370 1070 8
2 3 1069 381 19 1 81 1 370 2186 38 368 0 0 31 718 1071 82 3 1070 381 20 1 82 3 1
071 381 21 1 82 3 1032 380 18 2 82 3 1029 380 17 2 81 1 615 1872 38 610 0 612 93
9 1023 1072 82 3 1026 380 16 2 82 3 1072 380 15 2 82 3 1022 380 14 2 81 1 220 11
71 38 218 0 0 823 224 1073 82 3 991 30 3 0 81 1 823 930 38 729 0 0 755 220 1074
 82 3 1073 30 1 0 81 1 755 929 38 808 0 0 750 823 1075 82 3 1074 26 5 1 82 3 107
5 26 4 1 82 3 985 377 9 1 15 571 1413 0 229 568 0 17 229 0 571 250 250 226 173 2
49 0 246 -17 374 0 543 55 55 56 44 371 0 0 +15 543 1970 0 55 516 814 17 55 0 543
 374 374 47 981 368 0 45 +17 45 0 976 981 46 47 36 23 0 44 -16 23 2102 48 ?36 37
7 399 8 0 0 1 81 1 48 2215 38 23 0 0 40 404 1076 81 1 404 2216 38 399 0 0 48 54
 1077 82 3 1076 381 32 1 81 1 54 2217 38 47 0 0 404 60 1078 82 3 1077 381 33 1 8
1 1 60 2218 38 56 0 0 54 0 1079 82 3 1078 381 14 0 82 3 1079 381 15 0 82 3 974 3
81 2 2 82 3 971 381 3 2 82 3 969 381 1 2 82 3 966 381 4 2 82 3 963 381 0 2 82 3
 960 381 5 2 82 3 955 380 4 2 82 3 953 380 5 2 81 1 816 1862 38 773 0 0 686 945
 1080 82 3 951 380 0 2 82 3 1080 380 47 1 82 3 949 380 6 2 82 3 946 380 1 2 82 3
 943 380 3 2 82 3 940 380 7 2 82 3 935 380 2 2 83 3 930 .615686274509804 .811764
705882353 .929411764705882 82 3 904 381 16 2 81 1 228 1463 38 226 0 0 278 172 10
81 82 3 902 377 5 2 81 1 172 1464 38 170 0 0 228 232 1082 82 3 1081 377 0 0 81 1
 232 1465 38 230 0 0 172 235 1083 82 3 1082 377 1 0 82 3 1083 377 2 0 82 3 900 3
81 19 2 82 3 897 381 14 2 82 3 894 381 10 2 82 3 892 381 11 2 82 3 890 381 12 2
 82 3 887 381 17 2 82 3 883 381 13 2 82 3 878 381 9 2 79 15 873 SDL/TYSA_COLOUR1
7 769 0 593 679 205 206 765 770 0 0 +17 679 0 593 628 769 210 681 858 0 0 +17 20
5 0 593 769 165 202 771 773 0 766 +17 628 0 593 625 679 214 627 678 0 620 +17 68
1 0 680 688 213 206 679 858 0 769 -15 680 779 0 688 604 0 17 688 0 680 113 681 1
30 209 683 0 671 +17 113 0 680 213 688 110 671 333 0 677 +17 209 0 605 765 133 2
06 688 683 0 681 -80 1 848 1084 1085 8038 0 0 0 0 0 0 0 0 0 TTTTTTTTTTTTTFTF10 8
1 1 14 2220 1084 1 846 2 0 0 1086 98 16 849 84 105 108 116 32 100 114 105 118 10
1 32 115 104 97 102 116 80 1 1084 1087 1088 8017 0 0 0 0 0 0 0 0 0 TTTTTTTTTTTTT
FTF3 84 16 1086 Tilt drive shaft79 13 1088 SDL/TYSA_NAME79 14 1085 SDL/TYSA_UNAM
E79 9 836 BTI/DetId82 3 817 380 46 1 17 624 0 597 121 802 122 201 751 0 633 +17
 201 0 613 620 125 198 624 751 0 802 -81 1 782 1838 38 559 0 0 800 317 1089 82 3
 801 380 4 1 81 1 317 1839 38 315 0 0 782 313 1090 82 3 1089 380 5 1 82 3 1090 3
80 6 1 81 1 799 1843 38 798 0 0 639 790 1091 81 1 639 1842 38 786 0 0 318 799 10
92 81 1 790 1844 38 788 0 0 799 651 1093 82 3 1091 380 10 1 81 1 651 1845 38 398
 0 0 790 778 1094 82 3 1093 380 11 1 82 3 1094 380 12 1 82 3 1092 380 9 1 81 1 7
97 1849 38 768 0 0 657 668 1095 81 1 657 1848 38 655 0 0 779 797 1096 81 1 668 1
850 38 791 0 0 797 666 1097 82 3 1095 380 16 1 82 3 1097 380 17 1 81 1 779 1847
 38 793 0 0 778 657 1098 82 3 1096 380 15 1 82 3 1098 380 14 1 81 1 785 1855 38
 676 0 0 641 629 1099 81 1 641 1854 38 636 0 0 649 785 1100 81 1 629 1856 38 621
 0 0 785 757 1101 82 3 1099 380 22 1 81 1 757 1857 38 751 0 0 629 762 1102 82 3
 1101 380 41 1 82 3 1102 380 42 1 81 1 649 1853 38 333 0 0 669 641 1103 82 3 110
0 380 21 1 81 1 669 1852 38 675 0 0 666 649 1104 82 3 1103 380 20 1 82 3 1104 38
0 19 1 82 3 780 380 13 1 81 1 685 1859 38 683 0 0 762 682 1105 82 3 764 380 43 1
 82 3 1105 380 44 1 82 3 756 26 3 1 15 737 362 0 1106 535 0 17 1106 0 737 1106 1
106 0 696 693 0 0 -17 696 0 1107 696 696 0 1106 693 0 0 +15 1107 389 0 696 17 11
08 15 1108 1485 0 1109 17 0 17 1109 0 1108 1109 1109 0 558 551 0 0 -17 558 0 111
0 558 558 0 1109 551 0 0 +15 1110 1533 0 558 466 0 17 69 0 521 726 717 66 722 36
2 0 723 +82 3 724 381 24 1 81 1 713 2189 38 712 0 0 716 710 1111 82 3 719 381 25
 1 81 1 710 2190 38 708 0 0 713 706 1112 82 3 1111 381 26 1 81 1 706 2191 38 704
 0 0 710 702 1113 82 3 1112 381 27 1 81 1 702 2192 38 697 0 0 706 280 1114 82 3
 1113 381 28 1 81 1 280 2193 38 276 0 0 702 285 1115 82 3 1114 381 29 1 82 3 111
5 381 30 1 17 700 0 618 700 700 0 1116 630 0 0 +15 618 381 0 700 539 0 17 1116 0
 548 1116 1116 0 700 630 0 0 -15 548 390 0 1116 17 1107 82 3 687 380 45 1 82 3 6
70 380 18 1 82 3 640 380 8 1 83 3 617 .615686274509804 .811764705882353 .9294117
64705882 15 297 1349 0 292 604 680 15 580 1427 0 299 566 1117 17 299 0 580 299 2
99 0 1118 293 0 0 +15 1117 1428 0 298 566 0 17 298 0 1117 298 298 0 292 286 0 0
 -17 1118 0 1119 1118 1118 0 299 293 0 0 -15 1119 1423 0 1118 574 0 15 577 1422
 0 303 574 1119 17 303 0 577 303 303 0 1120 263 0 0 +17 1120 0 245 1120 1120 0 3
03 263 0 0 -15 245 1418 0 1120 244 0 15 567 1532 0 312 466 1110 17 312 0 567 312
 312 0 306 256 0 0 -15 311 1490 0 306 528 744 80 2 409 1121 1122 8044 0 0 0 0 3
 5 0 0 0 FFFFTFFFTTFFFFFF3 2 84 6 508 BAAAAB83 3 509 28421709430404e-27 .0011313
70849880202 8e-4 79 17 1122 SDL/TYSA_BLEND_ID84 6 503 BAAAAB83 3 504 28421709430
404e-27 .001131370849880202 8e-4 84 6 497 IAAAIB83 1 498 8e-4 84 6 490 BAAAAB83
 3 491 0 .001131370849898478 8e-4 84 6 483 BAAAAB83 3 484 0 8e-4 8e-4 84 6 476 B
AAAAB83 3 477 0 .001131370849898478 8e-4 84 6 470 BAAAAB83 3 471 0 .001131370849
908624 8e-4 84 6 462 BAAAAB83 3 463 0 .001131370849880202 8e-4 81 2 19 2110 409
 7 0 0 447 405 1123 1124 84 6 454 BAAAAB83 3 455 0 .000565685424911675 4e-4 84 6
 1123 BAAAAB83 3 1124 0 4e-4 4e-4 84 6 448 BAAAAB83 3 449 0 .000565685424949236
 4e-4 84 6 441 BAAAAB83 3 442 0 .000565685424940097 4e-4 84 6 434 BAAAAB83 3 435
 0 .000565685424940097 4e-4 84 6 427 BAAAAB83 3 428 0 .000565685424949236 4e-4 8
4 6 419 BAAAAB83 3 420 0 .000565685424911676 4e-4 84 6 410 BAAAAB83 3 411 0 .000
565685424949236 4e-4 82 3 319 380 7 1 82 3 310 379 1 1 82 3 296 377 0 1 82 3 288
 381 31 1 82 3 279 377 6 1 82 3 238 377 3 0 82 3 49 381 13 0 82 3 41 381 12 0 19
 18 196 0 1 0 10 6 0 S0 40 2 25 0 1 2 647179976131674e-20 .02130459423608075 ??-
.001396424004376894 -.0017 -.0432 -.00153297097167559 -.0021 -.0436 41 1 26 L?-.
001396424004376894 -.0017 -.0432 41 1 27 L?-.00153297097167559 -.0021 -.0436 204
 8 28 4 .001396424004376894 .000565685424949237 5.40005863229581 0 .001532970971
67559 -1839952100020055e-33 5.34295771998424 4e-4 141 22 24 1125 1125 7 141 1125
 8 22 22 7 74 20 16 6 0 0 60 405 846 14 2 412 0 0 0 0 0 0 0 0 0 0 0 0 0 0 80 1 1
3 614 1126 8040 0 0 0 0 3 5 0 0 0 TTTFFFFFFFFFFFFF2 83 3 15 .615686274509804 .81
1764705882353 .929411764705882 79 17 1126 SDL/TYSA_COLOUR_21 0 
