**ABCDEFGHIJKLMNOPQRSTUVWXYZabcdefghijklmnopqrstuvwxyz**************************
**PARASOLID !"#$%&'()*+,-./:;<=>?@[\]^_`{|}~0123456789**************************
**PART1;
MC=unknown;
MC_MODEL=unknown;
MC_ID=unknown;
OS=unknown;
OS_RELEASE=unknown;
FRU=Parasolid 35.1.171;
APPL=Onshape;
SITE=unknown;
USER=unknown;
FORMAT=text;
GUISE=transmit;
KEY=BTGapi::writeModels_.xmt;
FILE=BTGapi::writeModels_.xmt;
**PART2;
SCH=SCH_3501171_35102;
USFLD_SIZE=0;
**PART3;
**END_OF_HEADER*****************************************************************
T51 : TRANSMIT FILE created by modeller version 350117117 SCH_3501171_351020 12
 1 753 2 3 0 0 0 0 0 0 0 1e3 1e-8 0 4 5 1 0 1 2 6 0 7 8 9 0 0 10 11 12 0 0 0 0 0
 0 0 81 1 2 732 13 1 14 0 0 0 15 70 3 0 4 T1 0 0 6 20 1 16 16 13 6 5 0 1 0 17 0
 0 18 0 50 7 625 19 20 21 0 0 +.003723909236273085 -.00215 0 .612372435695795 -.
353553390593274 .707106781186547 -.5 -.866025403784439 0 30 8 637 0 22 23 0 0 +.
004255896270026385 -433680868994202e-33 .000614285714285714 .755928946018454 143
268888957249e-30 -.654653670707977 29 9 559 0 12 24 0 .00294448637286709 .0051 -
8e-4 19 10 1 0 1 18 0 25 0 V0 16 11 565 26 ?27 0 28 29 0 0 1 18 12 556 30 27 0 3
1 9 ?1 81 1 30 681 32 12 0 0 33 34 35 17 27 0 36 37 38 12 39 11 0 40 +18 31 547
 41 42 12 43 24 ?1 81 1 41 683 32 31 0 0 34 44 45 17 42 0 46 47 40 31 48 28 0 49
 +18 43 538 50 51 31 52 53 ?1 29 24 550 0 31 53 9 .00588897274573418 -2168404344
97101e-32 -8e-4 29 53 541 0 43 54 24 .00294448637286709 -.0051 -8e-4 29 54 532 0
 52 55 53 -.002944486372867095 -.0051 -8e-4 18 52 529 56 57 43 58 54 ?1 29 55 52
3 0 58 59 54 -.00588897274573418 433680868994202e-33 -8e-4 18 58 520 60 61 52 62
 55 ?1 29 59 519 0 62 63 55 -.00294448637286709 .0051 -8e-4 18 62 516 64 65 58 6
6 59 ?1 29 63 509 0 66 67 59 -.00496521231503078 32985766895699e-32 0 18 66 507
 68 69 62 70 63 ?1 29 67 505 0 70 71 63 -.002482606157515395 -.0043 0 18 70 503
 72 73 66 74 67 ?1 29 71 501 0 74 75 67 .00248260615751539 -.0043 0 18 74 499 76
 77 70 78 71 ?1 29 75 497 0 78 79 71 .00496521231503078 -361964509291528e-33 0 1
8 78 495 44 80 74 81 75 ?1 29 79 493 0 81 82 75 -.00248260615751539 .0043 0 18 8
1 491 83 84 78 85 79 ?1 29 82 490 0 85 86 79 .00248260615751539 .0043 0 18 85 48
8 34 87 81 88 82 ?1 29 86 231 0 88 89 82 -.004156921938165305 867361737988404e-3
3 -.0105 18 88 135 90 91 85 92 86 ?1 29 89 230 0 92 93 86 -.002078460969082655 .
0036 -.0105 18 92 139 94 95 88 96 89 ?1 29 93 229 0 96 97 89 .002078460969082655
 .0036 -.0105 18 96 143 98 99 92 100 93 ?1 29 97 228 0 100 101 93 .0041569219381
65305 -433680868994202e-33 -.0105 18 100 147 102 103 96 104 97 ?1 29 101 227 0 1
04 105 97 .00207846096908265 -.0036 -.0105 18 104 151 106 107 100 108 101 ?1 29
 105 226 0 108 109 101 -.002078460969082655 -.0036 -.0105 18 108 155 110 111 104
 112 105 ?1 29 109 225 0 112 113 105 .00588897274573418 -216840434497101e-32 -.0
105 18 112 159 114 47 108 115 109 ?1 29 113 224 0 115 116 109 .00294448637286709
 .0051 -.0105 18 115 163 117 37 112 118 113 ?1 29 116 223 0 118 119 113 -.002944
48637286709 .0051 -.0105 18 118 167 120 121 115 122 116 ?1 29 119 222 0 122 123
 116 -.00588897274573418 433680868994202e-33 -.0105 18 122 171 124 125 118 126 1
19 ?1 29 123 221 0 126 127 119 -.002944486372867095 -.0051 -.0105 18 126 175 128
 129 122 130 123 ?1 29 127 220 0 130 131 123 .00294448637286709 -.0051 -.0105 18
 130 179 132 133 126 134 127 ?1 29 131 219 0 134 135 127 -.002078460969082655 -.
0036 0 18 134 183 136 137 130 138 131 ?1 29 135 218 0 138 139 131 .0020784609690
8265 -.0036 0 18 138 184 140 141 134 142 135 ?1 29 139 217 0 142 143 135 .004156
921938165305 -433680868994202e-33 0 18 142 185 144 145 138 146 139 ?1 29 143 216
 0 146 147 139 .002078460969082655 .0036 0 18 146 186 148 149 142 150 143 ?1 29
 147 215 0 150 151 143 -.002078460969082655 .0036 0 18 150 187 152 153 146 154 1
47 ?1 29 151 214 0 154 0 147 -.004156921938165305 867361737988404e-33 0 18 154 1
88 155 156 150 0 151 ?1 81 1 155 307 32 154 0 0 90 110 157 17 156 0 158 91 159 1
54 160 161 0 162 +15 158 30 0 159 163 0 17 91 0 158 164 156 88 165 166 0 167 +17
 159 0 158 156 164 150 95 168 0 0 -17 160 0 169 170 162 150 156 161 0 159 -16 16
1 127 171 ?156 172 173 174 0 0 1 17 162 0 169 160 137 154 175 173 0 165 -15 169
 9 0 162 17 0 17 137 0 169 162 176 134 141 177 0 175 -17 175 0 178 111 165 134 1
62 173 0 179 +16 173 128 180 ?175 161 181 182 0 0 1 17 165 0 178 175 167 154 91
 166 0 0 -15 178 27 0 165 183 0 17 167 0 178 165 111 88 184 185 0 186 -16 166 11
6 187 ?91 168 188 189 0 0 1 81 1 187 324 32 166 0 0 152 190 191 16 168 115 192 ?
95 193 166 194 0 0 1 16 188 539 195 ?133 166 196 197 0 0 1 30 189 263 0 166 197
 194 0 +-.004156921938165305 867361737988404e-33 2000000000000265e-21 0 0 -1 30
 197 262 0 188 198 189 0 +.00294448637286709 -.0051 2000000000000265e-21 0 0 -1
 30 194 264 0 168 189 199 0 +-.002078460969082655 .0036 2000000000000265e-21 0 0
 -1 30 199 265 0 193 194 200 0 +.002078460969082655 .0036 2000000000000265e-21 0
 0 -1 16 193 114 201 ?99 202 168 199 0 0 1 30 200 266 0 202 199 203 0 +.00415692
1938165305 -433680868994202e-33 2000000000000265e-21 0 0 -1 16 202 113 204 ?103
 205 193 200 0 0 1 30 203 267 0 205 200 206 0 +.00207846096908265 -.0036 2000000
000000265e-21 0 0 -1 16 205 112 207 ?107 208 202 203 0 0 1 30 206 268 0 208 203
 209 0 +-.002078460969082655 -.0036 2000000000000265e-21 0 0 -1 16 208 111 190 ?
111 210 205 206 0 0 1 31 209 424 0 181 206 211 0 -0 .0036 -.00525 0 -1 0 0 0 -1
 .00135 16 181 443 212 ?213 173 214 209 0 0 1 30 211 494 0 215 209 216 0 +-.0029
4448637286709 .0043 0 -1 0 0 16 215 492 217 ?84 218 185 211 0 0 1 30 216 498 0 2
18 211 219 0 +.00225166604983954 .0047 0 -.5 .866025403784439 0 16 218 496 220 ?
87 221 215 216 0 0 1 30 219 502 0 221 216 222 0 +.00519615242270663 4e-4 0 .5 .8
66025403784439 0 16 221 500 223 ?80 224 218 219 0 0 1 30 222 506 0 224 219 225 0
 +.00294448637286709 -.0043 0 1 0 0 16 224 504 226 ?77 227 221 222 0 0 1 30 225
 510 0 227 222 228 0 +-.00225166604983954 -.0047 0 .5 -.866025403784439 0 16 227
 508 229 ?73 230 224 225 0 0 1 30 228 513 0 230 225 231 0 +-.00519615242270663 -
4e-4 0 -.5 -.866025403784439 0 16 230 511 232 ?233 234 227 228 0 0 1 30 231 526
 0 234 228 235 0 +-.00294448637286709 .0051 -8e-4 .5 .866025403784439 0 16 234 5
24 236 ?237 238 230 231 0 0 1 30 235 535 0 238 231 239 0 +-.00588897274573418 -1
38263438091052e-33 -8e-4 -.5 .866025403784439 0 16 238 533 240 ?61 241 234 235 0
 0 1 30 239 544 0 241 235 242 0 +-.002944486372867095 -.0051 -8e-4 -1 0 0 16 241
 542 243 ?57 244 238 239 0 0 1 30 242 553 0 244 239 245 0 +.00294448637286709 -.
0051 -8e-4 -.5 -.866025403784439 0 16 244 551 246 ?51 28 241 242 0 0 1 30 245 56
2 0 28 242 29 0 +.00588897274573419 -1409462824231156e-33 -8e-4 .5 -.86602540378
4439 0 16 28 560 247 ?42 11 244 245 0 0 1 30 29 567 0 11 245 248 0 +.00294448637
286709 .0051 -8e-4 1 0 0 30 248 642 0 249 29 250 0 --.004255896270026385 4336808
68994202e-33 .000614285714285714 -.755928946018455 0 -.654653670707977 16 249 61
2 251 ?69 252 0 248 0 0 1 30 250 641 0 252 248 253 0 --.00212794813501319 .00368
5714285714285 .000614285714285714 .377964473009227 -.654653670707977 .6546536707
07977 16 252 610 254 ?65 255 249 250 0 0 1 30 253 640 0 255 250 256 0 --.0021279
48135013195 -.003685714285714285 .000614285714285715 -.3779644730092275 -.654653
670707977 -.654653670707977 16 255 607 257 ?258 259 252 253 0 0 1 30 256 639 0 2
59 253 23 0 +.002127948135013195 .003685714285714285 .000614285714285714 .377964
473009227 .654653670707977 -.654653670707977 16 259 604 260 ?261 262 255 256 0 0
 1 30 23 638 0 262 256 8 0 -.00212794813501319 -.003685714285714285 .00061428571
4285715 .3779644730092265 -.654653670707977 -.654653670707977 16 262 601 263 ?26
4 22 259 23 0 0 1 81 1 263 706 32 262 0 0 240 226 265 17 264 0 266 267 268 74 26
9 262 0 0 +16 22 598 270 ?271 214 262 8 0 0 1 81 1 270 694 32 22 0 0 260 247 272
 17 271 0 273 48 274 31 275 22 0 0 +16 214 446 276 ?277 181 22 278 0 0 1 81 1 27
6 477 32 214 0 0 279 212 280 17 277 0 281 277 277 0 282 214 0 0 +31 278 474 0 21
4 0 283 0 +0 .0051 -.00525 0 -1 0 0 0 -1 .00135 30 283 196 0 210 278 284 0 +-216
840434497101e-32 -.0051 -.0105 1 0 0 16 210 107 285 ?286 287 208 283 0 0 1 30 28
4 197 0 287 283 288 0 +-.00441672955930064 -.00255 -.0105 .5 -.866025403784439 0
 16 287 103 289 ?290 291 210 284 0 0 1 30 288 198 0 291 284 292 0 +-.00441672955
9300635 .00255 -.0105 -.5 -.866025403784439 0 16 291 99 293 ?294 295 287 288 0 0
 1 30 292 199 0 295 288 296 0 +433680868994202e-33 .0051 -.0105 -1 0 0 16 295 95
 297 ?298 299 291 292 0 0 1 30 296 200 0 299 292 300 0 +.00441672955930064 .0025
5 -.0105 -.5 .866025403784439 0 16 299 91 301 ?302 303 295 296 0 0 1 30 300 201
 0 303 296 304 0 +.004416729559300635 -.00255 -.0105 .5 .866025403784439 0 16 30
3 87 305 ?306 307 299 300 0 0 1 30 304 202 0 307 300 308 0 +-867361737988404e-33
 -.0036 -.0105 1 0 0 16 307 83 309 ?310 311 303 304 0 0 1 30 308 203 0 311 304 3
12 0 +.00311769145362398 -.0018 -.0105 .5 .866025403784438 0 16 311 79 313 ?314
 315 307 308 0 0 1 30 312 204 0 315 308 316 0 +.00311769145362398 .0018 -.0105 -
.5 .866025403784439 0 16 315 75 317 ?318 319 311 312 0 0 1 30 316 205 0 319 312
 320 0 +433680868994202e-33 .0036 -.0105 -1 0 0 16 319 71 321 ?322 323 315 316 0
 0 1 30 320 206 0 323 316 324 0 +-.00311769145362398 .0018 -.0105 -.5 -.86602540
3784439 0 16 323 67 325 ?186 185 319 320 0 0 1 30 324 207 0 185 320 326 0 +-.003
11769145362398 -.0018 -.0105 .5 -.866025403784439 0 16 185 63 327 ?184 215 323 3
24 0 0 1 30 326 245 0 177 324 328 0 +-867361737988404e-33 -.0036 0 1 0 0 16 177
 123 329 ?141 330 331 326 0 0 1 30 328 246 0 331 326 332 0 +.00311769145362398 -
.0018 0 .5 .866025403784438 0 16 331 124 333 ?145 177 334 328 0 0 1 30 332 247 0
 334 328 335 0 +.00311769145362398 .0018 0 -.5 .866025403784439 0 16 334 125 336
 ?149 331 172 332 0 0 1 30 335 248 0 172 332 174 0 +433680868994202e-33 .0036 0
 -1 0 0 16 172 126 337 ?153 334 161 335 0 0 1 30 174 249 0 161 335 182 0 +-.0031
1769145362398 .0018 0 -.5 -.866025403784439 0 30 182 250 0 173 174 338 0 +-.0031
1769145362398 -.0018 0 .5 -.866025403784439 0 30 338 257 0 330 182 339 0 +.00588
897274573418 -216840434497101e-32 2000000000000265e-21 0 0 -1 16 330 548 340 ?47
 341 177 338 0 0 1 30 339 258 0 341 338 342 0 +.00294448637286709 .0051 20000000
00000265e-21 0 0 -1 16 341 557 343 ?37 344 330 339 0 0 1 30 342 259 0 344 339 34
5 0 +-.00294448637286709 .0051 2000000000000265e-21 0 0 -1 16 344 517 346 ?121 3
47 341 342 0 0 1 30 345 260 0 347 342 198 0 +-.00588897274573418 433680868994202
e-33 2000000000000265e-21 0 0 -1 16 347 521 348 ?125 196 344 345 0 0 1 30 198 26
1 0 196 345 197 0 +-.002944486372867095 -.0051 2000000000000265e-21 0 0 -1 16 19
6 530 349 ?129 188 347 198 0 0 1 81 1 349 715 32 196 0 0 348 195 350 17 129 0 35
1 286 57 126 352 196 0 290 +15 351 45 0 353 354 0 17 286 0 351 353 129 130 355 2
10 0 356 +17 57 0 351 129 353 52 268 241 0 352 +17 352 0 357 61 290 52 129 196 0
 358 -17 290 0 357 352 125 126 359 287 0 355 +15 357 24 0 352 360 0 17 125 0 357
 290 61 122 361 347 0 294 +17 359 0 362 363 355 122 290 287 0 0 -17 355 0 362 35
9 356 126 286 210 0 0 -15 362 62 0 356 364 0 17 356 0 362 355 365 130 306 303 0
 0 -17 365 0 362 356 366 112 302 299 0 306 -17 306 0 367 49 133 112 356 303 0 0
 +15 367 12 0 49 368 0 17 49 0 367 51 306 31 47 330 0 369 -17 133 0 367 306 51 1
30 353 188 0 286 +17 51 0 367 133 49 43 369 244 0 353 +17 353 0 351 57 286 43 13
3 188 0 269 -17 269 0 370 369 371 43 264 262 0 268 -15 370 582 0 269 20 0 17 369
 0 370 275 269 31 51 244 0 271 -17 371 0 370 269 275 74 80 221 0 264 -17 268 0 2
66 264 358 43 57 241 0 0 -15 266 586 0 264 372 0 17 358 0 266 268 267 52 258 255
 0 373 -17 267 0 266 358 264 70 77 224 0 258 -17 258 0 374 375 373 70 358 255 0
 0 +17 373 0 374 258 376 52 61 238 0 0 -15 374 590 0 258 377 0 17 376 0 374 373
 375 58 69 249 0 0 -17 61 0 357 125 352 58 373 238 0 361 +17 361 0 378 237 294 5
8 125 347 0 379 -15 378 21 0 361 380 0 17 237 0 378 121 361 62 379 234 0 38 +17
 294 0 378 361 121 122 363 291 0 359 +17 379 0 381 69 65 58 237 234 0 376 -15 38
1 592 0 65 382 0 17 69 0 381 383 379 66 376 249 0 375 +17 65 0 381 379 383 62 38
4 252 0 39 +17 383 0 381 65 69 81 233 230 0 0 -17 384 0 385 386 39 81 65 252 0 3
83 -17 39 0 385 384 261 62 27 11 0 237 -15 385 588 0 261 387 0 17 261 0 385 39 3
86 12 388 259 0 0 +17 386 0 385 261 384 85 84 215 0 0 -17 388 0 273 274 48 85 26
1 259 0 386 -15 273 584 0 271 389 0 17 274 0 273 271 388 78 87 218 0 0 -17 48 0
 273 388 271 12 42 28 0 261 -17 87 0 390 84 80 85 274 218 0 388 +15 390 489 0 84
 17 169 17 84 0 390 233 87 81 386 215 0 384 +17 80 0 390 87 77 78 371 221 0 275
 +17 77 0 390 80 73 74 267 224 0 371 +17 275 0 370 371 369 78 271 22 0 274 -17 7
3 0 390 77 233 70 375 227 0 267 +17 233 0 390 73 84 66 383 230 0 0 +17 375 0 374
 376 258 66 73 227 0 233 -14 17 6 391 ?368 0 390 6 392 +0 0 393 364 25 81 1 391
 733 394 17 395 0 0 396 397 14 368 10 396 ?398 17 367 6 399 -0 0 398 0 25 50 392
 232 0 17 400 401 0 +867361737988404e-33 867361737988404e-33 0 0 0 1 1 0 0 14 39
3 460 402 ?20 364 403 6 404 +0 0 20 17 25 14 364 46 405 ?393 354 406 6 400 -0 0
 17 354 25 13 25 3 0 0 0 0 0 0 10 368 81 1 405 746 394 364 407 0 408 402 409 14
 354 43 408 ?364 410 351 6 411 -0 0 364 410 25 15 406 61 0 184 364 362 50 400 19
5 0 364 404 392 0 +1734723475976805e-33 1734723475976805e-33 -.0105 0 0 1 1 0 0
 51 404 472 0 393 0 400 0 -0 .0051 -.00525 0 -1 0 .00135 0 0 -1 17 184 0 406 310
 186 108 167 185 0 412 +17 310 0 406 314 184 104 412 307 0 0 +17 186 0 406 184 3
22 88 164 323 0 0 +17 412 0 413 179 107 108 310 307 0 0 -15 413 42 0 179 410 0 1
7 179 0 413 141 412 134 111 208 0 0 -17 107 0 413 412 141 104 414 205 0 415 +17
 141 0 413 107 179 138 137 177 0 176 +17 414 0 416 145 415 138 107 205 0 0 -17 4
15 0 416 414 103 104 314 311 0 310 -15 416 39 0 414 417 0 17 103 0 416 415 145 1
00 418 202 0 419 +17 314 0 406 318 310 100 415 311 0 0 +17 318 0 406 322 314 96
 419 315 0 0 +17 322 0 406 186 318 92 420 319 0 0 +17 419 0 421 418 99 100 318 3
15 0 314 -15 421 36 0 418 422 0 17 418 0 421 149 419 142 103 202 0 0 -17 99 0 42
1 419 149 96 423 193 0 420 +17 149 0 421 99 418 146 424 334 0 170 +17 423 0 425
 153 420 146 99 193 0 0 -17 420 0 425 423 95 96 322 319 0 318 -15 425 33 0 423 4
26 0 17 95 0 425 420 153 92 159 168 0 164 +17 153 0 425 95 423 150 170 172 0 160
 +17 164 0 158 159 91 92 186 323 0 322 -17 170 0 169 424 160 146 153 172 0 423 -
17 424 0 169 176 170 142 149 334 0 418 -17 176 0 169 137 424 138 145 331 0 414 -
17 145 0 416 103 414 142 176 331 0 424 +14 426 31 427 ?422 163 428 6 429 +0 0 42
2 163 25 81 1 427 741 394 426 430 0 431 432 433 14 422 34 432 ?417 426 421 6 434
 +0 0 417 426 25 14 163 28 431 ?426 183 158 6 435 +0 0 426 183 25 15 428 422 0 2
13 426 425 50 429 237 0 426 435 434 0 +433680868994202e-33 .0036 200000000000026
5e-21 0 -1 0 0 0 -1 50 435 236 0 163 436 429 0 +-.00311769145362398 .0018 200000
0000000265e-21 .866025403784439 -.5 0 .5 .866025403784439 0 50 434 238 0 422 429
 437 0 +.00311769145362398 .0018 2000000000000265e-21 -.866025403784439 -.5 0 .5
 -.866025403784439 0 50 437 239 0 417 434 399 0 +.00311769145362398 -.0018 20000
00000000265e-21 -.866025403784438 .5 0 -.5 -.866025403784438 0 14 417 37 438 ?41
0 422 416 6 437 +0 0 410 422 25 50 399 240 0 368 437 439 0 +.004416729559300635
 -.00255 2000000000000265e-21 -.866025403784439 .5 0 -.5 -.866025403784439 0 50
 439 241 0 360 399 411 0 +-.00441672955930064 -.00255 2000000000000265e-21 .8660
25403784439 .5 0 -.5 .866025403784439 0 14 360 22 440 ?183 380 357 6 439 -0 0 18
3 380 25 50 411 242 0 354 439 441 0 +-216840434497101e-32 -.0051 200000000000026
5e-21 0 1 0 0 0 1 50 441 243 0 183 411 442 0 +-.00311769145362398 -.0018 2000000
000000265e-21 .866025403784439 .5 0 -.5 .866025403784439 0 14 183 25 443 ?163 36
0 178 6 441 +0 0 163 360 25 50 442 244 0 410 441 444 0 +-867361737988404e-33 -.0
036 2000000000000265e-21 0 1 0 0 0 1 14 410 40 445 ?354 417 413 6 442 +0 0 354 4
17 25 50 444 635 446 382 442 447 0 +-.003723909236273085 .00215 0 -.612372435695
795 .353553390593274 .707106781186548 .5 .866025403784439 0 81 2 446 636 448 444
 0 0 449 0 450 451 14 382 591 452 ?0 377 381 6 444 +0 0 0 377 25 50 447 633 449
 377 444 453 0 +-.00372390923627309 -.00215 0 -.612372435695795 -.35355339059327
35 .707106781186548 -.5 .866025403784439 0 81 2 449 634 448 447 0 0 454 446 455
 456 14 377 589 457 ?382 387 374 6 447 +0 0 382 387 25 50 453 631 454 387 447 45
8 0 +867361737988404e-33 .0043 0 0 .707106781186548 .707106781186548 1 0 0 81 2
 454 632 448 453 0 0 459 449 460 461 14 387 587 462 ?377 372 385 6 453 +0 0 377
 372 25 50 458 629 459 372 453 21 0 +867361737988404e-33 -.0043 0 0 -.7071067811
86548 .707106781186548 -1 0 0 81 2 459 630 448 458 0 0 463 454 464 465 14 372 58
5 466 ?387 389 266 6 458 +0 0 387 389 25 50 21 627 463 389 458 7 0 +.00372390923
6273085 .00215 0 .612372435695795 .353553390593274 .707106781186548 .5 -.8660254
03784439 0 81 2 463 628 448 21 0 0 19 459 467 468 14 389 583 469 ?372 20 273 6 2
1 +0 0 372 20 25 81 1 469 749 394 389 470 0 471 466 472 14 20 581 471 ?389 393 3
70 6 7 +0 0 389 393 25 81 1 471 748 394 20 473 0 402 469 474 80 1 394 0 475 8001
 0 0 0 0 3 5 0 0 0 FFFFTFTFFFFFFFFF2 81 1 473 722 32 20 0 471 476 477 478 81 1 4
02 747 394 393 33 0 405 471 479 83 3 474 .647058823529412 .647058823529412 .6470
58823529412 81 1 33 481 32 393 0 402 430 30 480 83 3 479 .647058823529412 .64705
8823529412 .647058823529412 80 1 32 481 482 9000 0 0 0 0 3 6 0 0 0 FFTFTFTTFFFFF
FFF1 81 1 430 480 32 426 0 427 212 33 483 82 3 480 36 5 2 81 1 212 478 32 181 0
 0 276 430 484 82 3 483 36 3 2 82 3 484 36 3 1 79 9 482 BTI/DetId81 1 476 721 32
 372 0 466 485 473 486 81 1 477 723 32 398 0 487 473 395 488 82 3 478 37 11 2 14
 398 13 487 ?489 368 46 6 401 -0 0 489 368 25 81 1 487 735 394 398 477 0 396 490
 491 81 1 395 724 32 17 0 391 477 492 493 82 3 488 37 19 2 81 1 492 725 32 380 0
 494 395 495 496 82 3 493 37 20 2 14 380 19 494 ?360 489 378 6 436 -0 0 360 489
 25 81 1 494 737 394 380 492 0 490 440 497 81 1 495 726 32 360 0 440 492 498 499
 82 3 496 37 21 2 81 1 440 738 394 360 495 0 494 443 500 81 1 498 727 32 354 0 4
08 495 501 502 82 3 499 37 22 2 81 1 408 745 394 354 498 0 445 405 503 81 1 501
 728 32 368 0 396 498 504 505 82 3 502 37 23 2 81 1 396 734 394 368 501 0 391 48
7 506 81 1 504 729 32 489 0 490 501 0 507 82 3 505 37 24 2 14 489 16 490 ?380 39
8 281 6 508 -0 0 380 398 25 81 1 490 736 394 489 504 0 487 494 509 82 3 507 37 2
5 2 83 3 509 .647058823529412 .647058823529412 .647058823529412 15 281 430 0 277
 489 36 50 508 234 0 489 401 436 0 +433680868994202e-33 .0051 2000000000000265e-
21 0 -1 0 0 0 -1 50 401 233 0 398 392 508 0 +.00441672955930064 .00255 200000000
0000265e-21 -.866025403784439 -.5 0 .5 -.866025403784439 0 50 436 235 0 380 508
 435 0 +-.004416729559300635 .00255 2000000000000265e-21 .866025403784439 -.5 0
 .5 .866025403784439 0 15 36 18 0 38 489 0 17 38 0 36 27 298 62 121 344 0 0 -17
 298 0 36 38 37 118 366 295 0 363 +17 121 0 378 294 237 118 38 344 0 298 +17 37
 0 36 298 27 115 40 341 0 302 +17 366 0 362 365 363 115 298 295 0 0 -17 363 0 36
2 366 359 118 294 291 0 0 -17 40 0 46 42 302 12 37 341 0 48 -17 302 0 46 40 47 1
15 365 299 0 366 +15 46 15 0 40 398 0 17 47 0 46 302 42 112 49 330 0 365 +83 3 5
06 .647058823529412 .647058823529412 .647058823529412 81 1 445 744 394 410 510 0
 438 408 511 83 3 503 .647058823529412 .647058823529412 .647058823529412 81 1 51
0 363 32 410 0 445 512 513 514 81 1 438 743 394 417 513 0 432 445 515 83 3 511 .
647058823529412 .647058823529412 .647058823529412 81 1 513 364 32 417 0 438 510
 516 517 81 1 432 742 394 422 516 0 427 438 518 83 3 515 .647058823529412 .64705
8823529412 .647058823529412 81 1 516 365 32 422 0 432 513 519 520 83 3 518 .6470
58823529412 .647058823529412 .647058823529412 81 1 519 367 32 163 0 431 516 279
 521 82 3 520 32 11 2 81 1 431 740 394 163 519 0 443 427 522 81 1 279 368 32 1 0
 523 519 276 524 82 3 521 32 13 2 81 1 523 730 525 1 279 14 0 0 526 82 3 524 32
 0 3 80 1 525 527 528 8038 0 0 0 0 0 0 0 0 0 TTTTTTTTTTTTTFTF10 81 1 14 731 527
 1 523 2 0 0 529 98 22 526 82 101 100 117 99 116 105 111 110 32 115 104 97 102 1
16 32 99 111 108 108 97 114 80 1 527 530 531 8017 0 0 0 0 0 0 0 0 0 TTTTTTTTTTTT
TFTF3 84 22 529 Reduction shaft collar79 13 531 SDL/TYSA_NAME79 14 528 SDL/TYSA_
UNAME81 1 443 739 394 183 512 0 440 431 532 83 3 522 .647058823529412 .647058823
529412 .647058823529412 81 1 512 362 32 183 0 443 407 510 533 83 3 532 .64705882
3529412 .647058823529412 .647058823529412 81 1 407 355 32 364 0 405 171 512 534
 82 3 533 32 8 2 81 1 171 353 32 161 0 0 325 407 535 82 3 534 32 1 2 81 1 325 35
2 32 323 0 0 337 171 536 82 3 535 32 35 1 81 1 337 351 32 172 0 0 321 325 537 82
 3 536 32 34 1 81 1 321 350 32 319 0 0 336 337 538 82 3 537 32 33 1 81 1 336 349
 32 334 0 0 317 321 539 82 3 538 32 32 1 81 1 317 348 32 315 0 0 333 336 540 82
 3 539 32 31 1 81 1 333 347 32 331 0 0 313 317 541 82 3 540 32 30 1 81 1 313 346
 32 311 0 0 329 333 542 82 3 541 32 29 1 81 1 329 345 32 177 0 0 309 313 543 82
 3 542 32 28 1 81 1 309 344 32 307 0 0 180 329 544 82 3 543 32 27 1 81 1 180 343
 32 173 0 0 327 309 545 82 3 544 32 26 1 81 1 327 342 32 185 0 0 305 180 546 82
 3 545 32 25 1 81 1 305 340 32 303 0 0 285 327 547 82 3 546 32 24 1 81 1 285 338
 32 210 0 0 289 305 548 82 3 547 32 22 1 81 1 289 336 32 287 0 0 293 285 549 82
 3 548 32 20 1 81 1 293 334 32 291 0 0 297 289 550 82 3 549 32 18 1 81 1 297 332
 32 295 0 0 301 293 551 82 3 550 32 16 1 81 1 301 330 32 299 0 0 192 297 552 82
 3 551 32 14 1 81 1 192 329 32 168 0 0 201 301 553 82 3 552 32 12 1 81 1 201 328
 32 193 0 0 204 192 554 82 3 553 32 11 1 81 1 204 327 32 202 0 0 207 201 555 82
 3 554 32 10 1 81 1 207 326 32 205 0 0 190 204 556 82 3 555 32 9 1 81 1 190 325
 32 208 0 0 187 207 557 82 3 556 32 8 1 82 3 557 32 7 1 82 3 517 32 10 2 82 3 51
4 32 9 2 83 3 500 .647058823529412 .647058823529412 .647058823529412 83 3 497 .6
47058823529412 .647058823529412 .647058823529412 83 3 491 .647058823529412 .6470
58823529412 .647058823529412 81 1 466 750 394 372 476 0 469 462 558 81 1 485 720
 32 377 0 457 559 476 560 82 3 486 37 10 2 81 1 457 752 394 377 485 0 462 452 56
1 81 1 559 719 32 382 0 452 562 485 563 82 3 560 37 9 2 81 1 452 753 394 382 559
 0 457 0 564 81 1 562 718 32 387 0 462 470 559 565 82 3 563 37 8 2 81 1 462 751
 394 387 562 0 466 457 566 81 1 470 717 32 389 0 469 195 562 567 82 3 565 37 7 2
 81 1 195 716 32 188 0 0 349 470 568 82 3 567 37 6 2 82 3 568 37 47 1 83 3 566 .
647058823529412 .647058823529412 .647058823529412 83 3 564 .647058823529412 .647
058823529412 .647058823529412 83 3 561 .647058823529412 .647058823529412 .647058
823529412 83 3 558 .647058823529412 .647058823529412 .647058823529412 79 15 475
 SDL/TYSA_COLOUR83 3 472 .647058823529412 .647058823529412 .647058823529412 80 2
 448 569 570 8044 0 0 0 0 3 5 0 0 0 FFFFTFFFTTFFFFFF3 2 81 2 19 626 448 7 0 0 0
 463 571 572 84 6 467 BAAAAB83 3 468 0 .0011313708498802 8e-4 84 6 571 BAAAAB83
 3 572 28421709430404e-27 .001131370849908622 8e-4 79 17 570 SDL/TYSA_BLEND_ID84
 6 464 BAAAAB83 3 465 0 .001131370849898476 8e-4 84 6 460 BAAAAB83 3 461 0 .0011
31370849898476 8e-4 84 6 455 BAAAAB83 3 456 0 .001131370849908622 8e-4 84 6 450
 BAAAAB83 3 451 -28421709430404e-27 .001131370849908622 8e-4 17 213 0 428 213 21
3 0 573 181 0 0 +17 573 0 403 573 573 0 213 181 0 0 -15 403 463 0 573 393 574 15
 574 464 0 282 393 0 17 282 0 574 282 282 0 277 214 0 0 -83 3 433 .6470588235294
12 .647058823529412 .647058823529412 17 111 0 178 167 175 108 179 208 0 184 +83
 3 409 .647058823529412 .647058823529412 .647058823529412 83 3 397 .647058823529
412 .647058823529412 .647058823529412 81 1 348 714 32 347 0 0 346 349 575 82 3 3
50 37 46 1 81 1 346 713 32 344 0 0 343 348 576 82 3 575 37 45 1 81 1 343 712 32
 341 0 0 340 346 577 82 3 576 37 44 1 81 1 340 711 32 330 0 0 246 343 578 82 3 5
77 37 43 1 81 1 246 710 32 244 0 0 223 340 579 82 3 578 37 42 1 81 1 223 709 32
 221 0 0 243 246 580 82 3 579 37 35 1 81 1 243 708 32 241 0 0 226 223 581 82 3 5
80 37 34 1 81 1 226 707 32 224 0 0 263 243 582 82 3 581 37 33 1 82 3 582 37 32 1
 82 3 280 36 2 1 81 1 260 693 32 259 0 0 50 270 583 81 1 247 695 32 28 0 0 270 2
20 584 82 3 272 37 19 1 81 1 220 696 32 218 0 0 247 254 585 82 3 584 37 20 1 81
 1 254 697 32 252 0 0 220 217 586 82 3 585 37 21 1 81 1 217 698 32 215 0 0 254 2
6 587 82 3 586 37 22 1 81 1 26 699 32 11 0 0 217 251 588 82 3 587 37 23 1 81 1 2
51 700 32 249 0 0 26 232 589 82 3 588 37 24 1 81 1 232 701 32 230 0 0 251 236 59
0 82 3 589 37 25 1 81 1 236 702 32 234 0 0 232 257 591 82 3 590 37 26 1 81 1 257
 703 32 255 0 0 236 229 592 82 3 591 37 27 1 81 1 229 704 32 227 0 0 257 240 593
 82 3 592 37 28 1 81 1 240 705 32 238 0 0 229 263 594 82 3 593 37 29 1 82 3 594
 37 30 1 81 1 50 692 32 43 0 0 76 260 595 82 3 583 37 18 1 81 1 76 691 32 74 0 0
 56 50 596 82 3 595 37 23 0 81 1 56 690 32 52 0 0 72 76 597 82 3 596 37 22 0 81
 1 72 689 32 70 0 0 60 56 598 82 3 597 37 21 0 81 1 60 688 32 58 0 0 68 72 599 8
2 3 598 37 20 0 81 1 68 687 32 66 0 0 64 60 600 82 3 599 37 19 0 81 1 64 686 32
 62 0 0 83 68 601 82 3 600 37 18 0 81 1 83 685 32 81 0 0 44 64 602 82 3 601 37 1
7 0 81 1 44 684 32 78 0 0 41 83 603 82 3 602 37 16 0 82 3 603 37 15 0 82 3 265 3
7 31 1 81 1 152 317 32 150 0 0 94 187 604 82 3 191 32 6 1 81 1 94 316 32 92 0 0
 148 152 605 82 3 604 32 23 0 81 1 148 315 32 146 0 0 98 94 606 82 3 605 32 22 0
 81 1 98 314 32 96 0 0 144 148 607 82 3 606 32 21 0 81 1 144 313 32 142 0 0 102
 98 608 82 3 607 32 20 0 81 1 102 312 32 100 0 0 140 144 609 82 3 608 32 19 0 81
 1 140 311 32 138 0 0 106 102 610 82 3 609 32 18 0 81 1 106 310 32 104 0 0 136 1
40 611 82 3 610 32 17 0 81 1 136 309 32 134 0 0 110 106 612 82 3 611 32 16 0 81
 1 110 308 32 108 0 0 155 136 613 82 3 612 32 15 0 82 3 613 32 14 0 81 1 90 306
 32 88 0 0 132 155 614 82 3 157 32 13 0 81 1 132 304 32 130 0 0 128 90 615 82 3
 614 32 12 0 81 1 128 302 32 126 0 0 124 132 616 82 3 615 32 10 0 81 1 124 300 3
2 122 0 0 120 128 617 82 3 616 32 8 0 81 1 120 298 32 118 0 0 117 124 618 82 3 6
17 32 6 0 81 1 117 296 32 115 0 0 114 120 619 82 3 618 32 4 0 81 1 114 294 32 11
2 0 0 0 117 620 82 3 619 32 2 0 82 3 620 32 0 0 81 1 34 682 32 85 0 0 30 41 621
 82 3 621 37 13 0 82 3 45 37 14 0 82 3 35 37 12 0 19 18 4 0 1 0 10 6 0 S0 74 20
 16 6 0 0 504 446 523 14 2 452 0 0 0 0 0 0 0 0 0 0 0 0 0 0 80 1 13 394 622 8040
 0 0 0 0 3 5 0 0 0 TTTFFFFFFFFFFFFF2 83 3 15 .647058823529412 .647058823529412 .
647058823529412 79 17 622 SDL/TYSA_COLOUR_21 0 
