**ABCDEFGHIJKLMNOPQRSTUVWXYZabcdefghijklmnopqrstuvwxyz**************************
**PARASOLID !"#$%&'()*+,-./:;<=>?@[\]^_`{|}~0123456789**************************
**PART1;
MC=unknown;
MC_MODEL=unknown;
MC_ID=unknown;
OS=unknown;
OS_RELEASE=unknown;
FRU=Parasolid 35.1.171;
APPL=Onshape;
SITE=unknown;
USER=unknown;
FORMAT=text;
GUISE=transmit;
KEY=BTGapi::writeModels_.xmt;
FILE=BTGapi::writeModels_.xmt;
**PART2;
SCH=SCH_3501171_35102;
USFLD_SIZE=0;
**PART3;
**END_OF_HEADER*****************************************************************
T51 : TRANSMIT FILE created by modeller version 350117117 SCH_3501171_351020 12
 1 1707 2 3 0 0 0 0 0 0 0 1e3 1e-8 0 4 5 1 0 1 2 6 0 7 8 9 0 0 10 11 12 0 0 0 0
 0 0 0 81 1 2 1678 13 1 14 0 0 0 15 70 3 0 4 T1 0 0 6 20 1 16 16 13 6 69 0 1 0 1
7 0 0 18 0 50 7 1571 19 20 21 0 0 +-.00372390923627309 -.00215 -.0272 -.61237243
5695794 -.3535533905932735 -.707106781186548 .5 -.866025403784439 0 30 8 1583 0
 22 23 0 0 +-.004255896270026385 433680868994202e-33 -.0278142857142857 -.755928
946018455 0 .654653670707977 29 9 1505 0 12 24 0 -.00294448637286709 .0051 -.026
4 19 10 68 0 1 18 0 25 0 V0 16 11 1511 26 ?27 0 28 29 0 0 1 18 12 1502 30 27 0 3
1 9 ?1 81 1 30 1627 32 12 0 0 33 34 35 17 27 0 36 37 38 12 39 11 0 40 +18 31 149
3 41 42 12 43 24 ?1 81 1 41 1631 32 31 0 0 44 45 46 17 42 0 47 48 40 31 49 28 0
 50 +18 43 1484 51 52 31 53 54 ?1 29 24 1496 0 31 54 9 -.00588897274573418 86736
1737988404e-33 -.0264 29 54 1487 0 43 55 24 -.002944486372867095 -.0051 -.0264 2
9 55 1478 0 53 56 54 .00294448637286709 -.0051 -.0264 18 53 1475 57 58 43 59 55
 ?1 29 56 1469 0 59 60 55 .00588897274573419 -1734723475976805e-33 -.0264 18 59
 1466 61 62 53 63 56 ?1 29 60 1465 0 63 64 56 .00294448637286709 .0051 -.0264 18
 63 1462 65 66 59 67 60 ?1 29 64 1455 0 67 68 60 .00496521231503078 -17473002211
7764e-33 -.0272 18 67 1453 69 70 63 71 64 ?1 29 68 1451 0 71 72 64 .002482606157
51539 -.0043 -.0272 18 71 1449 73 74 67 75 68 ?1 29 72 1447 0 75 76 68 -.0024826
06157515395 -.0043 -.0272 18 75 1445 77 78 71 79 72 ?1 29 76 1443 0 79 80 72 -.0
0496521231503078 -1344772094606192e-34 -.0272 18 79 1441 45 81 75 82 76 ?1 29 80
 1439 0 82 83 76 .00248260615751539 .0043 -.0272 18 82 1437 44 84 79 85 80 ?1 29
 83 1436 0 85 86 80 -.00248260615751539 .0043 -.0272 18 85 1434 34 87 82 88 83 ?
1 29 86 1086 0 88 89 83 .00202072594216369 .0035 -4e-4 18 88 1083 90 91 85 92 86
 ?1 29 89 1077 0 92 93 86 .00404145188432738 -867361737988404e-33 -4e-4 18 92 10
74 94 95 88 96 89 ?1 29 93 1068 0 96 97 89 .00202072594216369 -.0035 -4e-4 18 96
 1065 98 99 92 100 93 ?1 29 97 1059 0 100 101 93 -.00202072594216369 -.0035 -4e-
4 18 100 1056 102 103 96 104 97 ?1 29 101 1050 0 104 105 97 -.00202072594216369
 .0035 -4e-4 18 104 1047 106 107 100 108 101 ?1 29 105 1046 0 108 109 101 -.0040
4145188432738 1084202172485504e-33 -4e-4 18 108 1043 110 111 104 112 105 ?1 29 1
09 1036 0 112 113 105 -.00357957166897568 359666000685858e-33 0 18 112 1034 114
 115 108 116 109 ?1 29 113 1032 0 116 117 109 -.00178978583448784 -.0031 0 18 11
6 1030 118 119 112 120 113 ?1 29 117 1028 0 120 121 113 .00178978583448784 -.003
1 0 18 120 1026 122 123 116 124 117 ?1 29 121 1024 0 124 125 117 .00357957166897
568 83292024897578e-33 0 18 124 1022 126 127 120 128 121 ?1 29 125 1020 0 128 12
9 121 -.00178978583448784 .0031 0 18 128 1018 130 131 124 132 125 ?1 29 129 1017
 0 132 133 125 .00178978583448784 .0031 0 18 132 1015 134 135 128 136 129 ?1 29
 133 569 0 136 137 129 .00202072594216369 .0035 -.0167 18 136 565 138 139 132 14
0 133 ?1 29 137 558 0 140 141 133 -.00202072594216369 .0035 -.0167 18 140 554 14
2 143 136 144 137 ?1 29 141 547 0 144 145 137 -.00404145188432738 10842021724855
04e-33 -.0167 18 144 543 146 147 140 148 141 ?1 29 145 536 0 148 149 141 -.00202
072594216369 -.0035 -.0167 18 148 532 150 151 144 152 145 ?1 29 149 525 0 152 15
3 145 .00404145188432738 -867361737988404e-33 -.0167 18 152 521 154 155 148 156
 149 ?1 29 153 934 0 156 157 149 .00588897274573419 -1734723475976805e-33 -.0167
 18 156 810 158 159 152 160 153 ?1 29 157 935 0 160 161 153 .00294448637286709 -
.0051 -.0167 18 160 784 162 163 156 164 157 ?1 29 161 936 0 164 165 157 -.002944
486372867095 -.0051 -.0167 18 164 780 166 167 160 168 161 ?1 29 165 937 0 168 16
9 161 -.00588897274573418 867361737988404e-33 -.0167 18 168 776 170 48 164 171 1
65 ?1 29 169 938 0 171 172 165 -.00294448637286709 .0051 -.0167 18 171 772 173 3
7 168 174 169 ?1 29 172 939 0 174 175 169 .00294448637286709 .0051 -.0167 18 174
 768 176 177 171 178 172 ?1 29 175 943 0 178 0 172 .00202072594216369 -.0035 -.0
167 18 178 796 179 180 174 0 175 ?1 81 1 179 988 32 178 0 0 150 154 181 17 180 0
 182 155 99 178 183 184 0 185 -15 182 527 0 186 187 0 17 155 0 182 186 180 152 1
88 189 0 190 +17 99 0 182 180 186 96 191 192 0 183 +17 183 0 193 103 185 96 180
 184 0 194 +16 184 166 195 ?183 196 197 198 0 0 1 17 185 0 193 183 199 178 200 2
01 0 188 +15 193 538 0 183 202 0 17 199 0 193 185 103 148 203 196 0 200 -17 200
 0 204 205 188 148 185 201 0 0 -16 201 708 206 ?185 207 189 208 0 0 1 17 188 0 2
04 200 209 178 155 189 0 0 -15 204 868 0 210 211 212 17 209 0 204 188 210 152 13
9 213 0 0 -16 189 693 214 ?155 201 213 215 0 0 1 81 1 214 994 32 189 0 0 206 216
 217 16 213 678 216 ?139 189 218 219 0 0 1 30 215 919 0 189 219 208 0 +.00303108
8913245535 -.00175 -.0167 .5 .866025403784439 0 30 219 920 0 213 220 215 0 +.003
031088913245535 .00175 -.0167 -.5 .866025403784439 0 30 208 918 0 201 215 221 0
 +-1301042606982604e-33 -.0035 -.0167 1 0 0 30 221 917 0 207 208 222 0 +-.003031
088913245535 -.00175 -.0167 .5 -.866025403784439 0 16 207 723 223 ?151 224 201 2
21 0 0 1 30 222 916 0 224 221 225 0 +-.003031088913245535 .00175 -.0167 -.5 -.86
6025403784439 0 16 224 738 226 ?147 227 207 222 0 0 1 30 225 915 0 227 222 228 0
 +.00441672955930064 .00255 -.0167 -.5 .866025403784439 0 16 227 746 229 ?230 23
1 224 225 0 0 1 30 228 914 0 231 225 232 0 +867361737988404e-33 .0051 -.0167 -1
 0 0 16 231 749 233 ?234 235 227 228 0 0 1 30 232 913 0 235 228 236 0 +-.0044167
29559300635 .00255 -.0167 -.5 -.866025403784439 0 16 235 752 237 ?238 239 231 23
2 0 0 1 30 236 912 0 239 232 240 0 +-.00441672955930064 -.00255 -.0167 .5 -.8660
25403784439 0 16 239 755 241 ?242 243 235 236 0 0 1 30 240 911 0 243 236 244 0 +
-216840434497101e-32 -.0051 -.0167 1 0 0 16 243 758 245 ?246 247 239 240 0 0 1 3
0 244 910 0 247 240 248 0 +.00441672955930064 -.00255 -.0167 .5 .866025403784438
 0 16 247 761 249 ?250 251 243 244 0 0 1 30 248 909 0 251 244 252 0 +.0058889727
4573419 -1734723475976805e-33 -.027202 0 0 1 16 251 1467 253 ?159 254 247 248 0
 0 1 30 252 908 0 254 248 255 0 +.00294448637286709 -.0051 -.027202 0 0 1 16 254
 1476 256 ?163 257 251 252 0 0 1 30 255 907 0 257 252 258 0 +-.00294448637286709
5 -.0051 -.027202 0 0 1 16 257 1485 259 ?167 260 254 255 0 0 1 30 258 906 0 260
 255 261 0 +-.00588897274573418 867361737988404e-33 -.027202 0 0 1 16 260 1494 2
62 ?48 263 257 258 0 0 1 30 261 905 0 263 258 264 0 +-.00294448637286709 .0051 -
.027202 0 0 1 16 263 1503 265 ?37 266 260 261 0 0 1 30 264 904 0 266 261 267 0 +
.00294448637286709 .0051 -.027202 0 0 1 16 266 1463 268 ?177 269 263 264 0 0 1 3
1 267 447 0 269 264 270 0 +0 949101269339199e-34 0 0 0 1 1 0 0 .00155 16 269 423
 271 ?272 273 266 267 0 0 1 31 270 446 0 273 267 274 0 -0 949101269339199e-34 -.
0272 0 0 1 1 0 0 .00155 16 273 418 275 ?276 197 269 270 0 0 1 30 274 189 0 197 2
70 198 0 +.00404145188432738 -867361737988404e-33 -.0272 0 0 1 16 197 165 277 ?1
86 184 273 274 0 0 1 30 198 190 0 184 274 278 0 +.00202072594216369 -.0035 -.027
2 0 0 1 30 278 191 0 196 198 279 0 +-.00202072594216369 -.0035 -.0272 0 0 1 16 1
96 167 280 ?203 281 184 278 0 0 1 30 279 192 0 281 278 282 0 +-.0040414518843273
8 1084202172485504e-33 -.0272 0 0 1 16 281 168 283 ?284 285 196 279 0 0 1 30 282
 193 0 285 279 286 0 +-.00202072594216369 .0035 -.0272 0 0 1 16 285 169 287 ?288
 289 281 282 0 0 1 30 286 194 0 289 282 290 0 +.00202072594216369 .0035 -.0272 0
 0 1 16 289 170 291 ?292 293 285 286 0 0 1 30 290 1021 0 293 286 294 0 +86736173
7988404e-33 .0031 0 -1 0 0 16 293 1019 295 ?131 296 289 290 0 0 1 30 294 1025 0
 296 290 297 0 +.00268467875173176 .00155 0 -.5 .866025403784439 0 16 296 1023 2
98 ?135 299 293 294 0 0 1 30 297 1029 0 299 294 300 0 +.00268467875173176 -.0015
5 0 .5 .866025403784438 0 16 299 1027 301 ?127 302 296 297 0 0 1 30 300 1033 0 3
02 297 303 0 +867361737988404e-33 -.0031 0 1 0 0 16 302 1031 304 ?123 305 299 30
0 0 0 1 30 303 1037 0 305 300 306 0 +-.00268467875173176 -.00155 0 .5 -.86602540
3784439 0 16 305 1035 307 ?119 308 302 303 0 0 1 30 306 1040 0 308 303 309 0 +-.
00268467875173176 .00155 0 -.5 -.866025403784439 0 16 308 1038 310 ?311 312 305
 306 0 0 1 30 309 1053 0 312 306 313 0 +-.003031088913245535 .00175 -4e-4 .5 .86
6025403784439 0 16 312 1051 314 ?315 316 308 309 0 0 1 30 313 1062 0 316 309 317
 0 +-.003031088913245535 -.00175 -4e-4 -.5 .866025403784439 0 16 316 1060 318 ?1
11 319 312 313 0 0 1 30 317 1071 0 319 313 320 0 +-867361737988404e-33 -.0035 -4
e-4 -1 0 0 16 319 1069 321 ?103 192 316 317 0 0 1 30 320 1080 0 192 317 322 0 +.
003031088913245535 -.00175 -4e-4 -.5 -.866025403784438 0 16 192 1078 323 ?99 324
 319 320 0 0 1 30 322 1089 0 324 320 325 0 +.003031088913245535 .00175 -4e-4 .5
 -.866025403784439 0 16 324 1087 326 ?95 327 192 322 0 0 1 30 325 1094 0 327 322
 328 0 +433680868994202e-33 .0035 -4e-4 1 0 0 16 327 1092 329 ?91 330 324 325 0
 0 1 30 328 1169 0 331 325 332 0 --.00306820428769344 216840434497101e-33 .00044
28571428571425 -.755928946018454 1085060272978454e-31 -.654653670707978 16 331 1
139 333 ?115 334 335 328 0 0 1 30 332 1168 0 334 328 336 0 --.00153410214384672
 .00265714285714286 .000442857142857143 .3779644730092265 -.654653670707977 .654
653670707978 16 334 1137 337 ?107 338 331 332 0 0 1 30 336 1167 0 338 332 339 0
 --.00153410214384672 -.00265714285714286 .0004428571428571435 -.377964473009227
 -.654653670707977 -.654653670707978 16 338 1134 340 ?341 342 334 336 0 0 1 30 3
39 1166 0 342 336 343 0 +.00153410214384672 .00265714285714286 .0004428571428571
425 .377964473009226 .654653670707977 -.654653670707978 16 342 1131 344 ?345 346
 338 339 0 0 1 30 343 1165 0 346 339 347 0 -.00153410214384672 -.002657142857142
86 .000442857142857143 .377964473009227 -.654653670707977 -.654653670707978 16 3
46 1128 348 ?349 350 342 343 0 0 1 30 347 1164 0 350 343 351 0 +.003068204287693
44 1301042606982604e-33 .000442857142857144 .755928946018454 -1007099665020376e-
30 -.654653670707978 16 350 1125 352 ?353 218 346 347 0 0 1 38 351 1364 0 354 34
7 355 0 +356 357 358 359 359 360 16 354 1388 361 ?362 335 22 351 0 0 1 30 355 14
40 0 330 351 363 0 +.00294448637286709 .0043 -.0272 1 0 0 51 356 444 0 17 364 36
5 366 +0 949101269339199e-34 -.027202 0 0 1 .00155 1 0 0 51 357 1417 0 367 0 368
 369 -0 .0051 -.00525 0 -1 0 .00135 0 0 -1 40 24 358 0 1 24 .000102232825193977
 .3823669764519485 ??0 .00155 -.0066 .00037134189859006 .001504860523221845 -.00
654792341621204 .000697793643077164 .001384046253447152 -.00640567470841976 .001
04692201948451 .001143002311948 -.00610232287609712 .001274050588117296 .0008827
76924776566 -.00569642479648645 .001335747361575574 .000786307183004132 -.005445
65016239168 .001349517011167732 .000762432840694166 -.00521389132280302 .0013239
33500490532 .000806039754775772 -.00498599226094887 .001213336266453656 .0009645
2843633993 -.00465812576968724 .000900742920499774 .001261412775886496 -.0042444
3439240916 .000550943253225278 .001448779324716344 -.004017538425862475 .0002033
38619796076 .001536604505297125 -.003915401406527255 -.000170831980463422 .00154
055718311621 -.00391085234777828 -.000496760026632878 .00146824026505872 -.00399
471936367213 -.000796730092319953 .001329556753204554 -.004160173793675415 -.001
133178923871934 .001057546938198228 -.00451623878101085 -.001301845948381142 .00
0841247363552245 -.00489265265261429 -.001345180032491452 .000770058880986576 -.
00513602333490449 -.00134213425243553 .000775355175671399 -.00539551855015548 -.
0012825345739779 .000870405116340398 -.00567143216126839 -.001071589552431254 .0
01119908849469558 -.00607109428881231 -.000710245378062999 .001377697899737154 -
.00639806424164336 -.000363435992710697 .001506789394441835 -.0065501593283911 -
515635872492244e-33 .00155 -.0066 41 1 359 H?0 .00155 -.0066 204 96 360 4 1.5707
96326794895 .020602 0 .00355 1.328867816581536 .02065407658378795 .2786605059985
445 .003595139476778155 1.103818836328954 .02079632529158025 .543207193073025 .0
0371595374655285 .829243840415493 .0210996771239029 .887503170118686 .0039569976
88052 .605938203114232 .02150557520351355 1.233766972776228 .004217223075223435
 .532042950059575 .0217563498376083 1.425358097582362 .00431369281699587 .514261
674210348 .021988108677197 1.597546685319235 .004337567159305835 .54688097819533
4 .0222160077390511 1.767626083540675 .00429396024522423 .671647398635756 .02254
387423031275 2.024642246237125 .00413547156366007 .950686595668843 .022957565607
59085 2.411126433022225 .003838587224113505 1.207403794531772 .0231844615741375
 2.72121405994308 .003651220675283655 1.43923089433579 .02328659859347275 2.9903
96042288425 .003563395494702875 1.681234867971945 .0232911476522217 3.2684750369
23515 .003559442816883795 1.89704341338281 .02320728063632785 3.518417971390575
 .00363175973494128 2.11066041525816 .0230418262063246 3.7728626056129 .00377044
3246795445 2.390704494480385 .02268576121898915 4.137755910822935 .0040424530618
01775 2.56789640035623 .0223093473473857 4.4444943647959 .004258752636447755 2.6
21670959117445 .0220659766650955 4.62786119927278 .004329941119013425 2.61772926
3233945 .0218064814498445 4.82039033650971 .004324644824328605 2.54533276047089
 .0215305678387316 5.02986738066614 .004229594883659605 2.33414954170287 .021130
9057111877 5.36620264203233 .003980091150530445 2.04679105413986 .02080393575835
665 5.72916819683532 .00372230210026285 1.80747463334235 .0206518406716089 6.010
61073627591 .003593210605558165 1.570796326794895 .020602 0 .00355 14 367 1405 3
70 ?20 371 372 6 357 +0 0 20 371 25 50 368 885 0 211 357 373 0 +1734723475976805
e-33 0 -.0167 0 0 1 1 0 0 141 369 351 369 369 357 14 211 865 374 ?375 376 204 6
 368 +0 0 376 377 25 50 373 884 0 376 368 378 0 +.00441672955930064 -.00255 -.02
7202 .866025403784438 -.5 0 .5 .866025403784438 0 14 376 861 379 ?211 380 381 6
 373 +0 0 380 211 25 50 378 883 0 380 373 382 0 +-216840434497101e-32 -.0051 -.0
27202 0 -1 0 0 0 -1 14 380 833 383 ?376 384 385 6 378 +0 0 384 376 25 50 382 882
 0 384 378 386 0 +-.00441672955930064 -.00255 -.027202 -.866025403784439 -.5 0 .
5 -.866025403784439 0 14 384 829 387 ?380 388 389 6 382 +0 0 388 380 25 50 386 8
81 0 388 382 390 0 +-.004416729559300635 .00255 -.027202 -.866025403784439 .5 0
 -.5 -.866025403784439 0 14 388 825 391 ?384 392 47 6 386 +0 0 392 384 25 50 390
 880 0 392 386 364 0 +867361737988404e-33 .0051 -.027202 0 1 0 0 0 1 14 392 821
 393 ?388 394 36 6 390 +0 0 394 388 25 50 364 879 0 394 390 356 0 +.004416729559
30064 .00255 -.027202 .866025403784439 .5 0 -.5 .866025403784439 0 14 394 817 39
5 ?392 377 396 6 364 +0 0 375 392 25 81 1 395 1688 397 394 398 0 399 393 400 14
 377 94 399 ?394 401 402 6 403 +0 0 211 401 25 15 396 820 0 404 394 0 14 375 110
8 405 ?406 211 407 6 408 +0 0 406 394 25 13 25 195 0 0 0 0 0 0 10 17 14 17 432 4
09 ?410 0 411 6 356 -0 0 410 0 25 81 1 409 1679 397 17 412 0 0 413 414 14 410 18
2 413 ?415 17 416 6 417 +0 0 415 17 25 15 411 435 0 276 17 418 17 276 0 411 276
 276 0 419 273 0 0 +15 418 436 0 272 17 420 17 272 0 418 272 272 0 421 269 0 0 +
15 420 1363 0 422 17 0 17 422 0 420 422 422 0 362 354 0 0 -17 362 0 423 362 362
 0 422 354 0 0 +15 423 1400 0 362 367 0 17 421 0 424 421 421 0 272 269 0 0 -15 4
24 401 0 421 377 0 17 419 0 425 419 419 0 276 273 0 0 -15 425 407 0 419 401 0 14
 401 1 426 ?377 187 427 6 365 -0 0 377 187 25 81 1 426 1686 397 401 428 0 429 39
9 430 14 187 172 429 ?401 202 182 6 431 +0 0 401 202 25 15 427 1435 0 84 401 425
 50 365 3 0 401 356 403 0 +867361737988404e-33 867361737988404e-33 -.0272 0 0 1
 1 0 0 50 403 152 0 377 365 431 0 +867361737988404e-33 867361737988404e-33 0 0 0
 1 1 0 0 50 431 183 0 187 403 432 0 +.003031088913245535 -.00175 -.0272 .8660254
03784438 -.5 0 .5 .866025403784438 0 50 432 184 0 202 431 433 0 +-86736173798840
4e-33 -.0035 -.0272 0 -1 0 0 0 -1 14 202 174 434 ?187 435 193 6 432 +0 0 187 435
 25 50 433 185 0 435 432 436 0 +-.003031088913245535 -.00175 -.0272 -.8660254037
84439 -.5 0 .5 -.866025403784439 0 14 435 176 437 ?202 438 439 6 433 +0 0 202 43
8 25 50 436 186 0 438 433 440 0 +-.003031088913245535 .00175 -.0272 -.8660254037
84439 .5 0 -.5 -.866025403784439 0 14 438 178 441 ?435 415 442 6 436 +0 0 435 41
5 25 50 440 187 0 415 436 417 0 +433680868994202e-33 .0035 -.0272 0 1 0 0 0 1 14
 415 180 443 ?438 410 444 6 440 +0 0 438 410 25 50 417 188 0 410 440 445 0 +.003
031088913245535 .00175 -.0272 .866025403784439 .5 0 -.5 .866025403784439 0 50 44
5 1162 446 371 417 447 0 --.00268467875173176 .00155 0 .612372435695795 -.353553
3905932745 -.707106781186547 -.5 -.866025403784439 0 81 2 446 1163 448 445 0 0 4
49 19 450 451 14 371 1118 452 ?367 453 454 6 445 +0 0 367 453 25 50 447 1160 449
 453 445 455 0 --.00268467875173176 -.00155 0 .612372435695795 .353553390593274
 -.707106781186547 .5 -.866025403784439 0 81 2 449 1161 448 447 0 0 456 446 457
 458 14 453 1116 459 ?371 460 461 6 447 +0 0 371 460 25 50 455 1158 456 460 447
 462 0 -867361737988404e-33 .0031 0 0 -.707106781186548 -.707106781186547 -1 0 0
 81 2 456 1159 448 455 0 0 463 449 464 465 14 460 1114 466 ?453 467 468 6 455 +0
 0 453 467 25 50 462 1156 463 467 455 469 0 -867361737988404e-33 -.0031 0 0 .707
106781186548 -.707106781186547 1 0 0 81 2 463 1157 448 462 0 0 470 456 471 472 1
4 467 1112 473 ?460 406 474 6 462 +0 0 460 406 25 50 469 1154 470 406 462 408 0
 -.00268467875173176 .00155 0 -.612372435695796 -.3535533905932745 -.70710678118
6546 -.5 .866025403784439 0 81 2 470 1155 448 469 0 0 475 463 476 477 14 406 111
0 478 ?467 375 479 6 469 +0 0 467 375 25 50 408 1152 475 375 469 480 0 -.0026846
7875173176 -.00155 0 -.612372435695795 .3535533905932745 -.707106781186547 .5 .8
66025403784438 0 81 2 475 1153 448 408 0 0 0 470 481 482 50 480 1581 483 484 408
 485 0 +.003723909236273085 .00215 -.0272 .612372435695794 .3535533905932735 -.7
07106781186548 -.5 .866025403784439 0 81 2 483 1582 448 480 0 0 486 0 487 488 14
 484 1537 489 ?0 490 491 6 480 +0 0 0 490 25 50 485 1579 486 490 480 492 0 +.003
723909236273085 -.00215 -.0272 .612372435695794 -.353553390593274 -.707106781186
549 .5 .866025403784438 0 81 2 486 1580 448 485 0 0 493 483 494 495 14 490 1535
 496 ?484 497 498 6 485 +0 0 484 497 25 50 492 1577 493 497 485 499 0 +867361737
988404e-33 .0043 -.0272 0 .707106781186547 -.707106781186548 -1 0 0 81 2 493 157
8 448 492 0 0 500 486 501 502 14 497 1533 503 ?490 504 505 6 492 +0 0 490 504 25
 50 499 1575 500 504 492 21 0 +867361737988404e-33 -.0043 -.0272 0 -.70710678118
6547 -.707106781186548 1 0 0 81 2 500 1576 448 499 0 0 506 493 507 508 14 504 15
31 509 ?497 510 511 6 499 +0 0 497 510 25 50 21 1573 506 510 499 7 0 +-.00372390
9236273085 .00215 -.0272 -.612372435695794 .3535533905932735 -.707106781186548 -
.5 -.866025403784439 0 81 2 506 1574 448 21 0 0 19 500 512 513 14 510 1529 514 ?
504 20 515 6 21 +0 0 504 20 25 81 1 514 1703 397 510 516 0 517 509 518 14 20 152
7 517 ?510 367 519 6 7 +0 0 510 367 25 15 515 1530 0 520 510 0 17 520 0 515 49 5
21 31 522 22 0 0 +17 49 0 515 523 520 12 42 28 0 524 -17 521 0 515 520 523 79 87
 525 0 0 -17 522 0 519 526 527 79 520 22 0 521 -16 22 1544 528 ?520 354 529 8 0
 0 1 81 1 528 1643 32 22 0 0 530 531 532 16 529 1547 533 ?534 22 535 23 0 0 1 81
 1 533 1646 32 529 0 0 536 537 538 17 534 0 511 539 540 75 541 529 0 0 +16 535 1
550 542 ?524 529 543 544 0 0 1 30 23 1584 0 529 544 8 0 --.00212794813501319 -.0
03685714285714285 -.0278142857142857 -.3779644730092275 -.654653670707978 .65465
3670707976 30 544 1585 0 535 545 23 0 +-.00212794813501319 .003685714285714285 -
.0278142857142857 -.3779644730092275 .654653670707978 .654653670707976 30 545 15
86 0 543 546 544 0 -.00212794813501319 -.003685714285714285 -.0278142857142857 .
3779644730092275 -.654653670707978 .654653670707976 16 543 1553 547 ?548 535 549
 545 0 0 1 30 546 1587 0 549 550 545 0 -.00212794813501319 .003685714285714285 -
.0278142857142857 -.3779644730092275 -.654653670707978 -.654653670707976 16 549
 1556 551 ?66 543 552 546 0 0 1 30 550 1588 0 552 29 546 0 -.004255896270026385
 -433680868994202e-33 -.0278142857142857 .755928946018455 -533221790946298e-30 .
654653670707976 16 552 1558 553 ?70 549 0 550 0 0 1 30 29 1513 0 11 554 550 0 +-
.00294448637286709 .0051 -.0264 -1 0 0 30 554 1508 0 28 555 29 0 +-.005888972745
73418 216840434497101e-33 -.0264 -.5 -.866025403784439 0 16 28 1506 531 ?42 11 5
56 554 0 0 1 30 555 1499 0 556 557 554 0 +-.002944486372867095 -.0051 -.0264 .5
 -.866025403784439 0 16 556 1497 537 ?52 28 558 555 0 0 1 30 557 1490 0 558 559
 555 0 +.00294448637286709 -.0051 -.0264 1 0 0 16 558 1488 560 ?58 556 561 557 0
 0 1 30 559 1481 0 561 562 557 0 +.00588897274573419 -124683249835833e-32 -.0264
 .5 .866025403784438 0 16 561 1479 563 ?62 558 564 559 0 0 1 30 562 1472 0 564 5
65 559 0 +.00294448637286709 .0051 -.0264 -.5 .866025403784439 0 16 564 1470 566
 ?567 561 568 562 0 0 1 30 565 1459 0 568 569 562 0 +.00519615242270663 -4e-4 -.
0272 .5 -.866025403784439 0 16 568 1457 570 ?571 564 572 565 0 0 1 30 569 1456 0
 572 573 565 0 +.00225166604983954 -.0047 -.0272 -.5 -.866025403784438 0 16 572
 1454 574 ?74 568 575 569 0 0 1 30 573 1452 0 575 576 569 0 +-.00294448637286709
5 -.0043 -.0272 -1 0 0 16 575 1450 577 ?78 572 578 573 0 0 1 30 576 1448 0 578 3
63 573 0 +-.00519615242270663 4e-4 -.0272 -.5 .866025403784439 0 16 578 1446 579
 ?81 575 525 576 0 0 1 30 363 1444 0 525 355 576 0 +-.00225166604983954 .0047 -.
0272 .5 .866025403784439 0 16 525 1442 536 ?87 578 330 363 0 0 1 81 1 536 1645 3
2 525 0 0 531 533 580 17 87 0 427 84 81 85 521 525 0 523 +16 330 1438 530 ?84 52
5 327 355 0 0 1 81 1 530 1642 32 330 0 0 26 528 581 17 84 0 427 571 87 82 582 33
0 0 583 +17 571 0 427 74 84 67 584 568 0 0 +17 582 0 505 524 583 85 84 330 0 0 -
17 583 0 505 582 39 82 66 549 0 584 -15 505 1534 0 524 497 0 17 39 0 505 583 524
 63 27 11 0 567 -17 66 0 491 585 584 63 583 549 0 39 +17 584 0 491 66 70 82 571
 568 0 0 -15 491 1538 0 66 484 0 17 70 0 491 584 585 67 586 552 0 587 +17 585 0
 491 70 66 59 567 564 0 586 -17 586 0 498 588 587 59 70 552 0 0 -17 587 0 498 58
6 548 67 74 572 0 571 -15 498 1536 0 548 490 0 17 548 0 498 587 588 71 589 543 0
 0 +17 74 0 427 78 571 71 587 572 0 539 +17 78 0 427 81 74 75 539 575 0 526 +17
 539 0 511 589 534 71 78 575 0 548 -15 511 1532 0 534 504 0 17 589 0 511 540 539
 53 548 543 0 588 -17 540 0 511 534 589 43 58 558 0 0 -17 588 0 498 548 586 53 6
2 561 0 0 -17 62 0 381 159 590 59 588 561 0 404 +15 381 864 0 590 376 0 17 159 0
 381 591 62 156 404 251 0 250 +17 590 0 381 62 591 53 163 254 0 589 -17 404 0 39
6 567 592 59 159 251 0 585 -17 567 0 396 177 404 63 585 564 0 38 +17 592 0 396 4
04 177 156 230 227 0 0 -17 177 0 396 592 567 174 38 266 0 593 +17 230 0 212 234
 250 174 592 227 0 0 +15 212 869 0 230 211 0 17 234 0 212 238 230 171 593 231 0
 0 +17 250 0 212 230 246 156 591 247 0 592 +17 246 0 212 250 242 160 594 243 0 0
 +17 591 0 381 590 159 160 250 247 0 246 -17 242 0 212 246 238 164 595 239 0 0 +
17 594 0 385 596 163 164 246 243 0 242 -15 385 836 0 596 380 0 17 596 0 385 58 5
94 43 167 257 0 541 -17 163 0 385 594 58 160 590 254 0 591 +17 58 0 385 163 596
 53 540 558 0 590 +17 167 0 389 595 52 164 596 257 0 594 +17 541 0 519 527 526 4
3 534 529 0 540 -15 519 1528 0 541 20 0 17 527 0 519 522 541 31 52 556 0 520 -17
 526 0 519 541 522 75 81 578 0 534 -17 81 0 427 87 78 79 526 578 0 522 +17 52 0
 389 167 50 43 527 556 0 596 +15 389 832 0 50 384 0 17 50 0 389 52 595 31 48 260
 0 527 -17 595 0 389 50 167 168 242 239 0 238 -17 48 0 47 597 42 168 50 260 0 59
5 +15 47 828 0 40 388 0 17 597 0 47 40 48 171 238 235 0 234 -17 40 0 47 42 597 1
2 37 263 0 49 -17 238 0 212 242 234 168 597 235 0 0 +17 37 0 36 593 27 171 40 26
3 0 597 +15 36 824 0 38 392 0 17 593 0 36 38 37 174 234 231 0 230 -17 38 0 36 27
 593 63 177 266 0 0 -17 524 0 505 39 582 12 523 535 0 0 +17 523 0 515 521 49 85
 524 535 0 582 -80 1 32 598 599 9000 0 0 0 0 3 6 0 0 0 FFTFTFTTFFFFFFFF1 81 1 26
 1641 32 11 0 0 551 530 600 82 3 581 37 3 1 81 1 551 1640 32 549 0 0 542 26 601
 82 3 600 37 2 1 81 1 542 1639 32 535 0 0 69 551 602 82 3 601 37 1 1 81 1 69 163
8 32 67 0 0 61 542 603 82 3 602 37 0 1 81 1 61 1637 32 59 0 0 73 69 604 82 3 603
 37 11 0 81 1 73 1636 32 71 0 0 57 61 605 82 3 604 37 10 0 81 1 57 1635 32 53 0
 0 77 73 606 82 3 605 37 9 0 81 1 77 1634 32 75 0 0 51 57 607 82 3 606 37 8 0 81
 1 51 1633 32 43 0 0 45 77 608 82 3 607 37 7 0 81 1 45 1632 32 79 0 0 41 51 609
 82 3 608 37 6 0 82 3 609 37 5 0 79 9 599 BTI/DetId81 1 531 1644 32 28 0 0 528 5
36 610 82 3 580 37 6 1 82 3 610 37 5 1 81 1 579 1648 32 578 0 0 537 547 611 81 1
 537 1647 32 556 0 0 533 579 612 81 1 547 1649 32 543 0 0 579 560 613 82 3 611 3
7 9 1 81 1 560 1650 32 558 0 0 547 577 614 82 3 613 37 10 1 81 1 577 1651 32 575
 0 0 560 553 615 82 3 614 37 11 1 81 1 553 1652 32 552 0 0 577 563 616 82 3 615
 37 12 1 81 1 563 1653 32 561 0 0 553 574 617 82 3 616 37 13 1 81 1 574 1654 32
 572 0 0 563 566 618 82 3 617 37 14 1 81 1 566 1655 32 564 0 0 574 570 619 82 3
 618 37 15 1 81 1 570 1656 32 568 0 0 566 268 620 82 3 619 37 16 1 81 1 268 1657
 32 266 0 0 570 265 621 82 3 620 37 17 1 81 1 265 1658 32 263 0 0 268 262 622 82
 3 621 37 36 1 81 1 262 1659 32 260 0 0 265 259 623 82 3 622 37 37 1 81 1 259 16
60 32 257 0 0 262 256 624 82 3 623 37 38 1 81 1 256 1661 32 254 0 0 259 253 625
 82 3 624 37 39 1 81 1 253 1662 32 251 0 0 256 626 627 82 3 625 37 40 1 81 1 626
 1663 32 497 0 503 253 516 628 82 3 627 37 41 1 81 1 503 1705 397 497 626 0 509
 496 629 81 1 516 1664 32 510 0 514 626 630 631 82 3 628 37 0 2 81 1 630 1665 32
 20 0 517 516 632 633 82 3 631 37 1 2 81 1 517 1702 397 20 630 0 370 514 634 81
 1 632 1666 32 504 0 509 630 635 636 82 3 633 37 2 2 81 1 509 1704 397 504 632 0
 514 503 637 81 1 635 1667 32 490 0 496 632 638 639 82 3 636 37 3 2 81 1 496 170
6 397 490 635 0 503 489 640 81 1 638 1668 32 484 0 489 635 641 642 82 3 639 37 4
 2 81 1 489 1707 397 484 638 0 496 0 643 81 1 641 1669 32 392 0 393 638 644 645
 82 3 642 37 5 2 81 1 393 1689 397 392 641 0 395 391 646 81 1 644 1670 32 388 0
 391 641 647 648 82 3 645 37 12 2 81 1 391 1690 397 388 644 0 393 387 649 81 1 6
47 1671 32 384 0 387 644 650 651 82 3 648 37 13 2 81 1 387 1691 397 384 647 0 39
1 383 652 81 1 650 1672 32 380 0 383 647 653 654 82 3 651 37 14 2 81 1 383 1692
 397 380 650 0 387 379 655 81 1 653 1673 32 376 0 379 650 398 656 82 3 654 37 15
 2 81 1 379 1693 397 376 653 0 383 374 657 81 1 398 1674 32 394 0 395 653 428 65
8 82 3 656 37 16 2 81 1 428 1675 32 401 0 426 398 0 659 82 3 658 37 17 2 82 3 65
9 37 18 2 80 1 397 0 660 8001 0 0 0 0 3 5 0 0 0 FFFFTFTFFFFFFFFF2 81 1 374 1694
 397 211 661 0 379 405 662 83 3 657 .615686274509804 .811764705882353 .929411764
705882 81 1 661 867 32 211 0 374 158 663 664 81 1 405 1695 397 375 665 0 374 478
 666 83 3 662 .615686274509804 .811764705882353 .929411764705882 81 1 665 1248 3
2 375 0 405 667 668 669 81 1 478 1696 397 406 668 0 405 473 670 83 3 666 .615686
274509804 .811764705882353 .929411764705882 81 1 668 1249 32 406 0 478 665 671 6
72 81 1 473 1697 397 467 667 0 478 466 673 83 3 670 .615686274509804 .8117647058
82353 .929411764705882 81 1 667 1247 32 467 0 473 674 665 675 81 1 466 1698 397
 460 676 0 473 459 677 83 3 673 .615686274509804 .811764705882353 .9294117647058
82 81 1 676 1244 32 460 0 466 277 678 679 81 1 459 1699 397 453 674 0 466 452 68
0 83 3 677 .615686274509804 .811764705882353 .929411764705882 81 1 674 1246 32 4
53 0 459 678 667 681 81 1 452 1700 397 371 678 0 459 370 682 83 3 680 .615686274
509804 .811764705882353 .929411764705882 81 1 678 1245 32 371 0 452 676 674 683
 81 1 370 1701 397 367 33 0 452 517 684 83 3 682 .615686274509804 .8117647058823
53 .929411764705882 81 1 33 1427 32 367 0 370 685 30 686 83 3 684 .6156862745098
04 .811764705882353 .929411764705882 81 1 685 1426 32 415 0 443 412 33 687 82 3
 686 36 4 2 81 1 443 1681 397 415 685 0 413 441 688 81 1 412 1425 32 17 0 409 68
9 685 690 82 3 687 36 1 2 81 1 689 1424 32 335 0 0 361 412 691 82 3 690 36 0 2 1
6 335 1382 689 ?692 331 354 693 0 0 1 81 1 361 1423 32 354 0 0 694 689 695 82 3
 691 36 1 1 81 1 694 1256 32 410 0 413 696 361 697 82 3 695 36 0 1 81 1 413 1680
 397 410 694 0 409 443 698 81 1 696 1255 32 187 0 429 699 694 700 82 3 697 29 12
 2 81 1 429 1685 397 187 696 0 434 426 701 81 1 699 1254 32 202 0 434 702 696 70
3 82 3 700 29 11 2 81 1 434 1684 397 202 699 0 437 429 704 81 1 702 1253 32 435
 0 437 705 699 706 82 3 703 29 10 2 81 1 437 1683 397 435 702 0 441 434 707 81 1
 705 1252 32 438 0 441 671 702 708 82 3 706 29 9 2 81 1 441 1682 397 438 705 0 4
43 437 709 81 1 671 1250 32 377 0 399 668 705 710 82 3 708 29 8 2 81 1 399 1687
 397 377 671 0 426 395 711 82 3 710 29 6 2 83 3 711 .615686274509804 .8117647058
82353 .929411764705882 83 3 709 .615686274509804 .811764705882353 .9294117647058
82 83 3 707 .615686274509804 .811764705882353 .929411764705882 83 3 704 .6156862
74509804 .811764705882353 .929411764705882 83 3 701 .615686274509804 .8117647058
82353 .929411764705882 83 3 698 .615686274509804 .811764705882353 .9294117647058
82 17 692 0 444 692 692 0 712 335 0 0 +31 693 1419 0 335 0 220 0 -0 .0035 -.0052
5 0 1 0 0 0 1 .00135 30 220 921 0 218 693 219 0 +0 .0035 -.0167 -1 0 0 16 218 66
3 713 ?143 213 350 220 0 0 1 81 1 713 990 32 218 0 0 154 226 714 17 143 0 715 28
8 716 140 210 218 0 717 +15 715 571 0 288 415 0 17 288 0 715 91 143 104 717 285
 0 0 +17 716 0 715 143 91 136 292 289 0 210 -17 210 0 204 209 718 136 143 218 0
 0 -17 717 0 442 147 315 140 288 285 0 718 -15 442 560 0 284 438 0 17 147 0 442
 284 717 144 718 224 0 719 +17 315 0 442 717 284 104 720 312 0 288 +17 718 0 204
 210 205 140 147 224 0 0 -17 205 0 204 718 200 144 151 207 0 0 -17 151 0 439 203
 719 148 205 207 0 199 +15 439 549 0 203 435 0 17 203 0 439 111 151 100 199 196
 0 721 +17 719 0 439 151 111 144 284 281 0 205 -17 111 0 439 719 203 108 722 316
 0 284 +17 284 0 442 315 147 108 719 281 0 720 +17 720 0 454 115 107 108 315 312
 0 723 -15 454 1119 0 107 371 0 17 115 0 454 724 720 112 723 331 0 725 +17 107 0
 454 720 724 104 726 334 0 727 +17 723 0 461 722 725 108 115 331 0 0 -15 461 111
7 0 341 453 0 17 722 0 461 341 723 100 111 316 0 0 -17 725 0 461 723 341 112 119
 305 0 311 -17 341 0 461 725 722 116 721 338 0 0 +17 119 0 402 123 311 116 725 3
05 0 728 +17 311 0 402 119 131 112 724 308 0 0 +15 402 1016 0 131 377 424 17 131
 0 402 311 135 128 729 293 0 726 +17 724 0 454 107 115 128 311 308 0 0 -17 135 0
 402 131 127 132 730 296 0 731 +17 729 0 468 345 726 132 131 293 0 0 -17 726 0 4
68 729 727 128 107 334 0 724 -15 468 1115 0 345 460 0 17 727 0 468 726 345 104 9
1 327 0 315 -17 345 0 468 727 729 88 731 342 0 0 +17 91 0 715 716 288 88 727 327
 0 292 +17 292 0 416 95 139 88 716 289 0 732 +15 416 577 0 292 410 0 17 95 0 416
 190 292 92 732 324 0 186 +17 139 0 416 292 190 136 209 213 0 716 +17 732 0 479
 731 353 88 95 324 0 345 -15 479 1111 0 353 406 0 17 731 0 479 730 732 132 345 3
42 0 729 -17 353 0 479 732 730 92 733 350 0 0 +17 730 0 479 353 731 124 135 296
 0 0 -17 733 0 407 734 191 124 353 350 0 730 -15 407 1109 0 194 375 0 17 734 0 4
07 194 733 120 127 299 0 349 -17 191 0 407 733 194 92 99 192 0 353 -17 194 0 407
 191 734 96 349 346 0 735 -17 349 0 474 728 735 120 194 346 0 0 +17 735 0 474 34
9 721 96 103 319 0 0 -15 474 1113 0 349 467 0 17 721 0 474 735 728 100 341 338 0
 722 -17 103 0 193 199 183 100 735 319 0 203 +17 728 0 474 721 349 116 123 302 0
 341 -17 123 0 402 127 119 120 728 302 0 734 +17 127 0 402 135 123 124 734 299 0
 733 +17 190 0 416 139 95 152 186 197 0 209 -17 186 0 182 99 155 92 190 197 0 19
1 +81 1 154 989 32 152 0 0 179 713 736 81 1 226 991 32 224 0 0 713 223 737 82 3
 714 28 0 1 81 1 223 992 32 207 0 0 226 206 738 82 3 737 28 1 1 81 1 206 993 32
 201 0 0 223 214 739 82 3 738 28 2 1 82 3 739 28 3 1 82 3 736 28 5 0 15 444 1369
 0 692 415 715 17 712 0 372 712 712 0 692 335 0 0 -15 372 1399 0 712 367 423 83
 3 688 .615686274509804 .811764705882353 .929411764705882 82 3 683 29 1 2 82 3 6
81 29 2 2 81 1 277 1243 32 197 0 0 195 676 740 82 3 679 29 0 2 81 1 195 1242 32
 184 0 0 280 277 741 82 3 740 29 23 1 81 1 280 1241 32 196 0 0 283 195 742 82 3
 741 29 22 1 81 1 283 1240 32 281 0 0 287 280 743 82 3 742 29 21 1 81 1 287 1239
 32 285 0 0 291 283 744 82 3 743 29 20 1 81 1 291 1238 32 289 0 0 326 287 745 82
 3 744 29 19 1 81 1 326 1237 32 324 0 0 298 291 746 82 3 745 29 18 1 81 1 298 12
36 32 296 0 0 323 326 747 82 3 746 29 17 1 81 1 323 1235 32 192 0 0 301 298 748
 82 3 747 29 16 1 81 1 301 1234 32 299 0 0 352 323 749 82 3 748 29 15 1 81 1 352
 1233 32 350 0 0 321 301 750 82 3 749 29 14 1 81 1 321 1232 32 319 0 0 304 352 7
51 82 3 750 29 13 1 81 1 304 1231 32 302 0 0 348 321 752 82 3 751 29 12 1 81 1 3
48 1230 32 346 0 0 318 304 753 82 3 752 29 11 1 81 1 318 1229 32 316 0 0 307 348
 754 82 3 753 29 10 1 81 1 307 1228 32 305 0 0 340 318 755 82 3 754 29 9 1 81 1
 340 1227 32 338 0 0 314 307 756 82 3 755 29 8 1 81 1 314 1226 32 312 0 0 310 34
0 757 82 3 756 29 7 1 81 1 310 1225 32 308 0 0 333 314 758 82 3 757 29 6 1 81 1
 333 1224 32 331 0 0 329 310 759 82 3 758 29 5 1 81 1 329 1223 32 327 0 0 295 33
3 760 82 3 759 29 4 1 81 1 295 1222 32 293 0 0 344 329 761 82 3 760 29 3 1 81 1
 344 1221 32 342 0 0 337 295 762 82 3 761 29 2 1 81 1 337 1220 32 334 0 0 94 344
 763 82 3 762 29 1 1 81 1 94 1219 32 92 0 0 126 337 764 82 3 763 29 0 1 81 1 126
 1218 32 124 0 0 98 94 765 82 3 764 29 11 0 81 1 98 1217 32 96 0 0 122 126 766 8
2 3 765 29 10 0 81 1 122 1216 32 120 0 0 102 98 767 82 3 766 29 9 0 81 1 102 121
5 32 100 0 0 118 122 768 82 3 767 29 8 0 81 1 118 1214 32 116 0 0 110 102 769 82
 3 768 29 7 0 81 1 110 1213 32 108 0 0 114 118 770 82 3 769 29 6 0 81 1 114 1212
 32 112 0 0 90 110 771 82 3 770 29 5 0 81 1 90 1211 32 88 0 0 134 114 772 82 3 7
71 29 4 0 81 1 134 1210 32 132 0 0 106 90 773 82 3 772 29 3 0 81 1 106 1209 32 1
04 0 0 130 134 774 82 3 773 29 2 0 81 1 130 1208 32 128 0 0 216 106 775 82 3 774
 29 1 0 81 1 216 995 32 213 0 0 214 130 776 82 3 775 29 0 0 82 3 776 28 5 1 82 3
 675 29 3 2 82 3 672 29 5 2 82 3 669 29 4 2 81 1 158 811 32 156 0 0 162 661 777
 81 1 663 983 32 1 0 778 661 138 779 82 3 664 27 1 2 81 1 778 1676 780 1 663 14
 0 0 781 81 1 138 984 32 136 0 0 663 142 782 82 3 779 16 0 3 81 1 142 985 32 140
 0 0 138 146 783 82 3 782 28 0 0 81 1 146 986 32 144 0 0 142 150 784 82 3 783 28
 1 0 81 1 150 987 32 148 0 0 146 179 785 82 3 784 28 2 0 82 3 785 28 3 0 80 1 78
0 786 787 8038 0 0 0 0 0 0 0 0 0 TTTTTTTTTTTTTFTF10 81 1 14 1677 786 1 778 2 0 0
 788 98 15 781 82 101 100 117 99 116 105 111 110 32 115 104 97 102 116 80 1 786
 789 790 8017 0 0 0 0 0 0 0 0 0 TTTTTTTTTTTTTFTF3 84 15 788 Reduction shaft79 13
 790 SDL/TYSA_NAME79 14 787 SDL/TYSA_UNAME81 1 162 785 32 160 0 0 166 158 791 82
 3 777 27 22 0 81 1 166 781 32 164 0 0 170 162 792 82 3 791 27 20 0 81 1 170 777
 32 168 0 0 173 166 793 82 3 792 27 18 0 81 1 173 773 32 171 0 0 176 170 794 82
 3 793 27 16 0 81 1 176 769 32 174 0 0 249 173 795 82 3 794 27 14 0 81 1 249 763
 32 247 0 0 245 176 796 82 3 795 27 12 0 81 1 245 760 32 243 0 0 241 249 797 82
 3 796 27 32 1 81 1 241 757 32 239 0 0 237 245 798 82 3 797 27 30 1 81 1 237 754
 32 235 0 0 233 241 799 82 3 798 27 28 1 81 1 233 751 32 231 0 0 229 237 800 82
 3 799 27 26 1 81 1 229 748 32 227 0 0 275 233 801 82 3 800 27 24 1 81 1 275 450
 32 273 0 0 271 229 802 82 3 801 27 34 1 81 1 271 449 32 269 0 0 0 275 803 82 3
 802 21 1 1 82 3 803 21 0 1 79 15 660 SDL/TYSA_COLOUR83 3 655 .615686274509804 .
811764705882353 .929411764705882 83 3 652 .615686274509804 .811764705882353 .929
411764705882 83 3 649 .615686274509804 .811764705882353 .929411764705882 83 3 64
6 .615686274509804 .811764705882353 .929411764705882 83 3 643 .615686274509804 .
811764705882353 .929411764705882 83 3 640 .615686274509804 .811764705882353 .929
411764705882 83 3 637 .615686274509804 .811764705882353 .929411764705882 83 3 63
4 .615686274509804 .811764705882353 .929411764705882 83 3 629 .615686274509804 .
811764705882353 .929411764705882 82 3 612 37 8 1 82 3 538 37 7 1 82 3 532 37 4 1
 83 3 518 .615686274509804 .811764705882353 .929411764705882 80 2 448 804 805 80
44 0 0 0 0 3 5 0 0 0 FFFFTFFFTTFFFFFF3 2 81 2 19 1572 448 7 0 0 446 506 806 807
 84 6 512 BAAAAB83 3 513 -28421709430404e-27 .001131370849937042 8e-4 84 6 806 B
AAAAB83 3 807 28421709430404e-27 .00113137084990862 8e-4 79 17 805 SDL/TYSA_BLEN
D_ID84 6 507 BAAAAB83 3 508 0 .001131370849898476 8e-4 84 6 501 BAAAAB83 3 502 0
 .001131370849898476 8e-4 84 6 494 BAAAAB83 3 495 0 .00113137084990862 8e-4 84 6
 487 BAAAAB83 3 488 -28421709430404e-27 .00113137084990862 8e-4 84 6 481 BAAAAB8
3 3 482 0 .000565685424940101 4e-4 84 6 476 BAAAAB83 3 477 -28421709430404e-27 .
000565685424968523 4e-4 84 6 471 BAAAAB83 3 472 0 .000565685424949239 4e-4 84 6
 464 BAAAAB83 3 465 0 .000565685424949239 4e-4 84 6 457 BAAAAB83 3 458 284217094
30404e-27 .000565685424940101 4e-4 84 6 450 BAAAAB83 3 451 -28421709430404e-27 .
000565685424968523 4e-4 83 3 430 .615686274509804 .811764705882353 .929411764705
882 83 3 414 .615686274509804 .811764705882353 .929411764705882 83 3 400 .615686
274509804 .811764705882353 .929411764705882 141 366 351 366 366 356 82 3 217 28
 4 1 82 3 181 28 4 0 81 1 34 1628 32 85 0 0 30 65 808 81 1 65 1629 32 63 0 0 34
 44 809 82 3 808 37 1 0 81 1 44 1630 32 82 0 0 65 41 810 82 3 809 37 2 0 82 3 81
0 37 3 0 82 3 46 37 4 0 82 3 35 37 0 0 19 18 196 0 1 0 10 6 0 S0 74 20 16 6 0 0
 428 483 778 14 2 489 0 0 0 0 0 0 0 0 0 0 0 0 0 0 80 1 13 397 811 8040 0 0 0 0 3
 5 0 0 0 TTTFFFFFFFFFFFFF2 83 3 15 .615686274509804 .811764705882353 .9294117647
05882 79 17 811 SDL/TYSA_COLOUR_21 0 
