**ABCDEFGHIJKLMNOPQRSTUVWXYZabcdefghijklmnopqrstuvwxyz**************************
**PARASOLID !"#$%&'()*+,-./:;<=>?@[\]^_`{|}~0123456789**************************
**PART1;
MC=unknown;
MC_MODEL=unknown;
MC_ID=unknown;
OS=unknown;
OS_RELEASE=unknown;
FRU=Parasolid 35.1.171;
APPL=Onshape;
SITE=unknown;
USER=unknown;
FORMAT=text;
GUISE=transmit;
KEY=BTGapi::writeModels_.xmt;
FILE=BTGapi::writeModels_.xmt;
**PART2;
SCH=SCH_3501171_35102;
USFLD_SIZE=0;
**PART3;
**END_OF_HEADER*****************************************************************
T51 : TRANSMIT FILE created by modeller version 350117117 SCH_3501171_351020 12
 1 744 2 3 0 0 0 0 0 0 0 1e3 1e-8 0 4 5 1 0 1 2 6 0 7 8 9 0 0 10 11 12 0 0 0 0 0
 0 0 81 1 2 722 13 1 14 0 0 0 15 70 3 0 4 T1 0 0 6 20 1 16 16 13 6 5 0 1 0 17 0
 0 18 0 52 7 710 19 20 21 0 0 -0 -.0051 -.003961889348852865 0 -1 0 .00175 .7071
06781186547 .707106781186548 0 0 -1 31 8 694 0 11 22 0 0 +0 -.0047 -.00396188934
8852865 0 -1 0 0 0 -1 .00135 29 9 513 0 12 23 0 -.00294448637286709 -.0051 -8e-4
 19 10 1 0 1 18 0 24 0 V0 16 11 691 25 ?26 0 27 8 0 0 1 18 12 510 28 29 0 30 9 ?
1 81 1 28 646 31 12 0 0 32 33 34 17 29 0 35 36 37 12 38 39 0 40 +18 30 501 41 42
 12 43 23 ?1 81 1 41 644 31 30 0 0 44 32 45 17 42 0 46 47 48 30 49 50 0 37 +18 4
3 492 51 52 30 53 54 ?1 29 23 504 0 30 54 9 .00294448637286709 -.0051 -8e-4 29 5
4 495 0 43 55 23 .00588897274573418 -1734723475976805e-33 -8e-4 29 55 486 0 53 5
6 54 .00294448637286709 .0051 -8e-4 18 53 483 57 58 43 59 55 ?1 29 56 477 0 59 6
0 55 -.00588897274573418 780625564189563e-32 -8e-4 18 59 474 61 62 53 63 56 ?1 2
9 60 473 0 63 64 56 -.00294448637286709 .0051 -8e-4 18 63 470 65 66 59 67 60 ?1
 29 64 463 0 67 68 60 -.00248260615751539 .0043 0 18 67 461 69 70 63 71 64 ?1 29
 68 459 0 71 72 64 .00248260615751539 .0043 0 18 71 457 73 74 67 75 68 ?1 29 72
 455 0 75 76 68 .00496521231503078 -1441164895754632e-33 0 18 75 453 77 78 71 79
 72 ?1 29 76 451 0 79 80 72 .00248260615751539 -.0043 0 18 79 449 44 81 75 82 76
 ?1 29 80 447 0 82 83 76 -.00248260615751539 -.0043 0 18 82 445 32 84 79 85 80 ?
1 29 83 444 0 85 86 80 -.00496521231503078 3308912750280925e-33 0 18 85 442 87 8
8 82 89 83 ?1 29 86 231 0 89 90 83 .004156921938165305 -216840434497101e-33 0 18
 89 135 91 92 85 93 86 ?1 29 90 230 0 93 94 86 .00207846096908265 -.0036 0 18 93
 139 95 96 89 97 90 ?1 29 94 229 0 97 98 90 -.002078460969082655 -.0036 0 18 97
 143 99 100 93 101 94 ?1 29 98 228 0 101 102 94 -.004156921938165305 39031278209
47815e-33 0 18 101 147 103 104 97 105 98 ?1 29 102 227 0 105 106 98 -.0020784609
69082655 .0036 0 18 105 151 107 108 101 109 102 ?1 29 106 226 0 109 110 102 .002
078460969082655 .0036 0 18 109 155 111 112 105 113 106 ?1 29 110 219 0 113 114 1
06 .00588897274573418 -1734723475976805e-33 -.00792377869770573 18 113 183 115 1
16 109 117 110 ?1 29 114 218 0 117 118 110 .00294448637286709 .0051 -.0079237786
9770573 18 117 184 119 120 113 121 114 ?1 29 118 217 0 121 122 114 .002944486372
86709 -.0051 -.00792377869770573 18 121 185 123 124 117 125 118 ?1 29 122 216 0
 125 126 118 -.00294448637286709 -.0051 -.00792377869770573 18 125 186 127 128 1
21 129 122 ?1 29 126 215 0 129 130 122 -.00588897274573418 780625564189563e-32 -
.00792377869770573 18 129 187 131 132 125 133 126 ?1 29 130 214 0 133 134 126 -.
00294448637286709 .0051 -.00792377869770573 18 133 188 135 136 129 137 130 ?1 29
 134 213 0 137 138 130 .004156921938165305 -216840434497101e-33 -.00792377869770
573 18 137 189 139 140 133 141 134 ?1 29 138 212 0 141 142 134 .0020784609690826
5 -.0036 -.00792377869770573 18 141 190 143 144 137 145 138 ?1 29 142 211 0 145
 146 138 -.002078460969082655 -.0036 -.00792377869770573 18 145 191 147 148 141
 149 142 ?1 29 146 210 0 149 150 142 -.004156921938165305 3903127820947815e-33 -
.00792377869770573 18 149 192 151 152 145 153 146 ?1 29 150 209 0 153 154 146 .0
02078460969082655 .0036 -.00792377869770573 18 153 193 155 156 149 157 150 ?1 29
 154 208 0 157 0 150 -.002078460969082655 .0036 -.00792377869770573 18 157 194 1
58 159 153 0 154 ?1 81 1 158 311 31 157 0 0 107 103 160 17 159 0 161 162 163 157
 108 164 0 165 -15 161 62 0 162 166 0 17 162 0 161 112 159 153 167 168 0 0 -17 1
63 0 161 159 112 105 169 170 0 171 +17 108 0 172 173 165 105 159 164 0 163 +16 1
64 112 174 ?108 175 176 177 0 0 1 17 165 0 172 108 152 157 178 179 0 167 -15 172
 30 0 165 180 0 17 152 0 172 165 173 149 104 176 0 181 -17 178 0 182 183 167 149
 165 179 0 0 +16 179 133 184 ?178 185 168 186 0 0 1 17 167 0 182 178 187 157 162
 168 0 0 +15 182 8 0 188 17 189 17 187 0 182 167 188 153 190 191 0 162 +16 168 1
34 192 ?167 179 193 194 0 0 1 81 1 192 345 31 168 0 0 195 196 197 16 193 398 198
 ?199 168 200 201 0 0 1 30 194 256 0 168 186 202 0 +-867361737988404e-33 .0036 -
.00792377869770573 -1 0 0 30 186 255 0 179 203 194 0 +-.00311769145362398 .0018
 -.00792377869770573 -.5 -.866025403784439 0 30 202 257 0 204 194 205 0 +-.00294
448637286709 .0051 -.00792577869770573 0 0 1 16 204 122 206 ?207 208 209 202 0 0
 1 30 205 258 0 208 202 210 0 +-.00588897274573418 780625564189563e-32 -.0079257
7869770573 0 0 1 16 208 121 211 ?212 213 204 205 0 0 1 30 210 259 0 213 205 214
 0 +-.00294448637286709 -.0051 -.00792577869770573 0 0 1 16 213 120 215 ?40 216
 208 210 0 0 1 30 214 260 0 216 210 217 0 +.00294448637286709 -.0051 -.007925778
69770573 0 0 1 16 216 119 218 ?37 219 213 214 0 0 1 30 217 261 0 219 214 220 0 +
.00588897274573418 -1734723475976805e-33 -.00792577869770573 0 0 1 16 219 118 22
1 ?48 222 216 217 0 0 1 30 220 262 0 222 217 223 0 +.00294448637286709 .0051 -.0
0792577869770573 0 0 1 16 222 117 224 ?225 226 219 220 0 0 1 30 223 263 0 226 22
0 227 0 +.004156921938165305 -216840434497101e-33 -.00792577869770573 0 0 1 16 2
26 116 228 ?92 229 222 223 0 0 1 30 227 264 0 229 223 230 0 +.00207846096908265
 -.0036 -.00792577869770573 0 0 1 16 229 115 231 ?96 232 226 227 0 0 1 30 230 26
5 0 232 227 233 0 +-.002078460969082655 -.0036 -.00792577869770573 0 0 1 16 232
 114 234 ?100 176 229 230 0 0 1 30 233 266 0 176 230 177 0 +-.004156921938165305
 3903127820947815e-33 -.00792577869770573 0 0 1 16 176 113 235 ?104 164 232 233
 0 0 1 30 177 267 0 164 233 236 0 +-.002078460969082655 .0036 -.0079257786977057
3 0 0 1 30 236 268 0 175 177 201 0 +.002078460969082655 .0036 -.0079257786977057
3 0 0 1 16 175 111 237 ?112 170 164 236 0 0 1 31 201 374 0 193 236 238 0 -0 -.00
36 -.003961889348852865 0 -1 0 0 0 -1 .00135 30 238 448 0 239 201 240 0 +-.00372
3909236273085 -.00215 0 .5 -.866025403784439 0 16 239 446 241 ?84 242 243 238 0
 0 1 30 240 452 0 242 238 244 0 +-1734723475976805e-33 -.0043 0 1 0 0 16 242 450
 245 ?81 246 239 240 0 0 1 30 244 456 0 246 240 247 0 +.003723909236273085 -.002
15 0 .5 .866025403784439 0 16 246 454 248 ?78 249 242 244 0 0 1 30 247 460 0 249
 244 250 0 +.003723909236273085 .00215 0 -.5 .866025403784439 0 16 249 458 251 ?
74 252 246 247 0 0 1 30 250 464 0 252 247 253 0 +-1734723475976805e-33 .0043 0 -
1 0 0 16 252 462 254 ?70 255 249 250 0 0 1 30 253 467 0 255 250 256 0 +-.0037239
09236273085 .00215 0 -.5 -.866025403784439 0 16 255 465 257 ?258 259 252 253 0 0
 1 30 256 480 0 259 253 260 0 +-.004416729559300635 .00255 -8e-4 .5 .86602540378
4439 0 16 259 478 261 ?262 263 255 256 0 0 1 30 260 489 0 263 256 264 0 +0 .0051
 -8e-4 1 0 0 16 263 487 265 ?58 266 259 260 0 0 1 30 264 498 0 266 260 267 0 +.0
0441672955930064 .00255 -8e-4 .5 -.866025403784439 0 16 266 496 268 ?52 50 263 2
64 0 0 1 30 267 507 0 50 264 269 0 +.004416729559300635 -.00255 -8e-4 -.5 -.8660
25403784439 0 16 50 505 270 ?42 39 266 267 0 0 1 30 269 516 0 39 267 271 0 +-433
680868994202e-33 -.0051 -8e-4 -1 0 0 16 39 514 272 ?29 273 50 269 0 0 1 30 271 5
21 0 273 269 274 0 +-.004416729559300635 -.00255 -8e-4 -.5 .866025403784439 0 16
 273 519 275 ?62 27 39 271 0 0 1 30 274 596 0 276 271 277 0 --.00425589627002638
5 260208521396521e-32 .000614285714285714 -.755928946018454 311118833127312e-30
 -.654653670707977 16 276 566 278 ?88 279 0 274 0 0 1 30 277 595 0 279 274 280 0
 --.00212794813501319 .003685714285714285 .000614285714285715 .3779644730092275
 -.654653670707977 .654653670707977 16 279 564 33 ?66 281 276 277 0 0 1 30 280 5
94 0 281 277 282 0 +-.00212794813501319 -.003685714285714285 .000614285714285715
 .3779644730092275 .654653670707977 .654653670707978 16 281 561 283 ?284 285 279
 280 0 0 1 30 282 593 0 285 280 286 0 -.00212794813501319 .00368571428571429 .00
0614285714285713 -.3779644730092275 -.654653670707977 .654653670707977 16 285 55
8 287 ?288 289 281 282 0 0 1 30 286 592 0 289 282 290 0 +.00212794813501319 -.00
368571428571429 .000614285714285713 -.3779644730092265 .654653670707977 .6546536
70707978 16 289 555 291 ?292 200 285 286 0 0 1 30 290 591 0 200 286 22 0 -.00425
5896270026385 -303576608295941e-32 .000614285714285716 -.755928946018454 -103677
1623456486e-30 .654653670707978 16 200 552 293 ?294 193 289 290 0 0 1 31 22 688
 0 27 290 8 0 -0 -.0051 -.003961889348852865 0 -1 0 0 0 -1 .00175 16 27 685 295
 ?296 11 273 22 0 0 1 81 1 295 716 31 27 0 0 25 297 298 17 296 0 299 296 296 0 3
00 27 0 0 +15 299 686 0 296 301 35 17 300 0 302 300 300 0 296 27 0 0 -15 302 705
 0 300 20 0 14 20 703 303 ?0 304 305 6 7 +0 0 0 304 24 81 1 303 744 306 20 297 0
 307 0 308 14 304 545 307 ?20 309 310 6 311 +0 0 20 309 24 15 305 704 0 312 20 3
02 13 24 3 0 0 0 0 0 0 10 313 14 313 10 314 ?315 17 316 6 317 +0 0 315 0 24 81 1
 314 724 306 313 318 0 319 320 321 14 315 13 320 ?301 313 322 6 323 +0 0 301 313
 24 14 17 6 319 ?313 0 182 6 324 +0 0 325 166 24 15 316 12 0 212 313 0 50 317 23
4 0 313 326 323 0 +-.004416729559300635 .00255 -.00792577869770573 -.86602540378
4439 .5 0 -.5 -.866025403784439 0 50 326 233 0 327 324 317 0 +0 .0051 -.00792577
869770573 0 1 0 0 0 1 50 323 235 0 315 317 328 0 +-.004416729559300635 -.00255 -
.00792577869770573 -.866025403784439 -.5 0 .5 -.866025403784439 0 50 328 236 0 3
01 323 329 0 +-433680868994202e-33 -.0051 -.00792577869770573 0 -1 0 0 0 -1 14 3
01 16 330 ?331 315 299 6 328 +0 0 331 315 24 50 329 237 0 332 328 333 0 +.004416
729559300635 -.00255 -.00792577869770573 .866025403784439 -.5 0 .5 .866025403784
439 0 14 332 51 334 ?335 327 46 6 329 +0 0 335 327 24 50 333 238 0 336 329 337 0
 +.00311769145362398 .0018 -.00792577869770573 .866025403784439 .5 0 -.5 .866025
403784439 0 14 336 57 338 ?166 335 339 6 333 -0 0 166 335 24 50 337 239 0 331 33
3 340 0 +.00311769145362398 -.0018 -.00792577869770573 .866025403784439 -.5 0 .5
 .866025403784439 0 14 331 19 341 ?342 301 343 6 337 -0 0 342 301 24 50 340 240
 0 342 337 344 0 +-867361737988404e-33 -.0036 -.00792577869770573 0 -1 0 0 0 -1
 14 342 22 345 ?346 331 347 6 340 -0 0 346 331 24 50 344 241 0 346 340 348 0 +-.
00311769145362398 -.0018 -.00792577869770573 -.866025403784439 -.5 0 .5 -.866025
403784439 0 14 346 25 349 ?180 342 350 6 344 -0 0 180 342 24 50 348 242 0 180 34
4 351 0 +-.00311769145362398 .0018 -.00792577869770573 -.866025403784439 .5 0 -.
5 -.866025403784439 0 14 180 28 352 ?353 346 172 6 348 -0 0 353 346 24 50 351 24
3 0 166 348 354 0 +-867361737988404e-33 .0036 -.00792577869770573 0 1 0 0 0 1 14
 166 60 355 ?325 336 161 6 351 -0 0 17 336 24 50 354 244 0 335 351 311 0 +.00441
672955930064 .00255 -.00792577869770573 .866025403784439 .5 0 -.5 .8660254037844
39 0 14 335 54 356 ?336 332 357 6 354 +0 0 336 332 24 50 311 589 358 304 354 359
 0 --.003723909236273085 .00215 0 .612372435695795 -.353553390593274 -.707106781
186547 -.5 -.866025403784439 0 81 2 358 590 360 311 0 0 361 19 362 363 50 359 58
7 361 309 311 364 0 --.003723909236273085 -.00215 0 .612372435695795 .3535533905
932735 -.707106781186547 .5 -.866025403784439 0 81 2 361 588 360 359 0 0 365 358
 366 367 14 309 543 368 ?304 369 370 6 359 +0 0 304 369 24 50 364 585 365 369 35
9 371 0 --1734723475976805e-33 .0043 0 0 -.707106781186548 -.707106781186547 -1
 0 0 81 2 365 586 360 364 0 0 372 361 373 374 14 369 541 375 ?309 376 377 6 364
 +0 0 309 376 24 50 371 583 372 376 364 378 0 --1734723475976805e-33 -.0043 0 0
 .707106781186548 -.707106781186547 1 0 0 81 2 372 584 360 371 0 0 379 365 380 3
81 14 376 539 382 ?369 383 384 6 371 +0 0 369 383 24 50 378 581 379 383 371 21 0
 -.003723909236273085 .00215 0 -.612372435695795 -.3535533905932735 -.7071067811
86547 -.5 .866025403784439 0 81 2 379 582 360 378 0 0 385 372 386 387 14 383 537
 388 ?376 389 390 6 378 +0 0 376 389 24 50 21 579 385 389 378 7 0 -.003723909236
273085 -.00215 0 -.612372435695795 .3535533905932745 -.707106781186547 .5 .86602
5403784439 0 81 2 385 580 360 21 0 0 0 379 391 392 14 389 535 393 ?383 325 394 6
 21 +0 0 383 325 24 81 1 393 738 306 389 395 0 396 388 397 14 325 413 396 ?389 1
66 398 6 399 +0 0 389 17 24 15 394 536 0 400 389 0 17 400 0 394 49 401 30 292 28
9 0 38 -17 49 0 394 402 400 43 42 50 0 294 -17 401 0 394 400 402 79 78 246 0 292
 -17 292 0 384 403 38 79 400 289 0 0 +17 38 0 384 292 404 30 29 39 0 0 -15 384 5
40 0 292 376 0 17 404 0 384 38 403 12 284 281 0 405 -17 403 0 384 404 292 82 81
 242 0 284 -17 284 0 370 406 405 82 404 281 0 0 +17 405 0 370 284 407 12 62 273
 0 0 -15 370 544 0 284 309 0 17 407 0 370 405 406 59 88 276 0 0 -17 62 0 322 408
 40 59 405 273 0 212 +15 322 15 0 40 315 0 17 408 0 322 409 62 129 212 208 0 0 -
17 40 0 322 62 409 12 36 213 0 404 +17 212 0 316 262 410 59 408 208 0 411 +17 26
2 0 316 412 212 63 411 259 0 207 +17 410 0 316 212 412 129 136 413 0 408 +17 411
 0 310 88 66 59 262 259 0 407 -15 310 546 0 66 304 0 17 88 0 310 414 411 85 407
 276 0 406 +17 66 0 310 411 414 63 415 279 0 416 +17 414 0 310 66 88 67 258 255
 0 0 -17 415 0 377 417 416 67 66 279 0 414 -17 416 0 377 415 288 63 58 263 0 262
 -15 377 542 0 288 369 0 17 288 0 377 416 417 53 418 285 0 0 +17 58 0 419 420 20
7 53 416 263 0 225 +15 419 50 0 207 327 0 17 420 0 419 421 58 117 225 222 0 0 -1
7 207 0 419 58 421 63 412 204 0 0 +17 225 0 357 52 120 53 420 222 0 422 +15 357
 56 0 225 335 0 17 52 0 357 423 225 43 422 266 0 48 +17 120 0 357 225 423 117 11
6 209 0 424 +17 422 0 390 418 294 53 52 266 0 288 -15 390 538 0 294 383 0 17 418
 0 390 425 422 71 288 285 0 417 -17 294 0 390 422 425 43 402 200 0 0 +17 425 0 3
90 294 418 75 74 249 0 0 -17 402 0 394 401 49 75 294 200 0 425 -17 74 0 426 70 7
8 71 425 249 0 418 +15 426 443 0 70 353 427 17 70 0 426 258 74 67 417 252 0 415
 +17 78 0 426 74 81 75 401 246 0 402 +17 81 0 426 78 84 79 403 242 0 401 +17 84
 0 426 81 258 82 406 239 0 403 +17 258 0 426 84 70 85 414 255 0 0 +17 406 0 370
 407 284 85 84 239 0 258 -17 417 0 377 288 415 71 70 252 0 0 -14 353 31 428 ?327
 180 426 6 429 +0 0 327 180 24 15 427 46 0 430 353 0 17 430 0 427 431 169 89 432
 243 0 0 -17 431 0 427 433 430 93 434 435 0 0 -17 169 0 427 430 171 109 163 170
 0 432 -17 432 0 339 156 92 109 430 243 0 0 +16 243 63 436 ?432 239 435 437 0 0
 1 81 1 436 342 31 243 0 0 438 439 440 16 435 67 441 ?434 243 442 443 0 0 1 30 4
37 207 0 243 443 444 0 +.00311769145362398 .0018 0 -.5 .866025403784439 0 30 443
 206 0 435 445 437 0 +.00311769145362398 -.0018 0 .5 .866025403784439 0 30 444 2
45 0 209 437 446 0 +.00441672955930064 .00255 -.00792377869770573 -.5 .866025403
784439 0 16 209 123 447 ?120 204 448 444 0 0 1 30 446 246 0 448 444 449 0 +.0044
16729559300635 -.00255 -.00792377869770573 .5 .866025403784439 0 16 448 124 450
 ?451 209 452 446 0 0 1 30 449 247 0 452 446 453 0 +-433680868994202e-33 -.0051
 -.00792377869770573 1 0 0 16 452 125 454 ?455 448 456 449 0 0 1 30 453 248 0 45
6 449 457 0 +-.004416729559300635 -.00255 -.00792377869770573 .5 -.8660254037844
39 0 16 456 126 438 ?409 452 413 453 0 0 1 30 457 249 0 413 453 458 0 +-.0044167
29559300635 .00255 -.00792377869770573 -.5 -.866025403784439 0 16 413 127 459 ?4
10 456 460 457 0 0 1 30 458 250 0 460 457 461 0 +0 .0051 -.00792377869770573 -1
 0 0 16 460 128 462 ?421 413 191 458 0 0 1 30 461 251 0 191 458 463 0 +.00311769
145362398 .0018 -.00792377869770573 -.5 .866025403784439 0 16 191 129 439 ?187 4
60 464 461 0 0 1 30 463 252 0 464 461 465 0 +.00311769145362398 -.0018 -.0079237
7869770573 .5 .866025403784439 0 16 464 130 466 ?188 191 467 463 0 0 1 30 465 25
3 0 467 463 203 0 +-867361737988404e-33 -.0036 -.00792377869770573 1 0 0 16 467
 131 468 ?469 464 185 465 0 0 1 30 203 254 0 185 465 186 0 +-.00311769145362398
 -.0018 -.00792377869770573 .5 -.866025403784439 0 16 185 132 470 ?183 467 179 2
03 0 0 1 81 1 470 349 31 185 0 0 471 472 473 17 183 0 182 469 178 145 181 185 0
 0 +17 469 0 182 188 183 141 474 467 0 0 +17 181 0 350 104 148 149 183 185 0 178
 -15 350 27 0 181 346 0 17 104 0 350 475 181 101 152 176 0 173 +17 148 0 350 181
 475 145 100 232 0 474 -17 475 0 350 148 104 97 476 477 0 433 +17 100 0 478 479
 474 97 148 232 0 475 +17 474 0 478 100 144 145 469 467 0 183 -15 478 24 0 474 3
42 0 17 144 0 478 474 479 141 96 229 0 480 -17 479 0 478 144 100 93 433 442 0 43
1 +17 96 0 343 434 480 93 144 229 0 479 +17 480 0 343 96 140 141 188 464 0 469 -
15 343 21 0 480 331 0 17 140 0 343 480 434 137 92 226 0 190 -17 188 0 182 187 46
9 137 480 464 0 0 +17 434 0 343 140 96 89 431 435 0 430 +17 92 0 339 432 190 89
 140 226 0 434 +17 190 0 339 92 156 137 187 191 0 188 -15 339 59 0 190 336 0 17
 156 0 339 190 432 153 112 175 0 187 -17 112 0 161 163 162 109 156 175 0 169 +17
 433 0 427 476 431 97 479 442 0 0 -16 442 71 472 ?479 435 477 445 0 0 1 81 1 472
 350 31 442 0 0 470 468 481 16 477 75 471 ?475 442 482 483 0 0 1 30 445 205 0 44
2 483 443 0 +-867361737988404e-33 -.0036 0 1 0 0 30 483 204 0 477 484 445 0 +-.0
0311769145362398 -.0018 0 .5 -.866025403784439 0 30 484 203 0 482 485 483 0 +-.0
0311769145362398 .0018 0 -.5 -.866025403784439 0 16 482 79 196 ?173 477 170 484
 0 0 1 30 485 202 0 170 0 484 0 +-867361737988404e-33 .0036 0 -1 0 0 16 170 83 1
95 ?163 482 175 485 0 0 1 81 1 195 344 31 170 0 0 439 192 486 80 1 31 487 488 90
00 0 0 0 0 3 6 0 0 0 FFTFTFTTFFFFFFFF1 81 1 439 343 31 191 0 0 436 195 489 82 3
 486 373 26 1 82 3 489 373 25 1 79 9 488 BTI/DetId81 1 196 346 31 482 0 0 192 18
4 490 17 173 0 172 152 108 101 171 482 0 476 +17 171 0 427 169 476 105 173 482 0
 0 -17 476 0 427 171 433 101 475 477 0 0 -81 1 184 347 31 179 0 0 196 471 491 82
 3 490 373 28 1 81 1 471 348 31 477 0 0 184 470 492 82 3 491 373 29 1 82 3 492 3
73 30 1 81 1 468 351 31 467 0 0 472 441 493 82 3 481 373 32 1 81 1 441 352 31 43
5 0 0 468 466 494 82 3 493 373 33 1 81 1 466 353 31 464 0 0 441 495 496 82 3 494
 373 34 1 81 1 495 356 31 17 0 319 466 497 498 82 3 496 373 35 1 81 1 319 723 30
6 17 495 0 0 314 499 81 1 497 362 31 336 0 338 495 500 501 82 3 498 373 2 2 81 1
 338 735 306 336 497 0 356 355 502 81 1 500 363 31 166 0 355 497 503 504 82 3 50
1 373 8 2 81 1 355 736 306 166 500 0 338 396 505 81 1 503 364 31 180 0 352 500 5
06 507 82 3 504 373 9 2 81 1 352 730 306 180 503 0 349 428 508 81 1 506 365 31 3
46 0 349 503 509 510 82 3 507 373 10 2 81 1 349 729 306 346 506 0 345 352 511 81
 1 509 367 31 331 0 341 506 512 513 82 3 510 373 11 2 81 1 341 727 306 331 509 0
 330 345 514 81 1 512 368 31 1 0 515 509 198 516 82 3 513 373 13 2 81 1 515 720
 517 1 512 14 0 0 518 81 1 198 432 31 193 0 0 512 519 520 82 3 516 373 0 3 81 1
 519 434 31 342 0 345 198 65 521 82 3 520 379 3 1 81 1 345 728 306 342 519 0 341
 349 522 81 1 65 635 31 63 0 0 519 69 523 82 3 521 379 3 2 81 1 69 636 31 67 0 0
 65 61 524 82 3 523 380 15 0 81 1 61 637 31 59 0 0 69 87 525 82 3 524 380 16 0 8
1 1 87 638 31 85 0 0 61 73 526 82 3 525 380 17 0 81 1 73 639 31 71 0 0 87 57 527
 82 3 526 380 18 0 81 1 57 640 31 53 0 0 73 77 528 82 3 527 380 19 0 81 1 77 641
 31 75 0 0 57 51 529 82 3 528 380 20 0 81 1 51 642 31 43 0 0 77 44 530 82 3 529
 380 21 0 81 1 44 643 31 79 0 0 51 41 531 82 3 530 380 22 0 82 3 531 380 23 0 80
 1 306 0 532 8001 0 0 0 0 3 5 0 0 0 FFFFTFTFFFFFFFFF2 83 3 522 .231372549019608
 .380392156862745 .705882352941177 79 15 532 SDL/TYSA_COLOUR80 1 517 533 534 803
8 0 0 0 0 0 0 0 0 0 TTTTTTTTTTTTTFTF10 81 1 14 721 533 1 515 2 0 0 535 98 17 518
 84 105 108 116 32 100 114 105 118 101 32 99 111 108 108 97 114 80 1 533 536 537
 8017 0 0 0 0 0 0 0 0 0 TTTTTTTTTTTTTFTF3 84 17 535 Tilt drive collar79 13 537 S
DL/TYSA_NAME79 14 534 SDL/TYSA_UNAME81 1 330 726 306 301 538 0 320 341 539 83 3
 514 .231372549019608 .380392156862745 .705882352941177 81 1 538 719 31 301 0 33
0 540 0 541 81 1 320 725 306 315 542 0 314 330 543 83 3 539 .231372549019608 .38
0392156862745 .705882352941177 81 1 542 682 31 315 0 320 544 25 545 83 3 543 .23
1372549019608 .380392156862745 .705882352941177 81 1 544 681 31 332 0 334 546 54
2 547 81 1 25 715 31 11 0 0 542 295 548 82 3 545 380 26 2 82 3 548 381 22 1 81 1
 334 733 306 332 544 0 549 356 550 81 1 546 680 31 335 0 356 551 544 552 82 3 54
7 380 25 2 81 1 356 734 306 335 546 0 334 338 553 81 1 551 679 31 327 0 549 554
 546 555 82 3 552 380 24 2 14 327 48 549 ?332 353 419 6 326 +0 0 332 353 24 81 1
 549 732 306 327 551 0 428 334 556 81 1 554 678 31 353 0 428 318 551 557 82 3 55
5 380 23 2 81 1 428 731 306 353 554 0 352 549 558 81 1 318 677 31 313 0 314 559
 554 560 82 3 557 380 22 2 81 1 559 676 31 309 0 368 561 318 562 82 3 560 380 21
 2 81 1 368 742 306 309 559 0 375 307 563 81 1 561 675 31 376 0 382 395 559 564
 82 3 562 380 13 2 81 1 382 740 306 376 561 0 388 375 565 81 1 395 674 31 389 0
 393 566 561 567 82 3 564 380 12 2 81 1 566 673 31 383 0 388 568 395 569 82 3 56
7 380 11 2 81 1 388 739 306 383 566 0 393 382 570 81 1 568 672 31 369 0 375 571
 566 572 82 3 569 380 10 2 81 1 375 741 306 369 568 0 382 368 573 81 1 571 671 3
1 304 0 307 215 568 574 82 3 572 380 9 2 81 1 307 743 306 304 571 0 368 303 575
 81 1 215 670 31 213 0 0 218 571 576 82 3 574 380 8 2 81 1 218 669 31 216 0 0 22
1 215 577 82 3 576 380 53 1 81 1 221 668 31 219 0 0 224 218 578 82 3 577 380 52
 1 81 1 224 667 31 222 0 0 211 221 579 82 3 578 380 51 1 81 1 211 666 31 208 0 0
 206 224 580 82 3 579 380 50 1 81 1 206 665 31 204 0 0 275 211 581 82 3 580 380
 49 1 81 1 275 664 31 273 0 0 241 206 582 82 3 581 380 48 1 81 1 241 663 31 239
 0 0 272 275 583 82 3 582 380 40 1 81 1 272 662 31 39 0 0 245 241 584 82 3 583 3
80 39 1 81 1 245 661 31 242 0 0 283 272 585 82 3 584 380 38 1 81 1 283 660 31 28
1 0 0 270 245 586 82 3 585 380 37 1 81 1 270 659 31 50 0 0 248 283 587 82 3 586
 380 36 1 81 1 248 658 31 246 0 0 291 270 588 82 3 587 380 35 1 81 1 291 657 31
 289 0 0 268 248 589 82 3 588 380 34 1 81 1 268 656 31 266 0 0 251 291 590 82 3
 589 380 33 1 81 1 251 655 31 249 0 0 293 268 591 82 3 590 380 32 1 81 1 293 654
 31 200 0 0 265 251 592 82 3 591 380 31 1 81 1 265 653 31 263 0 0 254 293 593 82
 3 592 380 30 1 81 1 254 652 31 252 0 0 287 265 594 82 3 593 380 29 1 81 1 287 6
51 31 285 0 0 257 254 595 82 3 594 380 28 1 81 1 257 650 31 255 0 0 261 287 596
 82 3 595 380 27 1 81 1 261 649 31 259 0 0 278 257 597 82 3 596 380 26 1 81 1 27
8 648 31 276 0 0 33 261 598 82 3 597 380 25 1 81 1 33 647 31 279 0 0 28 278 599
 82 3 598 380 24 1 82 3 599 380 23 1 83 3 575 .231372549019608 .380392156862745
 .705882352941177 83 3 573 .231372549019608 .380392156862745 .705882352941177 83
 3 570 .231372549019608 .380392156862745 .705882352941177 83 3 565 .231372549019
608 .380392156862745 .705882352941177 83 3 563 .231372549019608 .380392156862745
 .705882352941177 83 3 558 .231372549019608 .380392156862745 .705882352941177 83
 3 556 .231372549019608 .380392156862745 .705882352941177 83 3 553 .231372549019
608 .380392156862745 .705882352941177 83 3 550 .231372549019608 .380392156862745
 .705882352941177 81 1 540 718 31 325 0 396 297 538 600 82 3 541 381 20 2 81 1 3
96 737 306 325 540 0 355 393 601 81 1 297 717 31 20 0 303 295 540 602 82 3 600 3
81 18 2 82 3 602 381 8 2 83 3 601 .231372549019608 .380392156862745 .70588235294
1177 83 3 511 .231372549019608 .380392156862745 .705882352941177 83 3 508 .23137
2549019608 .380392156862745 .705882352941177 83 3 505 .231372549019608 .38039215
6862745 .705882352941177 83 3 502 .231372549019608 .380392156862745 .70588235294
1177 83 3 499 .231372549019608 .380392156862745 .705882352941177 82 3 473 373 31
 1 81 1 462 333 31 460 0 0 459 447 603 17 421 0 419 207 420 133 424 460 0 412 +1
7 424 0 189 116 136 117 421 460 0 420 -17 412 0 316 410 262 133 207 204 0 0 -15
 189 9 0 424 17 0 17 116 0 189 124 424 113 120 209 0 451 -17 136 0 189 424 132 1
33 410 413 0 421 -17 132 0 189 136 128 129 409 456 0 410 -17 128 0 189 132 124 1
25 455 452 0 409 -17 409 0 322 40 408 125 132 456 0 36 +17 36 0 35 455 29 125 40
 213 0 0 -15 35 18 0 37 301 0 17 455 0 35 37 36 121 128 452 0 47 +17 37 0 35 29
 455 30 47 216 0 400 +17 47 0 46 451 42 121 37 216 0 0 -15 46 53 0 48 332 0 17 4
51 0 46 48 47 113 124 448 0 423 +17 48 0 46 42 451 43 423 219 0 49 +17 124 0 189
 128 116 121 451 448 0 455 -17 423 0 357 120 52 113 48 219 0 0 -81 1 459 331 31
 413 0 0 231 462 604 81 1 447 335 31 209 0 0 462 450 605 82 3 603 373 15 1 81 1
 450 337 31 448 0 0 447 454 606 82 3 605 373 17 1 81 1 454 339 31 452 0 0 450 43
8 607 82 3 606 373 19 1 81 1 438 341 31 456 0 0 454 436 608 82 3 607 373 21 1 82
 3 608 373 23 1 81 1 231 329 31 229 0 0 234 459 609 82 3 604 373 13 1 81 1 234 3
28 31 232 0 0 235 231 610 82 3 609 373 11 1 81 1 235 327 31 176 0 0 174 234 611
 82 3 610 373 10 1 81 1 174 326 31 164 0 0 237 235 612 82 3 611 373 9 1 81 1 237
 325 31 175 0 0 228 174 613 82 3 612 373 8 1 81 1 228 324 31 226 0 0 143 237 614
 82 3 613 373 7 1 81 1 143 317 31 141 0 0 95 228 615 82 3 614 373 6 1 81 1 95 31
6 31 93 0 0 147 143 616 82 3 615 373 23 0 81 1 147 315 31 145 0 0 99 95 617 82 3
 616 373 22 0 81 1 99 314 31 97 0 0 151 147 618 82 3 617 373 21 0 81 1 151 313 3
1 149 0 0 103 99 619 82 3 618 373 20 0 81 1 103 312 31 101 0 0 158 151 620 82 3
 619 373 19 0 82 3 620 373 18 0 82 3 440 373 24 1 50 429 195 0 353 399 324 0 +-1
734723475976805e-33 1734723475976805e-33 0 0 0 1 1 0 0 51 399 425 0 325 0 429 0
 -0 -.0051 -.003961889348852865 0 1 0 .00135 0 0 1 50 324 232 0 17 429 326 0 +34
93105000783945e-34 -.00410163466423104 -.00792377869770573 0 0 -1 0 1 0 15 398 6
92 0 26 325 621 17 26 0 398 26 26 0 312 11 0 0 +15 621 407 0 199 325 0 17 199 0
 621 199 199 0 622 193 0 0 +17 622 0 347 622 622 0 199 193 0 0 -15 347 373 0 622
 342 478 17 312 0 305 312 312 0 26 11 0 0 -83 3 397 .231372549019608 .3803921568
62745 .705882352941177 80 2 360 623 624 8044 0 0 0 0 3 5 0 0 0 FFFFTFFFTTFFFFFF3
 2 84 6 391 BAAAAB83 3 392 0 .001131370849908622 8e-4 79 17 624 SDL/TYSA_BLEND_I
D84 6 386 BAAAAB83 3 387 0 .001131370849908622 8e-4 84 6 380 BAAAAB83 3 381 0 .0
01131370849898476 8e-4 84 6 373 BAAAAB83 3 374 0 .001131370849898476 8e-4 84 6 3
66 BAAAAB83 3 367 28421709430404e-27 .001131370849908622 8e-4 81 2 19 711 360 7
 0 0 358 0 625 626 84 6 362 BAAAAB83 3 363 28421709430404e-27 .0011313708498802
 8e-4 84 6 625 BAAAAB83 3 626 -4e-4 0 4e-4 83 3 321 .231372549019608 .3803921568
62745 .705882352941177 83 3 308 .231372549019608 .380392156862745 .7058823529411
77 82 3 298 381 23 1 82 3 197 373 27 1 81 1 107 310 31 105 0 0 155 158 627 82 3
 160 373 17 0 81 1 155 309 31 153 0 0 111 107 628 82 3 627 373 16 0 81 1 111 308
 31 109 0 0 139 155 629 82 3 628 373 15 0 81 1 139 307 31 137 0 0 91 111 630 82
 3 629 373 14 0 81 1 91 306 31 89 0 0 127 139 631 82 3 630 373 13 0 81 1 127 305
 31 125 0 0 123 91 632 82 3 631 373 12 0 81 1 123 303 31 121 0 0 115 127 633 82
 3 632 373 11 0 81 1 115 301 31 113 0 0 119 123 634 82 3 633 373 9 0 81 1 119 29
9 31 117 0 0 131 115 635 82 3 634 373 7 0 81 1 131 297 31 129 0 0 135 119 636 82
 3 635 373 5 0 81 1 135 295 31 133 0 0 0 131 637 82 3 636 373 3 0 82 3 637 373 1
 0 81 1 32 645 31 82 0 0 41 28 638 82 3 638 380 25 0 82 3 45 380 24 0 82 3 34 38
0 26 0 19 18 4 0 1 0 10 6 0 S0 74 20 16 6 0 0 538 19 515 14 2 303 0 0 0 0 0 0 0
 0 0 0 0 0 0 0 80 1 13 306 639 8040 0 0 0 0 3 5 0 0 0 TTTFFFFFFFFFFFFF2 83 3 15
 .231372549019608 .380392156862745 .705882352941177 79 17 639 SDL/TYSA_COLOUR_21
 0 
